<?xml version="1.0" encoding="UTF-8" standalone="no"?>
<svg
   xmlns:dc="http://purl.org/dc/elements/1.1/"
   xmlns:cc="http://creativecommons.org/ns#"
   xmlns:rdf="http://www.w3.org/1999/02/22-rdf-syntax-ns#"
   xmlns:svg="http://www.w3.org/2000/svg"
   xmlns="http://www.w3.org/2000/svg"
   xmlns:sodipodi="http://sodipodi.sourceforge.net/DTD/sodipodi-0.dtd"
   xmlns:inkscape="http://www.inkscape.org/namespaces/inkscape"
   version="1.0"
   width="31.03941"
   height="31.02247"
   id="svg2"
   sodipodi:version="0.32"
   inkscape:version="0.91 r13725"
   sodipodi:docname="food.svg"
   inkscape:output_extension="org.inkscape.output.svg.inkscape">
  <metadata
     id="metadata7">
    <rdf:RDF>
      <cc:Work
         rdf:about="">
        <dc:format>image/svg+xml</dc:format>
        <dc:type
           rdf:resource="http://purl.org/dc/dcmitype/StillImage" />
        <dc:title />
      </cc:Work>
    </rdf:RDF>
  </metadata>
  <defs
     id="defs5" />
  <sodipodi:namedview
     inkscape:window-height="988"
     inkscape:window-width="1680"
     inkscape:pageshadow="2"
     inkscape:pageopacity="0.0"
     guidetolerance="10.0"
     gridtolerance="10.0"
     objecttolerance="10.0"
     borderopacity="1.0"
     bordercolor="#666666"
     pagecolor="#ffffff"
     id="base"
     inkscape:zoom="10.427586"
     inkscape:cx="-11.35261"
     inkscape:cy="-1.544062"
     inkscape:window-x="-8"
     inkscape:window-y="-8"
     inkscape:current-layer="layer2"
     showgrid="false"
     fit-margin-top="0"
     fit-margin-left="0"
     fit-margin-right="0"
     fit-margin-bottom="0"
     inkscape:window-maximized="1" />
  <g
     inkscape:groupmode="layer"
     id="layer2"
     inkscape:label="Layer 2"
     transform="translate(2.8130255,4.500761)">
    <path
       style="fill:#ca422a;fill-opacity:1;stroke:none;stroke-width:9.28897953;stroke-linejoin:round;stroke-miterlimit:4;stroke-dasharray:none;stroke-opacity:1"
       d="M 12.706506,-4.5017285 A 15.519705,15.511235 0 0 0 -2.8130255,11.00999 15.519705,15.511235 0 0 0 12.706506,26.521709 15.519705,15.511235 0 0 0 28.226036,11.00999 15.519705,15.511235 0 0 0 12.706506,-4.5017285 Z m 9.880859,4.49999997 0.910156,0.265625 -1.527344,5.22851563 1.46875,0 -1.939453,15.1542969 -6.490234,0 -1.908204,-15.1542969 7.929688,0 1.556641,-5.49414063 z M 3.6713495,12.099833 l 5.375,0 c 2.2319095,0.117131 3.2698315,0.861602 3.1132815,2.232422 l -11.63085959,0 c -0.13684,-1.37082 0.91064809,-2.115292 3.14257809,-2.232422 z m -2.67187499,3.291016 10.66210849,0 c 0.274271,1e-5 0.507405,0.09727 0.703125,0.292969 0.195651,0.19571 0.294912,0.421221 0.294923,0.675781 -1.1e-5,0.29401 -0.09923,0.53291 -0.294923,0.71875 -0.19572,0.18587 -0.428854,0.279297 -0.703125,0.279297 l -10.66210849,0 c -0.27369,0 -0.5090781,-0.09345 -0.7050781,-0.279297 -0.196,-0.18584 -0.29493190244,-0.42474 -0.29492190244,-0.71875 -1e-5,-0.25456 0.0989119024,-0.480071 0.29492190244,-0.675781 0.196,-0.19566 0.4313881,-0.292959 0.7050781,-0.292969 z m -0.4707031,3.054688 11.63085959,0 c 0.15655,1.37023 -0.881372,2.103172 -3.1132815,2.201172 l -5.375,0 c -2.23193,-0.098 -3.27941809,-0.830942 -3.14257809,-2.201172 z"
       id="path4145"
       inkscape:connector-curvature="0" />
    <path
       style="fill:#ffffff;fill-opacity:1;stroke:none;stroke-width:10.42800045;stroke-linejoin:round;stroke-miterlimit:4;stroke-dasharray:none;stroke-opacity:1"
       d="m 17.83469,24.85142 c -0.02558,-0.118676 -0.436588,-3.344494 -0.913345,-7.168486 -0.476758,-3.823991 -0.89199,-7.114542 -0.922738,-7.312335 l -0.05591,-0.359623 3.970705,0 3.970704,0 0.750101,-2.6612099 c 0.412556,-1.4636657 0.765443,-2.6890512 0.784194,-2.7230789 0.05,-0.090738 0.802399,0.1174552 0.802399,0.2220292 0,0.048884 -0.323661,1.1922452 -0.719247,2.5408015 -0.395585,1.3485564 -0.719246,2.4900667 -0.719246,2.5366897 0,0.046623 0.325617,0.084768 0.723592,0.084768 l 0.723592,0 -0.05446,0.311674 c -0.06221,0.356085 -1.872225,14.527666 -1.872225,14.658692 0,0.04883 -1.384704,0.08585 -3.210805,0.08585 l -3.210805,0 -0.04651,-0.215774 z"
       id="path4142"
       inkscape:connector-curvature="0"
       transform="translate(-2.8130255,-4.500761)" />
    <path
       style="fill:#ffffff;fill-opacity:1;stroke:none;stroke-width:10.42800045;stroke-linejoin:round;stroke-miterlimit:4;stroke-dasharray:none;stroke-opacity:1"
       d="m 3.396729,18.493317 c 0,-0.883475 0.7303329,-1.48419 2.1019172,-1.728872 0.8849343,-0.157867 6.2545178,-0.18556 7.2003318,-0.03713 0.766607,0.120302 1.742867,0.580683 1.971587,0.929753 0.09374,0.143064 0.19025,0.46634 0.214469,0.718391 l 0.04403,0.458274 -5.7661694,0 -5.7661696,0 0,-0.340411 z"
       id="path4144"
       inkscape:connector-curvature="0"
       transform="translate(-2.8130255,-4.500761)" />
    <path
       style="fill:#ffffff;fill-opacity:1;stroke:none;stroke-width:10.42800045;stroke-linejoin:round;stroke-miterlimit:4;stroke-dasharray:none;stroke-opacity:1"
       d="M 3.1872631,21.531064 C 2.6350835,21.037692 2.8420438,20.190211 3.5636463,19.989815 3.9551456,19.881091 14.077264,19.843016 14.603618,19.948287 c 0.780395,0.156079 1.07041,1.117872 0.485488,1.610051 l -0.295056,0.248274 -5.6491976,0 -5.649198,0 -0.3083913,-0.275548 z"
       id="path4146"
       inkscape:connector-curvature="0"
       transform="translate(-2.8130255,-4.500761)" />
    <path
       style="fill:#ffffff;fill-opacity:1;stroke:none;stroke-width:10.42800045;stroke-linejoin:round;stroke-miterlimit:4;stroke-dasharray:none;stroke-opacity:1"
       d="M 5.0149036,24.892882 C 3.980717,24.618767 3.396729,24.043118 3.396729,23.297816 l 0,-0.340411 5.7661696,0 5.7661694,0 -0.04659,0.484921 c -0.05866,0.610463 -0.454161,1.05176 -1.219565,1.360773 -0.516153,0.208385 -0.646399,0.215597 -4.2724629,0.236576 -3.3068643,0.01913 -3.8136855,0.0021 -4.3755425,-0.146793 z"
       id="path4148"
       inkscape:connector-curvature="0"
       transform="translate(-2.8130255,-4.500761)" />
  </g>
  <g
     inkscape:groupmode="layer"
     id="layer1"
     inkscape:label="Layer 1"
     transform="translate(2.8130255,4.500761)" />
</svg>
