<?xml version="1.0" encoding="UTF-8" standalone="no"?>
<!-- Created with Inkscape (http://www.inkscape.org/) -->

<svg
   xmlns:dc="http://purl.org/dc/elements/1.1/"
   xmlns:cc="http://creativecommons.org/ns#"
   xmlns:rdf="http://www.w3.org/1999/02/22-rdf-syntax-ns#"
   xmlns:svg="http://www.w3.org/2000/svg"
   xmlns="http://www.w3.org/2000/svg"
   xmlns:sodipodi="http://sodipodi.sourceforge.net/DTD/sodipodi-0.dtd"
   xmlns:inkscape="http://www.inkscape.org/namespaces/inkscape"
   width="135.46666mm"
   height="136.22292mm"
   viewBox="0 0 479.99997 482.67962"
   id="svg2"
   version="1.1"
   inkscape:version="0.91 r13725"
   sodipodi:docname="logo.svg">
  <defs
     id="defs4" />
  <sodipodi:namedview
     id="base"
     pagecolor="#ffffff"
     bordercolor="#666666"
     borderopacity="1.0"
     inkscape:pageopacity="0.0"
     inkscape:pageshadow="2"
     inkscape:zoom="1.4"
     inkscape:cx="576.71026"
     inkscape:cy="165.01902"
     inkscape:document-units="px"
     inkscape:current-layer="layer1"
     showgrid="false"
     fit-margin-top="0"
     fit-margin-left="0"
     fit-margin-right="0"
     fit-margin-bottom="0"
     inkscape:window-width="1680"
     inkscape:window-height="988"
     inkscape:window-x="-8"
     inkscape:window-y="-8"
     inkscape:window-maximized="1" />
  <metadata
     id="metadata7">
    <rdf:RDF>
      <cc:Work
         rdf:about="">
        <dc:format>image/svg+xml</dc:format>
        <dc:type
           rdf:resource="http://purl.org/dc/dcmitype/StillImage" />
        <dc:title></dc:title>
      </cc:Work>
    </rdf:RDF>
  </metadata>
  <g
     inkscape:groupmode="layer"
     id="layer2"
     inkscape:label="Layer 2"
     transform="translate(-48.32608,-200.933)">
    <g
       id="g4176"
       transform="matrix(20,0,0,20,508.95588,136.28387)">
      <path
         style="fill:#eeeade;fill-opacity:1"
         d="m -11.03149,3.2324558 a 12,12 0 0 0 -12,12.0000002 12,12 0 0 0 12,12 12,12 0 0 0 11.99999998,-12 A 12,12 0 0 0 -11.03149,3.2324558 Z m 0,8.0000002 a 3.9999999,4 0 0 1 4,4 3.9999999,4 0 0 1 -4,4 3.9999999,4 0 0 1 -4,-4 3.9999999,4 0 0 1 4,-4 z"
         id="path3055"
         inkscape:connector-curvature="0" />
    </g>
  </g>
  <g
     inkscape:label="Layer 1"
     inkscape:groupmode="layer"
     id="layer1"
     transform="translate(-48.32608,-200.933)">
    <path
       style="fill:#008cba;fill-opacity:1"
       d="m 240.56744,682.70278 c -2.87006,-0.72909 -11.87006,-4.48853 -20,-8.3543 -8.12995,-3.86577 -19.67059,-9.20548 -25.64587,-11.86601 -5.97528,-2.66053 -11.08176,-5.40444 -11.34774,-6.09758 -0.26598,-0.69314 1.7917,-4.3885 4.57262,-8.21192 7.31082,-10.05148 21.02874,-33.33127 24.85252,-42.17561 6.85924,-15.86532 10.22489,-37.56776 8.03031,-51.78122 -1.01972,-6.60434 -1.60185,-7.87798 -5.66764,-12.40012 -2.84746,-3.16706 -6.76904,-6.09847 -10.55356,-7.88887 -5.23706,-2.47758 -7.20114,-2.8492 -15.06226,-2.84988 -14.1746,-10e-4 -23.96625,-3.2723 -35.31013,-11.79593 -2.93101,-2.20231 -6.42685,-5.61969 -7.76854,-7.59416 -5.14714,-7.57471 -11.56151,-21.8673 -13.82198,-30.79839 -3.03133,-11.97669 -4.96498,-24.81238 -3.8952,-25.85657 0.45966,-0.44867 5.04623,1.60051 10.19238,4.55375 11.51538,6.60836 27.03709,13.47381 38.2175,16.90408 6.62645,2.03307 10.28414,3.96379 17.12734,9.04071 15.11149,11.2111 18.67985,12.36381 32.42979,10.476 9.06889,-1.24511 9.36833,-1.3686 9.35584,-3.85828 -0.0192,-3.82968 -3.7223,-14.93644 -6.69047,-20.06687 -4.63991,-8.02002 -8.34067,-11.93917 -17.15012,-18.16223 -12.07665,-8.53101 -24.43938,-18.60924 -39.83013,-32.46992 -14.76601,-13.29805 -20.50582,-17.1315 -33.1162,-22.11732 -11.302,-4.46852 -23.79679,-12.77358 -27.97891,-18.59707 -3.87064,-5.38977 -9.03257,-17.29135 -10.35231,-23.86875 -0.51979,-2.59059 -0.81545,-8.89059 -0.65702,-14 0.2288,-7.37889 0.59063,-9.28984 1.75901,-9.28984 1.01174,0 2.20389,2.80969 3.81871,9 2.44442,9.37063 7.60096,19.96263 12.09369,24.84158 3.93266,4.27072 9.81725,6.89562 15.77233,7.03544 7.85604,0.18447 8.29035,-0.77171 4.93514,-10.86521 -3.47019,-10.43942 -4.18007,-18.42438 -2.67241,-30.06019 2.49177,-19.23094 5.05865,-20.30365 6.71811,-2.80751 0.62509,6.59048 1.72251,14.60111 2.4387,17.80141 1.28178,5.72759 4.37992,11.558 6.51297,12.25678 0.5985,0.19607 3.2985,-4.69648 6,-10.87234 7.78616,-17.79985 17.75486,-27.19636 37.46465,-35.31423 4.64594,-1.91352 9.23466,-3.48737 10.19716,-3.49743 3.25153,-0.034 1.84234,3.76535 -2.84183,7.66193 -15.70623,13.06542 -22.18156,19.84816 -29.0171,30.39465 -6.09977,9.41129 -8.96701,16.4818 -9.73888,24.01576 -0.85495,8.34475 0.33692,9.62619 10.33325,11.10986 11.87571,1.76261 27.58932,-1.78572 39.2792,-8.86974 3.23619,-1.96112 11.13125,-8.97976 18,-16.00185 12.64113,-12.92331 15.81385,-15.32891 20.21709,-15.32891 7.14112,0 2.74877,8.80255 -11.47668,23 -11.4743,11.45172 -22.36621,18.7085 -33.35759,22.22461 -16.23314,5.19293 -18.73504,6.6791 -21.24161,12.61778 -2.29476,5.43684 -0.65137,9.66833 6.3365,16.31553 7.33611,6.97847 22.46177,17.15305 28.59599,19.23568 6.60302,2.24178 10.45289,2.01307 16.45418,-0.9775 6.18023,-3.07974 12.58341,-9.96625 15.88142,-17.08024 2.36697,-5.10569 4.30307,-16.99839 4.31848,-26.52684 0.0137,-8.49524 3.23867,-7.48964 6.17846,1.92658 5.07232,16.24676 -0.6752,38.90177 -13.40208,52.827 -2.62283,2.8698 -4.76879,5.68704 -4.76879,6.26054 0,1.34426 19.09643,19.94915 22.76804,22.18199 2.98164,1.81324 16.07908,3.24052 31.23196,3.40347 8.21901,0.0884 8.82,-0.0671 18.1803,-4.70302 8.68094,-4.29946 9.74615,-5.12535 10.31816,-8 0.35082,-1.76307 1.78197,-7.19908 3.18034,-12.08002 3.08859,-10.78055 2.76106,-13.61997 -2.59453,-22.49291 -6.52739,-10.81433 -7.3957,-14.07335 -7.49552,-28.13265 -0.0827,-11.64961 0.10972,-12.97622 2.82857,-19.5 3.10846,-7.45863 11.90356,-22.96225 13.63252,-24.0308 0.57077,-0.35276 1.69306,-0.0975 2.49396,0.56715 1.86125,1.5447 1.82331,7.68707 -0.0955,15.46365 -0.81424,3.3 -1.76338,11.21725 -2.10919,17.5939 -0.54687,10.08421 -0.35487,12.49316 1.47451,18.5 1.15679,3.79835 3.58446,9.11157 5.39482,11.80714 1.81036,2.69557 3.96656,5.95726 4.79156,7.24821 0.825,1.29095 1.98384,2.34798 2.5752,2.34896 0.59136,9.9e-4 3.52999,-2.36071 6.5303,-5.24821 3.00031,-2.8875 10.49243,-9.88407 16.64916,-15.54793 13.29744,-12.23292 13.40478,-12.48913 13.46492,-32.13958 0.0412,-13.44638 0.009,-13.63954 -3.70793,-22.56249 -5.66533,-13.59885 -9.58487,-27.97842 -9.81277,-36 -0.19491,-6.8601 -0.14672,-7.00605 2.4109,-7.30289 3.53925,-0.41077 9.97942,6.84303 15.76538,17.75713 4.86489,9.17667 12.50656,30.95966 14.32712,40.84019 0.6502,3.52873 1.7828,6.64635 2.51689,6.92805 3.25208,1.24794 22.35702,-16.39327 24.37485,-22.50738 1.49475,-4.52911 0.67391,-22.70894 -1.68029,-37.2151 -2.32404,-14.32035 -2.32508,-15.5 -0.0136,-15.5 4.50765,0 14.44477,25.62635 14.56421,37.55887 0.0757,7.56769 5.39692,9.02777 10.93791,3.00126 3.43235,-3.73307 18.60589,-32.32483 20.1984,-38.06013 1.53286,-5.52049 2.59426,-7 5.02178,-7 1.63908,0 1.87445,0.79385 1.85311,6.25 -0.0329,8.39982 -1.37859,13.71941 -5.60724,22.16487 -11.86081,23.68845 -18.563,31.28802 -48.84682,55.38708 -31.69787,25.2243 -59.80638,54.10951 -70.74326,72.69805 -13.84098,23.5244 -13.03338,21.84026 -11.13779,23.22635 2.34366,1.71372 4.5058,0.90014 13.22038,-4.97467 10.29934,-6.94314 14.43534,-8.54141 25.21731,-9.74471 15.10285,-1.68553 20.24194,-3.89441 35.49368,-15.25586 12.24685,-9.12304 29.39181,-20.75111 30.59638,-20.75111 2.01313,0 1.94765,3.41948 -0.17782,9.28608 -3.00885,8.30486 -9.40029,20.95161 -14.00614,27.71392 -5.73769,8.42409 -22.09401,26.97792 -28.10906,31.88557 -8.96411,7.31379 -21.08231,11.70246 -36.18183,13.10345 -4.29367,0.39838 -8.27182,1.18947 -8.84033,1.75798 -0.71154,0.71154 0.0757,3.34005 2.52615,8.4348 5.27412,10.96535 6.24659,16.26145 4.81017,26.19623 -0.65412,4.52417 -1.17383,12.25241 -1.1549,17.17387 0.0287,7.45027 0.51627,10.16952 2.91304,16.24491 3.84436,9.7448 9.9632,19.06642 18.64568,28.40536 9.29635,9.99924 12.62634,15.68549 12.69415,21.67638 0.10298,9.09788 -6.20652,16.94878 -17.78729,22.1327 -10.50072,4.70047 -18.96558,5.56489 -37,3.77841 -8.25,-0.81724 -15.48382,-1.31129 -16.07516,-1.09788 -0.59133,0.21341 -3.22211,3.93948 -5.84616,8.28016 -2.62406,4.34068 -5.63498,8.67403 -6.69095,9.62966 -2.14047,1.9371 -4.2951,2.29649 -34.88773,5.81919 -28.67704,3.30212 -41.13495,3.87792 -47.71829,2.20551 z"
       id="path4149"
       inkscape:connector-curvature="0" />
  </g>
</svg>
