<svg xmlns:dc="http://purl.org/dc/elements/1.1/" xmlns:cc="http://creativecommons.org/ns#" xmlns:rdf="http://www.w3.org/1999/02/22-rdf-syntax-ns#" xmlns:svg="http://www.w3.org/2000/svg" xmlns="http://www.w3.org/2000/svg" xmlns:sodipodi="http://sodipodi.sourceforge.net/DTD/sodipodi-0.dtd" xmlns:inkscape="http://www.inkscape.org/namespaces/inkscape" version="1.1" inkscape:version="0.91 r13725" width="103.1" height="102.3" viewBox="0 0 103.10579 102.30597"><style>.style0{fill:	#958b80;}.style1{fill:	#78716c;}</style><metadata><rdf:RDF><cc:Work rdf:about=""><dc:format>image/svg+xml</dc:format><dc:type rdf:resource="http://purl.org/dc/dcmitype/StillImage"/><dc:title/></cc:Work></rdf:RDF></metadata><defs/><g transform="matrix(0.1,0,0,0.1,0,0.00596678)"><path d="M 0 511.5 0 0 515.5 0 1031 0 l 0 511.5 0 511.5 -515.5 0 L 0 1023 0 511.5 Z" inkscape:connector-curvature="0" class="style0"/><path d="m 0.1 1014.2 c 0.1 -4.8 0.3 -7.5 0.6 -6 0.2 1.6 1 2.8 1.9 2.8 1.7 0 1.4 -2.5 -1.3 -11.5 -1 -3.5 -1.4 -8.5 -1.2 -17 L 0.5 970.5 l 4.4 8.9 c 4.6 9.3 7.4 20.4 8.7 34.1 0.7 6.9 1.7 9.7 3.2 8.2 0.8 -0.8 -2.4 -22.5 -4.3 -30.1 C 10.9 986 3 968.8 0.9 966.5 0.4 966 0 961.1 0 955.5 L 0 945.5 5.5 955 c 7.3 12.6 14.8 28 17.5 36 1.2 3.6 3.2 11.8 4.5 18.3 1.3 6.5 2.6 12.1 2.9 12.4 1.7 1.7 1.7 -1.7 0.2 -10.5 -3.4 -19.3 -9.7 -34.8 -24.2 -59.9 L 0 940.3 0 872.9 0 805.5 2.8 804.2 c 4.1 -1.9 6.7 -4.1 5.9 -4.9 -0.4 -0.4 -2.5 0.3 -4.7 1.5 L 0 803.1 0 792.6 0 782.2 5.5 780 c 13.7 -5.6 17.7 -10.1 23.5 -26.9 4.8 -13.8 7 -17.6 16.8 -28.7 16.9 -19.3 20.8 -24.9 24.2 -35.1 2.7 -8 2.8 -19.1 0.2 -24.8 C 67.8 659.3 61.3 653.7 55.8 652 44 648.5 31.7 649.1 12.5 654 6.1 655.6 0.7 657 0.4 657 0.2 657 0 649.6 0 640.6 l 0 -16.4 7.7 -4.8 c 4.3 -2.7 13.4 -9.1 20.2 -14.3 18.9 -14.3 27.8 -17.4 42.5 -15.3 10.2 1.5 15.7 3.8 33.5 13.8 21 11.7 28.6 14.5 41.8 15.1 12.6 0.6 21.3 -0.7 39.2 -5.9 34.8 -10.2 55.9 -23.5 71 -44.9 2.9 -4.1 10.4 -16.1 16.6 -26.6 16.2 -27.3 22.8 -35.5 46.7 -58.6 21.7 -20.9 28.1 -28.8 31.7 -39.4 1.1 -3.2 4 -15.8 6.4 -28 5.2 -26.3 7.5 -34.3 12.5 -44.3 5.3 -10.4 9.8 -15.3 17.8 -19.2 6.4 -3.1 7.2 -3.3 17.7 -3.2 8.7 0.1 12.4 0.6 17.4 2.3 25.1 8.8 48.8 26.8 56.4 42.9 2.4 5.2 3.2 8.3 3.5 14.7 0.5 10.1 -1.9 16.4 -8.4 22.5 -8 7.4 -14.3 9 -41.9 11 -23.3 1.6 -34.9 4.7 -44.7 12 -15.4 11.4 -18 27.6 -10.2 64.5 5.2 24.7 6.4 33.7 6.4 46 -0 13.5 -1.9 22.6 -6.5 32.5 -4.9 10.4 -8.8 15.2 -26.6 33.1 -8.8 8.8 -17.5 18.6 -20.2 22.7 -11.6 17.5 -16.3 42.4 -12.1 63.1 3.5 17.2 11.3 31.8 25.8 48.7 27 31.5 34.5 41.8 43.4 59.8 6.8 13.8 11 26.7 12.9 40.1 1.5 10.3 1.5 12 0.1 20.8 -2.7 16.5 -9.7 28.1 -20.3 33.5 -9.4 4.9 -23.7 3.2 -39 -4.4 C 316.2 901.6 295.5 879 287.4 855 c -2 -5.9 -2.3 -16.1 -1.3 -53 0.4 -15.3 0.2 -18.2 -1.5 -23.3 -2.5 -7.5 -8.9 -14.7 -16.4 -18.4 C 263.4 757.9 261.2 757.5 254.5 757.5 c -6.9 0 -8.6 0.4 -12.7 2.8 C 233.7 765 230 774.3 230 789.5 c 0 10.3 2.8 39.7 4.6 47.4 3.6 15.9 17.5 37.8 50 78.6 16.5 20.8 25.8 33.5 28.3 39 5.6 11.9 5.1 25.7 -1.5 39.5 -4 8.4 -8.1 13.8 -16.9 22.3 -4.9 4.7 -5.6 5.8 -3.9 5.8 1.4 0 4.9 -2.9 10.1 -8.4 12.6 -13.3 18.4 -26.8 18.4 -42.5 -0 -15.1 -3.3 -20.5 -41.1 -68.1 -22.2 -28 -37.9 -53.3 -40.8 -66.1 -2.1 -9 -4.3 -37.4 -3.9 -49.9 0.3 -10.2 0.8 -13.2 2.5 -16.5 3.9 -7.6 9.3 -10.5 19.2 -10.5 5.9 0 7.9 0.5 13.3 3.3 7.1 3.7 12.1 9.4 14.1 16 1.3 4.4 1.5 18.9 0.7 50.7 -0.4 16.3 -0.3 18 1.9 25 4.4 14 11 24.7 23 37.3 9.9 10.4 21.5 19 32.6 24.4 26.8 12.9 46.6 8.8 57.2 -12 10.6 -20.8 7.8 -50.8 -7.7 -81.8 -8.8 -17.6 -18.1 -30.8 -35.4 -50.3 -12.9 -14.5 -20.1 -24.3 -25.2 -34 -10.8 -21 -12.7 -43 -5.4 -65.5 4.7 -14.7 9.2 -21 30 -42.4 23 -23.7 28.5 -32.4 31.7 -50.5 2.7 -15.1 1.6 -28.3 -4.8 -57.6 -3.8 -17.4 -4.2 -20.3 -4.2 -34 -0.1 -14.5 0 -15.2 2.7 -20.7 3.4 -6.9 9 -12.1 17.1 -15.9 9.6 -4.5 16.7 -5.9 38.1 -7.5 28 -2.1 38.2 -5.6 45.5 -15.6 10.1 -14 7.1 -33.5 -7.7 -49.9 -10.7 -11.8 -30.4 -24.4 -46.8 -29.9 -31.1 -10.4 -51.9 0.6 -62.8 33 -1.4 4.2 -4.8 18.6 -7.5 32 -2.7 13.4 -5.8 26.7 -6.9 29.5 -4.3 11.3 -9.2 16.9 -41.3 47.9 -15.4 14.9 -20.3 21.4 -37.6 50.2 -6.8 11.3 -14.6 23.6 -17.4 27.4 -15.3 20.6 -38 33.7 -75.8 43.6 -11.8 3.1 -15.3 3.6 -25.6 3.7 -11 0.1 -12.7 -0.2 -20.7 -3 -4.8 -1.7 -14.8 -6.5 -22.2 -10.8 C 85.5 590.1 76.9 587 63.8 587 50.5 587 44.1 589.8 26.8 602.8 16.3 610.8 10.4 614.9 3.8 618.9 L 0 621.2 0 613.8 0.1 606.5 4.6 603.1 C 7 601.3 13.9 595.2 19.8 589.7 38.6 572.1 44.4 569.5 63.5 569.6 c 11.5 0 13.9 0.4 21 2.8 4.4 1.5 14.1 6 21.5 10 7.4 4 15.8 8.2 18.5 9.3 28.1 11.7 59.5 10.5 88.3 -3.2 10.8 -5.2 22.1 -12.7 28.1 -18.8 6.4 -6.5 16.8 -22.4 29.6 -45.3 14.4 -25.9 13.6 -24.5 26.5 -44.4 13.2 -20.4 20.4 -33.3 26.5 -47.3 4.5 -10.3 6.2 -15.3 17 -50.2 10.4 -33.5 22.4 -49.9 40 -55 9.4 -2.7 26.2 -1.7 38.5 2.5 18.5 6.2 56.7 27.6 72.2 40.5 11.2 9.3 14.6 19.3 13.4 40 -1 18.1 -4.8 28.7 -13 36.2 -8 7.4 -14.9 9.9 -37.2 13.8 -8.2 1.4 -18.4 3.5 -22.5 4.6 -19.4 5.3 -30.7 16.3 -35.5 34.7 -2.1 8.1 -2.2 16.3 -0.6 42.7 2.8 46.2 -2.4 61.5 -32.5 94.5 -11.8 12.9 -17.9 22 -21.3 31.3 -2.2 6.1 -2.6 8.8 -2.6 17.7 0.1 16.7 3.4 24.9 23.9 58.5 18.7 30.7 29.2 51.8 41.1 83.3 14.7 38.7 16.6 46 20.5 77.8 1.1 9.3 3 21.5 4.1 27 3 14.4 2.3 29.3 -2.6 53.5 -4 20.1 -5.7 36 -3.7 36 0.6 0 1.2 -0.3 1.2 -0.8 0.1 -5.6 2.7 -22.6 5.5 -37.3 5 -25.6 5.4 -34.9 2.1 -52 -1.4 -7.4 -3.5 -21.4 -4.7 -31 -3.1 -26.3 -7 -40.6 -20 -74 -2.9 -7.4 -6.3 -16.6 -7.7 -20.3 -3.7 -10.3 -22.6 -46 -34.8 -65.7 -18.7 -30.1 -23 -41.5 -22.2 -58 0.8 -15.8 5.3 -24.5 23.5 -44.7 19.2 -21.4 24.9 -30.5 29.9 -47 3.4 -11.4 4.2 -30.7 2.4 -59 -1.1 -17.8 -1.1 -21.2 0.2 -28.1 3 -15.2 10.6 -26 22.5 -32 8 -4 13.7 -5.6 34 -9.1 19.5 -3.4 28.8 -6.5 35.8 -11.8 10 -7.6 14.6 -18 16.6 -37.2 2.1 -19.8 -1.3 -33.1 -10.7 -42.3 -9.5 -9.3 -34.5 -25 -57.6 -36.2 -34.1 -16.5 -59.2 -16.6 -76.3 -0.4 -11.1 10.5 -18 24.9 -28.4 59.4 -11.2 37.3 -17.5 50.5 -41.1 87 -5.3 8.2 -15.9 26 -23.5 39.5 -21.4 38.2 -28.3 47.4 -43.1 57 -35.8 23.4 -77.3 25.4 -112.9 5.6 C 85.8 568.1 68.7 563.6 51.2 567.4 40.3 569.7 33.5 573.9 17.7 588.2 9.9 595.3 2.7 601.6 1.8 602.1 0.1 603 0 602.4 0 594.5 l 0 -8.6 9.4 -11.3 C 14.5 568.4 20.5 562 22.7 560.2 32.7 552.3 44.1 549 61.5 549.1 c 20.4 0 30.2 2.9 50.3 14.7 15.9 9.4 22.3 12.5 32 15.6 15.8 5 33 5.6 51.3 2 21.4 -4.3 39 -17 52.6 -37.8 8.9 -13.7 13 -22.7 26.6 -59 9.2 -24.4 15.5 -38.1 25.8 -56 9.4 -16.4 13.3 -24.9 22 -48 17.8 -47.5 28.4 -65.6 42.7 -72.6 4.4 -2.2 6.1 -2.4 18.3 -2.3 21.6 0.1 42.6 5.6 69.7 18.3 8.1 3.8 17 7.6 19.7 8.5 6.5 2.2 15.1 2 20.1 -0.2 14.9 -6.8 24.7 -34.1 18.6 -51.7 C 507 269 500.5 262.7 480 250.5 473.7 246.7 460.9 238.5 451.5 232.1 425.6 214.5 421.8 212.2 414 209.5 399 204.4 384.6 204.3 362 209.1 c -28.8 6.1 -34.2 7 -47.5 7.6 -8.9 0.4 -22.4 -0 -37 -1 -12.7 -0.9 -33.4 -2.1 -46 -2.6 -31.9 -1.4 -43.4 -4.1 -51.1 -11.7 -6.2 -6.2 -6.9 -9 -6.9 -27.2 -0 -23.3 2.3 -63.4 4.1 -70.5 2.9 -11.8 8.6 -17.5 28.5 -29 16 -9.2 19.7 -12.3 35 -28.6 17.7 -18.9 19 -20.1 36.2 -34 L 292 0 301.3 0.1 310.5 0.1 300.5 9.3 C 295 14.3 279.7 29.2 266.5 42.5 251.8 57.2 236.8 71 227.9 78.2 212.1 90.9 201 101.9 196.9 109 c -6.6 11.3 -11.5 35.1 -10.6 52 1.5 28.4 11.7 37 50.2 42.5 24.6 3.5 44 4.9 59.5 4.2 17.6 -0.8 26 -2.3 52 -9 31 -8 37.1 -9 52 -8.4 18.4 0.8 24.9 3.4 47.5 19.4 19 13.5 25.7 17.3 43.5 24.8 18.5 7.8 27.4 13 34.5 20 9.3 9.3 14.4 23.9 13.1 37 -0.3 3.3 -2.4 12.2 -4.6 19.8 -5.9 20.6 -6.9 31.5 -3.2 38.3 2 3.8 8.1 8.3 13.4 9.8 6.5 1.9 24.4 2 31.5 0.1 9.3 -2.5 15.4 -6.7 29 -19.9 15.3 -14.9 16.5 -15.5 36.4 -18.7 29.7 -4.7 36 -6.8 43.7 -14.2 3.4 -3.3 4.5 -5.3 5.4 -9.7 2.4 -11.3 -1.3 -42.2 -7 -58.8 -3.8 -11.1 -8.2 -18.2 -16.6 -26.7 -8 -8.2 -16.7 -13.7 -32.2 -20.4 L 623.5 186.5 608 186.5 c -14.6 0 -16.2 0.2 -27 3.4 -10.4 3 -12.4 3.3 -21.2 2.9 -8.5 -0.4 -10.6 -0.9 -17.3 -4.1 -13.4 -6.3 -20.3 -15.3 -35.7 -46 C 497.5 124.1 476.9 86.1 466.5 68.5 462 60.8 456.8 51.7 455.1 48.2 448.4 34.9 443.3 14.6 444.2 4.5 l 0.3 -4 9.5 -0.3 9.5 -0.3 0.1 11.3 c 0.1 10 0.5 12.4 3.4 20.8 5.8 16.8 13.5 32.7 39.8 82 17.9 33.5 24.3 42.6 35.3 49.9 11.2 7.5 16 8.4 43 8.7 18.5 0.2 24.6 0.6 28.2 1.8 2.6 0.9 10.2 2.9 16.9 4.5 26.5 6.3 42.4 14.7 57.3 30.2 7.7 8 14.3 17.5 27.8 39.9 18 29.9 35.5 51.4 46.2 56.6 6.8 3.3 13.1 4.1 44.4 5.5 27.7 1.2 41.2 0.5 61.7 -3.4 20 -3.8 26.4 -4.6 38 -4.6 29.8 0 40 8.3 52.3 42.9 2.1 5.8 6.5 17.4 9.8 25.6 7.8 19.5 9.5 26.1 8.9 35.1 -0.9 13.9 -7.1 21.3 -36.2 42.9 -10.5 7.8 -25.2 19.5 -32.6 26 -17.5 15.3 -25.9 21.6 -34.6 26 -14.2 7.1 -24 7.9 -53.1 4.5 -27.5 -3.2 -39.4 -2 -46.6 4.9 -5.8 5.5 -8 12.6 -9.6 30.3 -3.1 34.1 -2.9 62.6 0.4 71.9 4.6 12.8 17.6 18.3 43 18.4 24.4 0.1 37.2 -3.9 56.5 -17.6 22.4 -15.8 30.1 -18.6 48.3 -17.5 9.8 0.6 20.6 2.8 40.4 8.1 5.1 1.4 13 3 17.5 3.6 19.8 2.7 40.7 -3.5 54.2 -16.2 l 6.5 -6.1 0 8.9 0 8.9 -4.8 3.1 c -22.4 14.6 -44.6 16.8 -81.8 7.9 -13.1 -3.1 -29.6 -4.3 -37.6 -2.6 -8.1 1.7 -16.5 6.1 -23.9 12.5 -3.6 3.1 -9.9 8.5 -14 12.1 -13.1 11.3 -19.1 13.3 -53 17.5 -21.4 2.7 -41.9 6.4 -49.8 9.1 -8.4 2.9 -14.1 7.3 -17.2 13.4 -2.3 4.5 -2.5 6.1 -2.4 17 0 6.6 0.9 18.1 2 25.5 2.4 17.2 2.5 39.2 0.3 47.3 -0.9 3.2 -2.8 7.7 -4.2 10.1 -2.2 3.8 -3.6 4.8 -10.3 7.6 -16.9 7 -23.5 15.1 -34.8 43 -9.6 23.8 -11.6 27.2 -21 36.6 -12.3 12.4 -27.1 20.2 -45.5 24 -10.6 2.2 -48.3 2.6 -56.8 0.6 -8.9 -2.1 -16.2 -6.3 -23.3 -13.2 -12.8 -12.6 -18.3 -29.2 -23.3 -69.9 -1.1 -9 -1.8 -11.8 -3.5 -13.5 -3 -3 -7 -1.4 -9.6 3.8 -1.8 3.6 -2 6.8 -2.6 31 -0.5 23.2 -0.9 27.9 -2.6 33.2 C 507.2 872.2 501.7 876.5 490 876.4 471.5 876.4 456.6 865.4 445.6 844 c -5.6 -10.9 -8.9 -19.4 -23.1 -59.5 -14.1 -39.9 -24.1 -65.6 -30.7 -79.1 -10.2 -20.8 -8.9 -28.9 9.7 -61.9 17.1 -30.3 17.8 -32.6 25.9 -82.7 1.9 -11.9 4.6 -25 6 -29 6.4 -19.1 19.8 -28.7 38.4 -27.6 18.5 1.1 26.5 8.9 47.1 45.8 12 21.4 19.6 32.4 28.5 41.3 12 11.9 24.3 17.9 40.4 19.8 4.7 0.6 13.7 2.6 20 4.5 l 11.5 3.5 31.5 -0.6 c 32.7 -0.6 46.1 -1.9 57.7 -5.5 21.3 -6.6 31.7 -23.6 29.8 -48.6 C 737.5 550.1 728.9 519.7 722 506 c -6.5 -13 -16.6 -23.3 -27.1 -27.9 -9.5 -4.2 -32.1 -7.5 -59.9 -8.6 -20 -0.8 -26.7 0.5 -30 5.9 -2.5 4.1 -2.5 7 0.1 12.4 3.5 7.3 8.7 8.7 20 5.6 5.3 -1.5 7.2 -1.5 14.3 -0.5 23.4 3.4 35.3 10 44.5 24.7 4.9 7.7 17.4 34.4 19.6 41.7 3 10.1 1.6 19.1 -4.2 25.8 -4.2 4.9 -15.3 10.5 -24.8 12.4 -10.3 2.1 -45.1 4.9 -52 4.1 -3.3 -0.3 -15.2 -2.9 -26.5 -5.7 -23.4 -5.8 -27.4 -7.6 -38.6 -18.2 -19.9 -18.7 -31.6 -46.9 -34 -81.5 -1.2 -17 -0.1 -17.6 32.5 -17.1 20.9 0.3 21.7 0.3 26.3 -2 6.1 -3 14.1 -10.2 15.8 -14.2 0.8 -1.8 2.7 -3.8 4.9 -4.9 8.9 -4.5 10 -4.6 48.1 -4.6 32.2 -0 37.2 -0.2 42.5 -1.8 16.4 -4.9 24.1 -11 27.1 -21.3 3.3 -11.2 -0 -40.9 -5.9 -53.8 -4.8 -10.5 -14 -17.1 -31 -22 -15.5 -4.5 -39.6 -5.6 -50.8 -2.4 -2 0.6 -6.1 3.1 -9 5.5 -6.8 5.7 -11.6 8.1 -25.9 13.1 -6.4 2.2 -14.4 5.2 -17.7 6.6 -3.4 1.4 -7.4 2.6 -9 2.6 -1.6 0 -6.4 0.9 -10.8 2 -19.7 5 -28.6 13.7 -32.8 32 -1.6 7 -5.1 33.3 -6.2 46.5 -1.2 15 -2.6 15.7 -29.3 16.7 -11.3 0.4 -24.4 1.4 -29.1 2.3 -22.9 4.2 -37.6 12.9 -44.5 26.5 -5.3 10.5 -6.9 21 -8 51.9 -0.7 19.9 -2.3 30.9 -6.6 43.6 -4 12.1 -7.8 18.5 -21.7 37.2 -6.5 8.7 -13 17.9 -14.4 20.4 -7.6 13 -9.2 28.2 -4.4 42.4 2.9 8.5 6.2 14.5 16.3 29.3 10.7 15.8 14.2 23.8 22.7 52.5 2.6 8.7 10.3 29.8 17.2 47 20.7 51.9 24.6 58.3 42.1 69.7 22.6 14.7 26.5 18.6 27.9 27.6 1.5 10 -1.6 16.5 -16.4 34 -17 20.2 -25.2 34.1 -29.2 49.4 -2.3 9 -2.4 11.1 -0.5 11.1 0.9 0 1.5 -1 1.5 -2.6 0 -4.1 2.9 -14.2 6.1 -21.2 4.2 -9.3 12.1 -20.7 25 -36.2 13.2 -15.8 16.2 -21.5 16.2 -30.5 0 -11.9 -5.6 -19 -24.5 -30.5 -21.6 -13.3 -24.2 -17.4 -47.1 -75.2 C 413.8 808.6 406.5 788.6 404.5 781.5 c -8.1 -28.3 -10.4 -33.4 -24.8 -55.4 -14.9 -22.8 -18.2 -32.6 -16 -47.7 1.5 -10.4 5.8 -18.4 19.8 -37.1 12.8 -17 17 -23.9 20.8 -33.3 6.3 -15.7 7.9 -26.6 9.7 -63.5 0.7 -14.9 1.5 -22.9 2.8 -27.6 5.5 -19.7 18.4 -29.3 46.4 -35 2.9 -0.6 14.9 -1.4 26.8 -1.8 18.9 -0.7 22 -1 25.5 -2.8 6.9 -3.6 7.2 -4.2 9 -21.8 2 -20.1 5 -39.5 7 -46.2 4.5 -15 16.5 -23.4 37.4 -26.3 4.1 -0.6 9.5 -2 12 -3.1 2.5 -1.1 10.7 -4.2 18.2 -6.9 16.3 -5.8 17.7 -6.5 25.6 -12.9 8.2 -6.6 13 -7.6 32.3 -6.9 28.6 1.1 47.6 9.1 54.6 22.9 3.2 6.3 6.1 18.7 7.4 32 2.7 26.5 -4.5 36.3 -30.5 41.8 -6.4 1.4 -28.6 1.7 -55.5 1 -15.2 -0.4 -17.1 -0.3 -23.7 1.8 -8.5 2.7 -11.6 5 -14.3 10.1 -2.1 4 -9.4 10 -15.4 12.5 -3 1.2 -7.9 1.5 -26.4 1.2 -21.8 -0.3 -22.9 -0.2 -26.8 1.9 -6.2 3.3 -6.9 5.9 -5.5 20.6 2.8 28.8 10.8 51.2 24.8 69.5 9.1 12 22.8 22.8 31.6 25.1 C 612.8 602.9 618.3 604 629 604 c 14.6 0 39.9 -2.5 49.2 -4.9 14.1 -3.6 22.2 -9.1 26.5 -17.8 3.6 -7.3 3.7 -16.7 0.3 -25.7 -4.1 -11 -16.9 -36.6 -21.3 -42.8 -7.9 -11 -17.9 -17.1 -34.2 -20.7 -11.1 -2.4 -19.9 -2.6 -28.6 -0.3 -6.2 1.6 -6.8 1.6 -9.2 -0 -6.2 -4 -7.4 -13.3 -2.3 -17.1 2.7 -2 4 -2.1 22.5 -2 30.7 0.1 53.9 3.5 65.3 9.6 11.8 6.3 21.8 20.3 28.8 40.3 10.9 30.9 12.9 54.8 5.8 69 -2.7 5.5 -6.2 9.4 -11.5 13.2 -11 7.9 -23.5 10 -65.7 11.3 -28.9 0.9 -31.5 0.8 -39 -1 -4.4 -1 -10 -2.6 -12.5 -3.5 -2.5 -0.9 -8.4 -2.1 -13.3 -2.6 -28.9 -3.3 -45.2 -17.9 -69.8 -62.4 -14.4 -26.1 -22.6 -36.2 -33.4 -41.5 -14.6 -7.1 -33.3 -3.9 -44.9 7.7 -8.8 8.8 -12.4 19.7 -17.6 53.3 -6.6 42.7 -7.7 46.1 -24.1 75.1 -14.2 25.1 -16.4 30.9 -16.4 43 l -0 9.5 5.7 12 c 6.7 14.1 18.2 43.6 29.8 76.5 21.6 61.5 26.2 71.3 39.7 84.1 9 8.6 19.2 12.9 30.6 12.9 15.2 0 21.3 -5.9 26.3 -25.5 0.4 -1.6 0.8 -14 0.9 -27.5 0.1 -25.7 0.7 -29.4 5 -33 1.6 -1.3 1.9 -1.3 3.1 0.4 0.7 1 1.6 4.4 1.9 7.5 1.3 12 5.7 38.3 7.6 45.3 6.3 22.8 20.1 38.6 38.4 43.8 13.3 3.8 50 3.2 66 -1 10.5 -2.8 20 -6.9 28.3 -12.2 16.5 -10.7 23.8 -20.5 33.2 -44.3 12.3 -31.1 18.8 -39.7 35.1 -45.9 8.6 -3.3 12.2 -7.2 15 -16.2 4.4 -14 4.5 -25.1 0.5 -56.7 -1.7 -13.9 -1.9 -27.5 -0.4 -32.8 2.1 -7.4 8.7 -12.8 19.8 -16.1 7.6 -2.3 31 -6.3 50.4 -8.6 32.6 -4 37.7 -6 56.8 -23.1 14.1 -12.6 22.4 -17.3 33.5 -19 8.9 -1.4 16.3 -0.6 35.5 3.6 8.5 1.9 19.9 3.9 25.3 4.4 18.6 1.9 37.2 -1.8 51.9 -10.5 l 7.2 -4.3 0.3 6.5 c 0.2 3.6 -0.1 6.9 -0.6 7.4 -1.9 1.9 -18.3 7.8 -26.2 9.5 -11.1 2.3 -34.7 2.4 -48 0.1 -32.7 -5.7 -45.6 -3.8 -58.5 8.4 -9.5 9 -15.9 21 -24.5 45.4 -6.7 19.1 -12 28.5 -15.3 27.2 -0.8 -0.3 -4 -4.2 -7.1 -8.6 C 839.8 687.8 832 683 817.9 683 c -14.6 0 -26.4 6.6 -30.8 17.2 -1.2 2.9 -5.8 12.5 -10.3 21.4 -7.5 15 -8.1 16.6 -8.6 23.6 -0.7 10.7 1.9 16 13.1 26.9 17.1 16.7 30.2 33.9 38.4 50.3 7.4 14.8 11.2 27.4 19.6 64.5 5 22.2 7.5 29.3 11.9 35.2 8.5 11.1 23.3 10.7 38.7 -1.2 19.5 -15 24 -18.2 32.9 -22.8 17.8 -9.3 37.7 -14.3 57.6 -14.4 12.5 -0.1 17.9 1.4 22.5 6.1 3.5 3.5 5.1 6.9 12 24.7 1.7 4.4 6 13.3 9.5 19.7 l 6.4 11.7 -0.1 9.3 c -0 7.6 -0.3 9 -1.2 7.4 -5.2 -8.2 -16.8 -23.6 -23.1 -30.9 -25.1 -28.6 -47.1 -35.7 -72.1 -23.3 -9.1 4.5 -14.8 9.5 -24.8 21.9 -13.3 16.4 -20.9 22.9 -37.8 32.2 -17.9 9.9 -26.4 19.5 -33.9 38.4 -6.3 15.8 -7.9 21 -6.6 21 0.7 0 3 -4.4 5.1 -10.2 10.1 -27 17.5 -36.7 35 -45.9 16.2 -8.5 26.4 -17 38.5 -31.8 14.4 -17.7 23.3 -24.3 37.8 -27.7 18 -4.2 32.8 2.1 52.3 22.3 10 10.4 14.5 15.9 23.4 29.3 l 7.5 11.2 -0 26.9 -0 26.9 -515.4 0 L 0 1023 l 0.1 -8.8 z m 4.6 7.1 c -0.3 -0.3 -1.2 -0.4 -1.9 -0.1 -0.8 0.3 -0.6 0.6 0.6 0.6 1.1 0 1.6 -0.2 1.3 -0.5 z M 49.7 1020.8 c -0.3 -0.7 -1.3 -3.6 -2.3 -6.5 C 45.7 1009.4 44 1007.4 44 1010.2 c 0 3.2 3.5 11.8 4.8 11.8 0.8 0 1.2 -0.6 0.9 -1.2 z m 52.1 -1 c 0.5 -2.4 -1.5 -2.2 -2.9 0.4 -1 1.8 -0.9 2 0.7 1.7 1 -0.2 2 -1.1 2.2 -2.1 z m 22.6 -4.5 c 3.8 -9.4 9.7 -17.7 22.3 -31.9 16.1 -18.2 20.1 -25.7 22.4 -42.8 1.9 -14.3 -0.4 -33.3 -5.7 -47.4 -8.2 -21.8 -27.3 -37.4 -54.6 -44.6 C 92.9 844.3 86.7 843.7 56.7 843.6 32.3 843.5 27.8 843.3 26.9 842 c -2.2 -3.3 -0.4 -14.2 4.1 -24.1 2.4 -5.2 5.5 -12.7 6.9 -16.6 2.2 -6 4.4 -9.2 13.4 -19.7 5.9 -6.9 12.9 -15.8 15.6 -19.8 13.2 -20.2 32 -32.8 49 -32.8 10.4 0 17 4.1 43.6 27.5 25.8 22.7 27.4 25 31 45.1 3.7 20.8 7.5 30.4 16.3 41.1 2.6 3.2 7.7 9.9 11.2 14.8 3.5 5 14.2 16.9 23.6 26.6 24.6 25.3 45.4 53.3 52 70.4 3.7 9.5 3.9 23.1 0.5 31.7 -5.1 12.7 -15.3 22.9 -31.2 31.3 -7.2 3.7 -8 4.5 -5.5 4.5 5.2 0 17.3 -7.5 26.1 -16.4 15.8 -15.8 19.6 -32.3 12.2 -52.4 -5.8 -15.7 -27 -44.5 -50.3 -68.3 -14.5 -14.8 -19.6 -20.9 -39.3 -47.3 -6.5 -8.8 -10.8 -20.9 -13.7 -38.9 -2.7 -17 -6.4 -22.4 -28.2 -41.4 -21.5 -18.7 -28.4 -24.1 -35.3 -27.5 -5.4 -2.7 -7.5 -3.2 -13.5 -3.1 C 97.8 726.7 79.2 738.9 65.5 759.5 62.5 763.9 54.9 773.5 48.6 780.9 42.2 788.3 37 795.1 37 796.1 c 0 1 -2.7 7.9 -6 15.3 -6.8 15.3 -8.4 21.3 -7.5 27.4 1.1 7.5 2.2 7.8 29 7.4 36.9 -0.5 54.9 2.3 74 11.7 26.4 13 38.8 33.5 40.2 66.6 1.1 25.9 -3.2 36.9 -22.9 58.3 -12.5 13.7 -21.1 27 -23.3 36.4 -1.2 5.2 1.2 2.7 4 -4 z m 19.5 3.9 c 1.7 -4.2 8.4 -13.5 18 -25.3 9.6 -11.8 14.9 -22.1 17.7 -34.3 2.3 -10.3 2.3 -34.6 -0 -49.5 C 172.7 866 159 850.8 110.5 833 102.8 830.1 90.5 824.9 83.2 821.4 72.7 816.2 68.7 813.6 63.5 808.7 57.4 802.8 57 802.2 57 797.9 c 0 -5 2.1 -7.9 7.3 -9.8 9.5 -3.6 20.1 1 33.1 14.4 11 11.3 15 13.4 42.1 22 28.2 9 36.1 13.9 42.4 26.3 4.3 8.6 5.9 18.7 7.1 46.2 0.6 13.5 1.7 33 2.5 43.5 2.5 33.2 1.6 46 -4 56.3 -1.4 2.6 -6.2 9 -10.5 14.2 -4.4 5.2 -8 9.8 -8 10.2 -0.1 2.4 3.3 -0.4 9.2 -7.6 18.2 -22.1 19.1 -26.3 15.9 -74.8 C 192.9 921.1 191.5 897.7 191 887 c -0.5 -11.1 -1.6 -22.1 -2.5 -25.5 -3.7 -14.5 -11.3 -24.3 -23.3 -30.4 -3.3 -1.7 -12.5 -5 -20.4 -7.5 C 114.5 814.2 109.4 811.6 98.2 799.9 82.7 783.8 68.7 780 57.8 789 54.8 791.5 54.5 792.3 54.5 797.2 c 0 4.4 0.5 6.1 2.9 9.2 6.8 8.9 22.3 17.5 51.6 28.6 49 18.6 61.2 32.2 68.1 75.5 1.7 10.8 1.7 41.3 -0 49 -2.7 12.2 -8.6 22.7 -20.5 37 -11.2 13.4 -18.5 25.5 -15.2 25.5 0.8 0 1.9 -1.3 2.6 -2.9 z M 320.2 1015.8 C 333.2 1001 338.5 988.7 338.5 973.5 c 0 -17.7 -4.9 -26.2 -30.3 -52.7 -22.3 -23.2 -33.6 -37.8 -41.5 -53.4 -4.8 -9.5 -7.3 -17.6 -9.7 -31.4 -1.1 -6.3 -3.1 -15.9 -4.5 -21.4 -4.2 -16.5 -3 -23.5 4.3 -25.7 5.1 -1.5 7.8 -0.1 9.1 4.8 0.5 2.1 1.4 14.8 1.9 28.2 1 26.8 1.9 31.5 8.6 45.1 8.6 17.6 25.6 36.6 54.2 60.6 24.3 20.4 29.6 28.1 29.5 42.8 -0.1 14 -7.2 29.3 -21.4 45.8 -6.3 7.3 -3.8 7.8 2.8 0.5 9.7 -10.7 14.8 -19.8 19 -33 2.3 -7.2 2.7 -10.1 2.3 -16 -0.9 -13.8 -6.8 -22.1 -28.8 -40.5 -27.4 -22.9 -40 -36 -50.4 -52.5 -10.6 -17 -13.6 -29.8 -13.6 -59.4 -0 -24.4 -2.3 -30.1 -11.5 -29 -5.6 0.6 -9.1 3.6 -10.6 9.1 -1.3 4.7 -0.7 9.8 2.6 22.1 1.3 5 3.1 13.5 4 19 5.1 30.6 16.8 50.1 52.5 87 16.9 17.5 21.7 23.5 25.4 31.7 8.7 19.1 3.2 40.2 -15.4 60.2 -4.9 5.2 -5.8 6.7 -4.2 6.7 1.2 0 4.2 -2.5 7.5 -6.2 z m 147.2 2.6 c 1.9 -10.3 9.5 -22 24.3 -37.6 5.8 -6.2 15.6 -16.8 21.7 -23.6 12.6 -14.1 21.6 -22 29.6 -25.9 4.9 -2.4 6.6 -2.7 16 -2.7 16.2 0.1 30.4 4.9 46.5 15.7 13.3 8.9 20.6 17.2 27.2 30.8 20.4 41.7 23.2 46.9 25.7 46.9 0.9 0 -0.3 -2.9 -3.7 -8.8 -2.8 -4.8 -8.5 -16 -12.7 -24.8 -4.2 -8.8 -9 -18.5 -10.7 -21.6 -11.3 -19.9 -41 -38.4 -65.5 -40.8 -18.6 -1.8 -26.8 1.7 -43.8 18.8 -15.4 15.4 -37.3 38.9 -43.2 46.3 -6.1 7.7 -10.1 14.7 -12.7 22.4 -2.5 7.3 -2.5 8.3 -0.7 8.3 0.8 0 1.7 -1.5 2.1 -3.6 z m 26.6 1.1 c 0.5 -1.4 1 -2.8 1 -3 0 -0.8 -3 -0.5 -3 0.3 -0 0.4 -0.3 1.8 -0.6 3 -0.8 3.2 1.4 2.9 2.7 -0.3 z m 31.9 -1.2 c 5.6 -15.6 22.9 -28.9 39 -30 8.3 -0.6 15.4 1 24.2 5.3 11.1 5.6 26.9 19.2 30.2 26.2 1 2.2 3.7 3.2 3.7 1.3 0 -2.1 -9.3 -13 -15.4 -18.1 -17.8 -14.8 -34 -20.3 -48.5 -16.5 -17.4 4.5 -31.6 17.5 -36.5 33.3 -1.2 4 1.9 2.6 3.4 -1.5 z m 43.6 0.2 c 8.8 -5.3 18.3 -4.7 23.8 1.4 1 1.2 2.8 2.1 3.9 2.1 1.9 0 1.8 -0.3 -0.8 -3 -1.6 -1.7 -4.9 -4 -7.3 -5.1 -7.5 -3.6 -17.4 -1.4 -26.3 6 -4.1 3.4 0.1 2.6 6.6 -1.4 z m 102.8 -2.2 C 667.8 1006 666 999.8 666 994 c 0 -20.8 18 -33.6 59.5 -42.4 17.2 -3.6 32 -5 46 -4.3 15.6 0.8 24.2 2.7 34 7.6 9.8 4.9 16 10.6 17.7 16.3 2.1 7.2 1.4 24.7 -1.5 38.2 -2.5 11.5 -2.6 14 -0.7 12 1.9 -2 6 -26.1 6 -35.6 -0 -13.9 -1.8 -19.3 -8 -25.1 -5.8 -5.3 -16.4 -10.8 -25.7 -13.2 -23.1 -5.9 -57.7 -3 -90.8 7.5 -25.8 8.2 -37.7 19.4 -39.1 36.8 -0.5 5.8 -0.1 7.8 2.5 14.7 4.8 12.7 6.1 15.5 7.7 15.5 1.1 0 0.9 -1.3 -1.1 -5.8 z m 15.2 4 C 684.4 1012.6 682 1003.9 682 1000.4 c 0 -11.6 9.9 -24.3 24 -30.7 19.8 -9.1 49.7 -13.1 68.2 -9.2 14.9 3.1 27.3 12 32.6 23.3 2.5 5.4 2.7 6.6 2.5 17.8 -0.1 6.6 -0.5 14 -0.8 16.4 -0.5 3.4 -0.3 4.3 0.7 3.9 1.8 -0.6 2.7 -6.2 2.9 -19.8 0.3 -15.4 -1.6 -20.7 -11 -30.1 -11.4 -11.4 -23 -15.4 -44.6 -15.4 -15.1 0 -26.8 2 -42.3 7.1 -20.8 6.9 -32.3 18.3 -34.7 34.5 -0.5 3.6 -0 6.4 2.5 14.2 2.1 6.4 3.7 9.7 4.7 9.7 1 0 1.3 -0.6 0.8 -1.8 z m 14.5 1 c -0 -0.4 -0.7 -2.5 -1.5 -4.8 -5.2 -14.3 2.7 -30.3 18.8 -37.9 20.9 -10 51.6 -8.3 65.1 3.6 2.7 2.4 5.8 6.5 7.8 10.6 3.1 6.3 3.3 7.2 3.3 17.9 0 7.7 0.4 11.3 1.1 11.3 2.7 0 3.1 -12.2 0.8 -22 C 792.7 979.8 777 969.7 750 969.7 c -24.6 -0 -42.5 8.5 -50.1 23.8 -2.7 5.4 -3.1 7.5 -3.1 13.7 0 7.4 2.1 14.8 4.2 14.8 0.6 0 1 -0.3 1 -0.8 z m 16.6 -1.5 c -2.7 -9.1 -1.3 -16.5 4.5 -23.1 5.2 -5.9 12.2 -8.8 22.5 -9.4 14.6 -0.8 26.1 4.5 31.8 14.8 2.7 4.7 3.1 6.5 3.1 12.7 0 5.1 0.4 7.2 1.2 7.2 0.9 0 1.2 -2.1 1.2 -7.2 -0 -9 -2.8 -15.5 -9.2 -21.4 C 767 987.2 759.6 984.6 748 984.6 c -11.1 0 -18.1 2.2 -24.7 7.8 -7.1 6 -10.8 19.2 -7.5 26.8 1.4 3.3 3.8 3.8 2.8 0.5 z m 127.9 -0.7 c 1.8 -3.4 1.9 -5 0.5 -5 -0.5 0 -1.9 1.8 -3 4 -1.7 3.3 -1.8 4 -0.5 4 0.8 0 2.2 -1.3 3 -3 z m 20.8 -3.4 c 7.8 -7.9 16.2 -12.1 34.7 -17.1 20.1 -5.5 26.1 -8.7 38.9 -20.9 20.2 -19.3 31.5 -21.2 50.7 -8.7 15.7 10.2 24.1 25.4 26.9 48.4 0.3 2.6 1.1 4.8 1.7 4.8 1.6 0 0.2 -13.3 -2.3 -21.5 -3.3 -10.8 -7.8 -18.3 -15.4 -26 C 992.8 964.8 979.1 958 969.1 958 c -7.2 0 -16.9 5.7 -28.5 16.7 -12.1 11.5 -20.5 16.3 -35.2 20.3 -14 3.8 -23.9 7.2 -29.1 10.1 -7.3 4.1 -19.8 16.9 -16.4 16.9 0.6 0 3.9 -2.9 7.3 -6.4 z m 50.1 4.3 c 18.3 -1.7 20.4 -2.7 39.6 -17.5 C 965.4 996.1 973.7 992 978.6 992 c 6.4 0 14.8 6.1 18.7 13.5 1.1 2.2 2.3 6.8 2.5 10.2 0.4 4.7 0.9 6.3 2 6.3 1.2 0 1.4 -1.1 0.9 -6.1 C 1001.1 1001 991.1 990 979.2 990 c -8.8 0 -14.4 2.9 -30 15.2 -12 9.5 -14.7 10.4 -37.6 12.7 -5.5 0.5 -11.8 1.7 -14 2.5 l -4 1.5 6.5 -0.5 c 3.6 -0.3 11.4 -1 17.4 -1.5 z m -280.3 -2.8 c -1.7 -3 -8.8 -9.4 -9.5 -8.4 -0.8 1.3 8.3 11.4 9.5 10.6 0.5 -0.3 0.5 -1.2 -0 -2.3 z m -527.7 -13.6 c 1.6 -3 2.7 -6 2.4 -6.7 -0.5 -1.5 -4.3 3.6 -6.3 8.6 -2.5 5.9 0.6 4.4 3.9 -1.9 z M 502.8 1001.8 C 506.1 996.6 506.7 995 505 995 504 995 497 1004.8 497 1006.2 c 0 2.2 2.9 0 5.8 -4.4 z m 355.3 -0.1 c 3.7 -4.1 4.9 -6.8 3 -6.8 -1 0 -9.1 9.1 -9.1 10.2 -0 1.9 2.5 0.4 6.1 -3.5 z M 622 1000.4 C 622 999.2 614.8 990 613.9 990 c -1.8 0 -0.9 2.4 2.7 6.6 C 619.8 1000.6 622 1002.1 622 1000.4 Z M 43 999.6 C 43 997.6 38.7 986 38 986 c -1.3 0 -1.2 1.2 0.8 8 1 3.3 2.3 6 3 6 0.7 0 1.2 -0.2 1.2 -0.4 z M 263.3 988.7 c 2.1 -1.2 5.1 -4.1 6.7 -6.4 9.5 -14.3 5 -34.2 -14 -62.7 -8.2 -12.3 -15.2 -19.6 -23.2 -24.4 -7 -4.2 -12.2 -5 -17.1 -2.7 -4.9 2.3 -7.5 6.9 -9.4 16.6 -1.9 9.6 -1 18.7 3.8 37.9 6.4 25.5 17.7 40.5 34.4 45.5 4.6 1.4 12.4 -0.2 18.8 -3.8 z m -20.5 0.8 c -17.2 -6.5 -28 -25.5 -33.6 -59.1 -2 -12 -1.6 -20.1 1.4 -28.2 3.2 -8.6 10.8 -10.7 19.5 -5.5 9.5 5.7 12 8 18.6 17 22.8 30.9 29.2 55.6 17.8 69.2 -4.8 5.7 -17 9.1 -23.7 6.6 z M 87.1 987.9 c 6.6 -3.3 35.7 -23.1 41.3 -28.1 11.8 -10.4 17.6 -22.5 17.6 -36.7 -0 -29 -21.7 -48.2 -54.4 -48.1 C 86.6 875 80.2 875.6 77.5 876.4 57.9 881.7 38.3 895.6 31.7 909 c -1.9 3.8 -2.2 6.2 -2.2 15 0 10.2 0.1 10.8 4.4 20.5 10.9 25 24.1 41.7 36.1 45.6 4 1.3 12.4 0.2 17.1 -2.2 z m -21.8 -2.9 C 56.4 979.9 45.5 964.4 36.4 943.9 32.1 934.2 31.8 933 31.7 924 31.5 912.8 33 909.1 41.3 900.3 55.4 885.3 78.4 875.8 96 877.5 c 27.1 2.7 43.3 15.9 47.2 38.4 2.5 14.8 -2.4 28.3 -14.5 39.7 -7.3 6.9 -33.3 25.1 -42.6 29.8 -7.2 3.6 -14 3.5 -20.8 -0.4 z M 99.4 955 c 8 -2.8 12.7 -5.5 18.4 -10.6 11.4 -10.2 14.7 -23.8 8.7 -35.4 -2 -3.9 -9 -9.9 -14.1 -12.1 -16.7 -7.2 -34.2 -3.5 -47.6 10.1 -7.5 7.5 -10.3 13.9 -10.2 22.5 0.4 21.6 21.4 33.5 44.7 25.5 z m -23.4 -1 c -15.5 -4.7 -23.3 -22.6 -16.1 -36.9 3.1 -6 11.5 -13.8 19 -17.5 6.1 -3 7.3 -3.2 16.6 -3.2 8.1 0 10.9 0.4 14.8 2.2 7.4 3.4 11.5 7.1 14.4 12.9 6.5 13.3 -0.9 28.6 -18.3 37.6 -9.9 5.2 -22.6 7.2 -30.3 4.8 z m 801.2 32.9 c 4 -2 5.8 -3.4 5.1 -4.1 C 881 981.6 870 986.9 870 988.7 c 0 1.8 0.2 1.7 7.2 -1.8 z M 123.8 984.7 C 127.9 980.5 128.8 979 127.1 979 125.9 979 117 987 117 988.1 c 0 2.1 2.8 0.7 6.8 -3.4 z m 394.5 -1.2 c 2.7 -2.4 4.5 -4.9 4.2 -5.5 C 521.7 976.8 512 984.8 512 986.7 c 0 2.1 1.2 1.5 6.3 -3.2 z M 1028 987.5 C 1028 986 1021.8 975 1021 975 c -1.5 0 -1.3 1 1.8 7.2 1.5 3.1 3.3 5.7 4 5.8 0.7 0 1.2 -0.2 1.2 -0.5 z m -421 -5.8 c 0 -1.7 -8.8 -10.3 -9.6 -9.4 -0.7 0.7 7.6 10.6 8.9 10.7 0.4 0 0.8 -0.5 0.8 -1.2 z m 291.3 -3.8 c 5.3 -2.7 6.8 -3.9 6.2 -5 -0.6 -1 -13.4 5.1 -13.4 6.3 0 1.4 3 0.8 7.3 -1.3 z M 32 970.9 C 30.3 967.7 28.5 965 28 965 c -1.5 0 -1.2 1.7 1.1 6.3 2.7 5.4 3.9 6.8 5 6.1 0.5 -0.3 -0.5 -3.2 -2.1 -6.5 z m 109.7 -2.6 c 2.4 -2.5 4 -5.1 3.7 -5.6 C 144.8 961.8 135 970.7 135 972.2 c 0 2 2.7 0.4 6.7 -3.8 z M 537.1 969.8 c 6 -3.3 7.3 -4.8 4.2 -4.7 -2.2 0 -11.2 5.6 -11.2 7 0 1.5 0.6 1.3 7.1 -2.3 z m 478.3 -4.1 c -1.6 -2.6 -7.8 -9.7 -8.5 -9.7 -1.7 0 -0.6 2.5 3.3 7.1 2.3 2.7 4.5 4.6 5 4.3 0.5 -0.3 0.6 -1.1 0.2 -1.8 z M 589 966.1 C 589 965.4 578.2 960 576.6 960 576.3 960 576 960.6 576 961.3 c 0 0.7 2.4 2.2 5.2 3.4 5.9 2.4 7.8 2.8 7.8 1.5 z m 328.9 -3.8 C 922 957.8 922.8 956 921.1 956 920.2 956 912 965.3 912 966.4 c 0 1.7 2.2 0.2 5.9 -4 z M 561.8 961.5 c 2.3 -0.4 4.2 -1.1 4.2 -1.6 0 -1 -7.3 -1.1 -10.9 -0 -3.7 1 -4 3.5 -0.4 2.8 1.6 -0.3 4.8 -0.8 7.1 -1.2 z M 23 954.9 C 23 952.8 16.9 943 15.9 943.5 14.8 944.2 20.6 956 22 956 22.6 956 23 955.5 23 954.9 Z m 131.9 -6.4 c 2.3 -6.2 2.5 -7.8 1 -7.3 -1.3 0.4 -6 11.9 -5.3 13 1 1.5 2.2 -0.2 4.3 -5.7 z m 512.4 -0.4 c 7.2 -1.6 15.6 -3.2 18.7 -3.6 3 -0.4 19.4 -2.9 36.5 -5.5 39.2 -6.1 43.3 -6.7 58.2 -8 19.7 -1.7 26.6 -4.1 32.5 -11 5.8 -6.8 7.2 -13 7.2 -32 -0 -13.9 -0.4 -17.9 -2.3 -25.5 -3.3 -12.9 -10 -26.2 -16.3 -32.6 -7.8 -7.8 -14 -10.3 -27 -10.7 -9.3 -0.3 -11.9 -0 -20 2.2 -13.3 3.7 -24.5 9.5 -31 16 -3 3 -9.9 12.1 -15.3 20.3 -12.4 18.7 -23.3 29.8 -44.5 45.6 -8.6 6.4 -17.7 14 -20.4 16.9 -5.5 6.1 -9.6 14.2 -10.3 20.5 -0.4 3.6 -0.1 4.8 1.8 6.9 4.8 5.2 10.7 5.2 32.3 0.5 z m -28 -0.1 c -3.5 -1.4 -4.6 -4.4 -3.2 -9.2 3.1 -11.4 9.4 -18.5 30.4 -34.3 20.1 -15 32.2 -27.6 45.3 -47.2 11.2 -16.6 15.7 -21.3 25.9 -26.6 12.2 -6.4 22.3 -9 34.8 -9.1 10.5 -0.1 11.3 0 17.7 3.2 15.6 7.7 25 26.3 28 55.2 2 20 -1.8 35.9 -10 41.6 -5.6 3.8 -11.9 5.3 -32.7 7.4 -10.4 1.1 -31.6 4 -47 6.5 -15.4 2.5 -33 5.2 -39.1 6 -6.1 0.8 -17.2 2.9 -24.6 4.6 -13.6 3 -21.4 3.7 -25.5 2 z M 749 919.5 c 11.6 -2.5 28 -8.3 33.3 -11.7 6 -3.9 9.2 -8 11.9 -15.4 2.8 -7.8 3.1 -21.6 0.5 -29.1 -2.4 -7 -9.2 -14.4 -15.8 -17.3 -24.1 -10.4 -51.1 8.4 -71.8 49.9 -4.4 8.8 -5.1 11.1 -4.7 14.3 0.7 5 3.9 8.4 9.6 10.2 5.8 1.9 26.4 1.3 37 -1 z m -29 -0 c -0.8 -0.2 -3.2 -0.6 -5.2 -1 C 709.1 917.6 705 913.7 705 909.1 c 0 -6.6 12.9 -29.5 23.7 -42.2 11.2 -13.2 22.5 -19.9 34.4 -20.6 13.5 -0.8 22.3 3.9 27.6 14.6 2.6 5.2 2.8 6.7 2.8 16.7 -0 9.3 -0.4 11.8 -2.4 16.2 -3.9 8.8 -10.5 13.7 -25.5 18.6 -13.6 4.6 -39.4 8.6 -45.6 7.1 z m 279 29.7 c 0 -1.4 -10.3 -9 -11.4 -8.4 -0.5 0.3 1.3 2.5 4 4.9 4.7 4.1 7.4 5.4 7.4 3.5 z M 936 938.2 c 0.1 -2.5 -2 -1.1 -5.8 4 -2.2 2.9 -3.7 5.6 -3.4 6.1 0.7 1.1 9.2 -8.2 9.2 -10.1 z M 980 935.1 C 980 934.1 969.9 929 968.1 929 c -2.6 0 -0.6 2.1 4.2 4.4 5.7 2.7 7.8 3.2 7.8 1.7 z M 10.9 927.9 C 9.9 924.6 9 919.4 9 916.5 c 0 -5.4 -1.5 -8.1 -2.7 -4.9 -0.9 2.4 1 15 3 19.7 2.5 6 3.7 3.4 1.6 -3.4 z M 159.4 929.8 c 0.8 -2.9 0.8 -9.2 0 -11.2 C 158.1 915.3 157 918.4 157 925.1 c 0 6.8 1.2 9.1 2.4 4.7 z M 952.2 929.7 c 2.8 -0.6 4.8 -1.7 4.8 -2.4 0 -1.6 -5.3 -0.9 -10.8 1.4 -3.7 1.5 -4.6 4 -1 2.8 1.2 -0.4 4.4 -1.2 7 -1.8 z M 157 906.7 c 0 -2.5 -3.1 -10.6 -4.6 -11.7 -2 -1.7 -1.9 0.1 0.7 7.2 2 5.4 3.9 7.6 3.9 4.5 z m 209 -6.2 c 6.6 -2.3 11.6 -7 15 -13.8 8 -16.3 6 -36.7 -6.1 -61.7 -4.2 -8.8 -6.4 -11.8 -12.7 -18.1 -6.4 -6.4 -9.3 -8.5 -18.1 -12.7 -14.2 -6.9 -18.7 -7.9 -24.5 -5.7 -7.6 2.9 -12.8 10.5 -17.8 26.1 -7.3 22.5 -5.7 41.8 4.8 57.1 5 7.3 17.8 19.3 24.9 23.4 11.7 6.7 25.2 8.9 34.6 5.6 z m -19.7 -2.1 c -19.3 -5.2 -38.7 -23.9 -44.4 -42.7 -3 -9.8 -2.3 -26.6 1.6 -38.7 3.6 -11.3 9.1 -21.6 12.9 -24.3 5.3 -3.8 12.2 -3.1 23.6 2.3 17.3 8.2 24.9 15.6 32.8 31.5 2.2 4.4 5.2 11.8 6.8 16.5 2.5 7.5 2.8 10 2.9 21.5 0.1 12.3 -0.1 13.3 -2.9 19.3 -6.1 13.3 -18.4 18.7 -33.3 14.6 z m 8.7 -22.4 c 9.7 -4.9 12.2 -16.3 6.8 -31 -6.3 -17.1 -18.6 -27 -29.8 -24 -13.5 3.6 -20.1 22.9 -12.7 37.5 8.1 15.9 23.8 23.6 35.7 17.5 z M 338 873.9 c -6.1 -2.8 -12.6 -9.2 -16.1 -16.1 C 319.5 853.1 319 850.8 319 845.1 c 0 -17.8 14.1 -27.6 27 -18.6 8.8 6.1 16.7 23.2 15.8 34.1 -0.6 6.6 -2.9 10.1 -8.8 13.1 -5.4 2.8 -9.1 2.8 -15 0.2 z m -323.6 21.5 c 3.6 -5.3 4.2 -7.5 1.7 -5.9 C 14.2 890.6 9 898.2 9 899.7 c 0 2.6 1.6 1.3 5.4 -4.3 z M 145.9 884.2 C 141.3 878.1 136 874.1 136 876.7 c 0 1.4 9.3 10.2 10.2 9.7 0.5 -0.3 0.3 -1.3 -0.4 -2.2 z M 31.5 879.3 C 36.9 875.7 38.2 874 35.8 874 c -1.9 0 -10.8 6.4 -10.8 7.8 -0 1.8 0.4 1.7 6.5 -2.5 z M 51 869 c 3 -1.1 6.1 -2.3 6.9 -2.5 0.9 -0.3 1.1 -0.8 0.4 -1.5 C 57 863.6 45 867.9 45 869.7 c 0 1.6 -0.5 1.7 6 -0.7 z m 77 1 c 0 -1.1 -9.6 -5.9 -11.8 -5.9 -2.8 -0 -0.9 2 4 4.3 5.8 2.8 7.8 3.2 7.8 1.6 z m 503.5 -7.5 c 14.8 -3.1 25 -8.7 30.2 -16.6 3.7 -5.5 4.1 -13 1.4 -22.9 -1.1 -4.1 -3.4 -13.6 -5.1 -21 -4.9 -22.3 -9.8 -29.5 -24.5 -36.6 -9.2 -4.4 -17.8 -6.2 -36 -7.4 -8.2 -0.5 -17.5 -1.3 -20.5 -1.6 -10.5 -1.1 -19.4 3.4 -28.6 14.5 -8 9.7 -8.7 12.8 -6.3 29.5 2.5 17.5 5.3 28.3 9.9 38.1 6.3 13.4 14 21 24.8 24.6 5.2 1.7 7.8 1.9 26.8 1.4 12.5 -0.3 23.8 -1.1 28 -2 z m -54.6 -1.8 c -17.9 -6.7 -27.7 -25.3 -32.4 -61.4 -1.6 -12.5 -1.6 -13.5 -0 -17.7 2.2 -5.9 13.3 -17.8 19.2 -20.6 4.1 -2 5.5 -2.2 14.2 -1.6 5.3 0.4 15.7 1.1 23.2 1.6 21.9 1.4 34.9 6 43.5 15.2 5.7 6.1 6.9 9 10.6 25.3 1.6 7.2 3.8 15.9 4.9 19.4 2.3 7.5 2.6 18.1 0.5 22 -1.9 3.7 -8.5 9.5 -13.6 12.1 -9.5 4.9 -18 6.2 -43 6.6 -18.2 0.3 -24.3 0.1 -27.1 -0.9 z M 599 837.2 c 6.4 -3 19.7 -15.8 22.8 -21.8 6.9 -13.5 1.1 -29.1 -13 -35.5 -4.8 -2.2 -6.7 -2.4 -19.3 -2.4 -14.9 0 -19.9 0.9 -25.6 4.8 -4.8 3.2 -6.4 7 -6.3 14.7 0.2 11 6.9 25.9 16.4 36.2 7.5 8.2 14 9.2 25 4 z m -18.2 -1.5 C 571.1 829.9 560 808.5 560 795.7 560 785.8 565.3 781.8 580.9 779.9 606.3 776.9 622 785.7 622 803.1 c 0 7.7 -3.4 14 -12.4 22.7 -11.8 11.4 -21.1 14.6 -28.9 9.9 z M 81.9 861.4 c 0.2 -0.2 0.1 -0.7 -0.2 -1.2 -0.5 -0.8 -12.4 0.2 -13.4 1.2 -0.2 0.2 -0.2 0.8 0.1 1.3 0.5 0.8 12.4 -0.4 13.5 -1.3 z M 106 862 c 0 -1.1 -1.9 -1.6 -9.2 -2.5 -3.8 -0.5 -4.8 -0.3 -4.8 0.9 0 1.4 1.9 1.8 11.2 2.4 1.5 0.1 2.8 -0.3 2.8 -0.8 z m 374.4 -21.6 c 3 -1.2 1.5 -2.2 -3.7 -2.6 -2.9 -0.2 -5.8 -0.6 -6.4 -0.8 -2.3 -0.9 -1.6 1.6 0.8 2.8 2.6 1.3 6.8 1.6 9.3 0.7 z M 492.4 827.8 c 2.5 -6.9 2.8 -8.5 1.7 -9.2 -0.6 -0.4 -1.3 0.2 -1.6 1.2 -0.3 1 -1.4 3.9 -2.4 6.5 -1.7 4.4 -1.7 5.8 0 5.8 0.4 0 1.4 -1.9 2.3 -4.2 z M 463 829 c 0 -1.9 -7.1 -12.1 -8.1 -11.5 -1 0.6 -0.2 2.6 3.8 8.7 2.4 3.6 4.2 4.8 4.2 2.8 z m -12.4 -22.4 c -1.2 -4.9 -4.6 -11.7 -5.6 -11.1 -0.9 0.6 0.2 4.9 3 10.8 1.6 3.4 3.4 3.6 2.6 0.3 z M 496.9 804.2 c 1.7 -7.2 2.8 -19.3 1.8 -19.9 -1.4 -0.8 -1.5 -0.5 -2.8 9.2 -0.7 5 -1.4 10.5 -1.7 12.2 -0.8 5.1 1.4 3.8 2.7 -1.5 z M 21.5 787.8 c 3.1 -3.4 4.2 -5.4 3.4 -5.7 C 23.7 781.7 15 790.6 15 792.2 c 0 1.9 2.1 0.4 6.5 -4.4 z m 419.4 -7.8 c -1.1 -3 -2.5 -5.9 -3 -6.4 -1.9 -1.9 -2.1 0.5 -0.5 4.6 1 2.4 2.2 5.4 2.7 6.7 0.6 1.5 1.3 2.1 1.9 1.5 0.6 -0.6 0.2 -3 -1.1 -6.4 z M 36.9 769.5 c 4.5 -5.9 4.8 -6.6 2.9 -6.5 -1.4 0 -8.8 9.2 -8.8 10.9 0 2.3 1.9 0.9 5.9 -4.4 z M 510 764.5 C 510 764.2 509.5 764 508.8 764 506.9 764 500 771.2 500 773.3 c 0 1.4 1.3 0.6 5 -3.2 2.8 -2.8 5 -5.2 5 -5.5 z m -75.5 -2.1 c -0 -0.5 -0.4 -3.5 -0.8 -6.7 -0.6 -4.2 -1.2 -5.8 -2.3 -5.8 -1.1 0 -1.4 0.7 -1 2.2 0.3 1.2 0.8 4.4 1.2 7 0.4 2.9 1.1 4.6 1.8 4.4 0.6 -0.2 1.1 -0.8 1.1 -1.3 z m 91.9 -4 C 531.4 756.1 533.6 754 531 754 529 754 519 758.9 519 759.9 c 0 1.6 1.2 1.3 7.4 -1.5 z M 51.2 751 C 55 746.1 55.8 744 54.1 744 c -1.3 0 -9.1 10.3 -8.5 11.2 0.9 1.4 1.8 0.7 5.6 -4.3 z m 426.5 -0.2 c -0.2 -0.7 -1.9 -1.5 -3.6 -1.9 -1.8 -0.4 -4 -1.4 -5 -2.3 C 466.9 744.6 466 744.6 466 746.5 c 0 0.8 1.5 2.4 3.2 3.5 3.6 2.2 9.2 2.7 8.5 0.8 z m 70.6 -2.3 C 553.3 746.3 555.7 744 553.1 744 551.2 744 541 749 541 750 c 0 1.5 1.2 1.3 7.4 -1.5 z m -332.9 0.6 c 0.3 -0.5 0.2 -1.1 -0.2 -1.3 C 213.7 747 201 748.2 201 749.1 c 0 1.2 13.7 1.2 14.5 -0 z m 279.7 -2.2 c 6 -2.2 8.1 -4.6 3.1 -3.6 -4.3 0.9 -10.2 3.6 -10.2 4.7 0 1.4 0.5 1.3 7.1 -1.1 z M 192 745.8 c -0 -1.2 -10.4 -6.9 -12.3 -6.8 -1.7 0.1 1.9 3.2 6.3 5.6 5.3 2.8 6.1 2.9 6 1.2 z m 40.5 -1.5 c 3 -1.5 5.5 -3.3 5.5 -4 C 238 739.6 237.8 739 237.5 739 236 739 225 745.2 225 746 c 0 1.5 1.5 1.2 7.5 -1.7 z M 569.5 740.5 c 7.6 -2.3 7.9 -2.4 6.9 -3.5 C 575.2 735.8 563 739.6 563 741.1 c 0 1.2 0.6 1.1 6.5 -0.6 z M 429.5 738.7 C 426.6 729.3 425.7 727 424.9 727 c -1.6 0 -1.1 2.6 2.6 12.8 0.6 1.6 2.5 0.6 2 -1.1 z m 89.1 0.6 c 4.5 -1.4 6.3 -2.9 4.3 -3.6 -1.1 -0.4 -13 3.7 -13 4.5 0 1.3 2.8 1 8.7 -0.8 z M 624 739.1 C 624 738.3 612.9 734 610.7 734 c -2.5 0 0.5 2.6 4.8 4.1 5.6 2 8.4 2.3 8.4 1 z m 22.7 -2.5 c 1.5 -1.5 -1.2 -1.8 -7.2 -0.6 -6.1 1.1 -7.4 1.8 -6 3.2 0.6 0.6 12.3 -1.7 13.2 -2.6 z M 70.3 725.7 c -0.4 -0.7 -2.5 0.9 -5.5 4.2 -2.6 2.9 -4.5 5.8 -4.2 6.4 0.4 0.6 2.8 -1.3 5.5 -4.2 2.7 -2.9 4.5 -5.8 4.2 -6.4 z m 392.4 9 c -0.3 -0.7 -1 -3.9 -1.7 -7 C 459.9 722.3 458 719.9 458 723.9 458 728.3 460.4 736 461.8 736 c 0.8 0 1.2 -0.6 0.9 -1.3 z m 132.6 0.6 C 601.7 734.5 601.2 733 594.6 733 588.8 733 586 733.7 586 735.1 c 0 1.1 3 1.1 9.4 0.3 z M 252.7 731.4 C 257.8 727.9 259.3 726 256.9 726 255.4 726 246 732.9 246 734.1 c 0 1.6 1.3 1 6.7 -2.7 z m 294 -0.8 c 1.6 -1.6 -1.5 -1.7 -7.3 -0.1 -6.1 1.7 -7.3 2.4 -6 3.8 0.6 0.6 12.2 -2.7 13.2 -3.7 z m 117.7 1.5 c 4.6 -1.6 7.4 -4.2 4.4 -4 -2.8 0.2 -11.2 3.6 -11.6 4.7 -0.5 1.6 1.2 1.4 7.2 -0.7 z M 172 731.8 c -0 -1.5 -7.6 -9.8 -9 -9.8 -1.8 0 -1 1.7 3.1 6.4 4.1 4.7 5.9 5.7 5.9 3.4 z m 392.8 -6.3 c 2.9 -0.9 5.2 -2.1 5.2 -2.6 0 -1.6 -2.6 -1.1 -12.8 2.6 -1.6 0.6 -0.6 2.5 1.1 2 0.7 -0.2 3.6 -1.1 6.5 -2 z m 122.4 -2.2 c 7.8 -3.5 6.2 -5.4 -1.8 -2 -3.2 1.4 -6 3 -6.2 3.6 -0.6 1.7 1.6 1.3 8 -1.6 z M 88 710.3 c 0 -1.7 -1.3 -1 -6.9 3.9 -2.3 2 -4 4.2 -3.6 4.8 C 78.3 720.3 88 712.3 88 710.3 Z m 183.6 5.2 c 2.5 -2.5 4.2 -5 3.9 -5.6 -0.7 -1.1 -10.4 7.7 -10.4 9.3 0 1.8 2.3 0.5 6.6 -3.7 z m 315.4 2.9 c 5.6 -1.6 7 -2.6 5.2 -3.7 -1.2 -0.7 -13.2 3.3 -13.2 4.4 0 1.3 1.1 1.2 8 -0.7 z M 422 717.7 c 0 -0.7 -3.9 -11.7 -4.5 -12.7 -0.3 -0.5 -1 -0.8 -1.5 -0.5 -0.8 0.5 1.9 9.9 3.5 12.5 0.6 0.9 2.5 1.4 2.5 0.6 z m 121.8 -3.2 c 4.2 -0.9 12.9 -3.4 19.2 -5.5 21 -7.3 41.4 -13.8 48.4 -15.4 12.1 -2.8 17.7 -8.2 17.7 -17 0 -6.6 -2.8 -9.8 -12.5 -14.4 C 606.4 657.2 596.6 654.2 572 648.5 529.8 638.7 523.6 635.4 502.8 611.3 494.5 601.6 488.3 597 483.6 597 c -5 0 -8.6 2.8 -11.4 8.8 -2.4 5.1 -2.7 6.8 -2.7 17.2 -0 10.7 0.2 12.2 3.6 21.5 5.4 14.9 18.8 46.2 22.6 52.6 9.4 16.1 25.4 21.9 48.1 17.3 z m -22 -1.5 c -10.5 -1.5 -18.5 -7.4 -24.5 -18 -1.7 -3 -5.6 -11.5 -8.6 -18.9 -3 -7.4 -6.8 -16.5 -8.5 -20.2 -1.7 -3.7 -4.2 -10.5 -5.7 -15 -5.4 -16.9 -2.4 -37.6 5.8 -40.7 4.8 -1.8 7.9 -0.1 16.7 9.2 19.2 20.5 23.3 24.1 31.5 28.4 9.8 5 18.5 7.7 47 14.4 22.9 5.4 32.2 8.3 41.5 12.9 6.7 3.4 8.9 5.7 9.6 10.1 1.1 7.3 -5.2 13.9 -15.4 15.9 -6.3 1.3 -24.8 7.1 -41.7 13.1 -14.5 5.2 -23.2 7.6 -30.2 8.3 -3.2 0.3 -7.1 0.8 -8.8 0.9 -1.6 0.2 -5.6 -0 -8.7 -0.5 z m 185.4 0.2 c 4.7 -3 6.4 -4.8 5.5 -5.8 -0.8 -0.8 -11.6 6 -11.6 7.4 -0 1.9 1.1 1.6 6.2 -1.7 z M 628.8 713.7 c 2.8 -1.8 0.6 -2.2 -11.5 -1.9 -13.3 0.3 -15.7 0.6 -14.9 2 0.6 1 24.7 0.9 26.4 -0.1 z M 158 713.2 c 0 -2.2 -4 -11.7 -5.1 -12.1 -1.5 -0.5 -0.8 3.5 1.5 9.1 1.4 3.3 3.6 5.1 3.6 3 z M 457.7 710.8 c -0.3 -1.2 -0.9 -4.2 -1.2 -6.5 -0.6 -4 -1.9 -6.1 -3.1 -4.9 -0.5 0.5 1.5 11.5 2.3 12.9 1 1.7 2.5 0.6 2 -1.5 z m 190 -4.3 c 3.7 -1.7 5.4 -2.9 4.7 -3.5 C 651.3 701.9 639 706.7 639 708.2 c 0 1.5 2.8 0.9 8.6 -1.7 z M 101.5 699 c 2.7 -2.7 4.6 -5.3 4.2 -5.7 C 104.9 692.6 95 701.8 95 703.2 c 0 1.7 1.8 0.6 6.5 -4.2 z m 184.6 -2.6 c 2.1 -3.6 2.9 -5.9 2.2 -6.6 -0.6 -0.6 -2.3 1.2 -4.6 5.2 -4.1 7 -4.2 7 -2.2 7 0.8 0 2.9 -2.5 4.6 -5.6 z M 725.8 696.1 C 728.9 692 729.9 689 728.2 689 727.3 689 720 699.2 720 700.4 c 0 1.7 2.7 -0.3 5.8 -4.3 z m -58.2 -0.6 c 4.4 -3.1 6 -5.1 4.4 -5.7 -1.1 -0.4 -11 6.8 -11 7.9 -0 2 1.3 1.5 6.6 -2.3 z M 413.4 688.2 c -0.7 -7.5 -0.8 -7.7 -2.4 -6.8 -1.7 1.1 0.2 13.5 2.1 13.5 0.6 0 0.7 -2.6 0.3 -6.8 z m -259 -4 c 0.4 -3.7 0.3 -6.2 -0.3 -6.2 -1.2 0 -1.8 1.7 -2.7 7.4 -0.8 5.2 0.1 9.2 1.5 6.6 0.4 -0.8 1.1 -4.3 1.5 -7.8 z m 297 -1.4 c -1.6 -6.9 -2.2 -8.1 -3.4 -7.4 -0.5 0.3 -0.2 3.3 0.6 6.6 1.6 6.9 2.2 8.1 3.4 7.4 0.5 -0.3 0.2 -3.3 -0.6 -6.6 z m -336.3 -1.2 c 2.2 -5.1 2.8 -7.9 1.7 -8.6 -0.7 -0.4 -5.7 10.3 -5.7 12.2 -0 2.3 2.4 0.2 4 -3.6 z m 567.7 -3.2 c 1.5 -4.3 1.4 -8.5 -0.2 -8.5 -0.6 -0 -1.3 1.9 -1.6 4.3 -0.4 2.4 -1 5.4 -1.4 6.7 -1.3 4.2 1.7 1.9 3.3 -2.4 z M 296.5 676 C 299 671 299.7 668 298.2 668 297.4 668 292 678.4 292 680 c 0 2.5 2.2 0.5 4.5 -4 z m 438.7 -2.3 c 1.1 -5.1 0.7 -8 -0.8 -6.5 -0.9 0.9 -3.2 12.7 -2.6 13.3 1 1 2.2 -1.3 3.4 -6.8 z M 416.4 665.6 C 418.2 659.9 418.4 658 417 658 c -1.1 0 -5.1 12.1 -4.3 13.3 0.8 1.3 1.9 -0.4 3.6 -5.8 z M 163.8 665.1 C 167.8 660.4 169 658 167.2 658 165.6 658 158 667.3 158 669.2 c 0 1.8 1.7 0.5 5.8 -4.2 z m 283.5 -3.6 C 446.8 655.5 445.9 652 444.9 652 c -1.1 0 -1.2 4.8 -0.3 10.3 0.8 5 2.9 4.2 2.6 -0.9 z M 118 660.9 C 118 658.1 114 649 112.8 649 c -1.1 0 -0.7 2.5 1.3 8 0.7 1.9 1.4 4.1 1.6 4.8 0.5 2.1 2.4 1.4 2.4 -0.8 z m 559 -0.3 c 0 -1.7 -11.6 -8 -12.4 -6.8 -0.3 0.5 2 2.5 5.2 4.4 6.5 4 7.2 4.2 7.2 2.3 z m -368.7 -6.3 c 2.3 -3.3 3.4 -6 2.9 -6.5 C 309.9 646.5 303 655.9 303 658.9 c 0 2.2 1.6 0.8 5.3 -4.6 z M 735 655.8 c 0 -2 -4.9 -9.6 -6.6 -10.2 -2.8 -1.1 -2.8 0.2 0.1 3.6 1.5 1.8 3.1 4.3 3.6 5.5 0.9 2.4 2.9 3.2 2.9 1.1 z m -553.7 -8.3 c 6.4 -5.8 4.3 -7.1 -2.3 -1.4 -2.8 2.4 -5 4.6 -5 5.1 -0 1.8 2.8 0.4 7.3 -3.7 z m 473.9 2.9 c 0.2 -1.5 -12.5 -4.7 -13.7 -3.5 -0.5 0.5 -0.8 1 -0.5 1.1 0.2 0 3.1 0.9 6.5 1.9 6.5 1.9 7.6 2 7.8 0.5 z m -231.2 -8 c 2 -6.1 2.1 -9 0.1 -6.9 C 423.3 636.4 420 646.8 420 648.4 c 0 0.3 0.4 0.6 0.9 0.6 0.5 0 1.9 -3 3.1 -6.6 z m 207.7 2.8 c 0.4 -1.2 -12.4 -3 -13.5 -1.9 -1.2 1.2 0.8 2.1 6 2.7 6.1 0.7 6.9 0.6 7.4 -0.8 z M 608 641.5 c -0.1 -0.9 -8.5 -3.4 -11.8 -3.5 -3.3 -0.1 -0.1 2.5 4.4 3.6 5.6 1.4 7.6 1.3 7.4 -0.1 z M 107 641.3 C 107 640.3 97.8 631 96.8 631 c -1.9 0 -0.4 2.5 4 6.5 4.6 4.2 6.2 5.2 6.2 3.7 z M 446 635 c 0 -7.5 -1.3 -9.4 -2.4 -3.2 -1.1 6.6 -0.8 10.2 0.9 10.2 1.2 0 1.5 -1.4 1.5 -7 z m 271.5 6 c 0.8 -1.2 -3.4 -2.9 -9.2 -3.7 -9.1 -1.2 -2.6 2.5 7.9 4.5 0.4 0.1 1 -0.3 1.3 -0.9 z m -393.6 -4.6 c 3.6 -3.3 4.9 -5 4.1 -5.7 -0.8 -0.8 -2.5 0.4 -6.1 3.9 -2.7 2.7 -5 5.3 -5 5.7 0 1.7 2 0.6 6.9 -3.9 z M 585 636.1 c 0 -1 -12.9 -3.5 -13.7 -2.7 -1.1 1.1 0.5 1.9 6.4 3.1 5.8 1.2 7.3 1.1 7.3 -0.4 z M 14.9 634.4 C 18.4 632.9 21 631.1 21 630.3 c 0 -0.8 -0.4 -1.3 -0.8 -1.1 -7.3 3 -12.1 5.6 -12.2 6.6 -0 1.6 -0.1 1.7 6.9 -1.4 z m 184.6 -1 c 5.2 -3.4 6.8 -5.4 4.5 -5.4 -1.8 0 -11 6.5 -11 7.8 -0 1.8 0.4 1.6 6.5 -2.4 z M 694 636.1 c 0 -1 -3.5 -1.9 -9.4 -2.3 -4.9 -0.3 -6.1 1.9 -1.4 2.5 6.4 0.8 10.8 0.7 10.8 -0.2 z M 669.8 633.8 C 669.3 632.2 656 631.4 656 632.9 c 0 0.9 3.5 1.6 10.8 1.9 2.3 0.1 3.2 -0.2 2.9 -1.1 z M 646 632.1 c 0 -1.1 -5 -2.1 -10.1 -2.1 -3.6 0 -4.7 0.8 -3.2 2.3 C 633.7 633.3 646 633.1 646 632.1 Z m -84 -1 c 0 -1.3 -12.9 -6.1 -13.6 -5.1 -0.3 0.5 1.8 2 4.7 3.4 5.4 2.5 8.8 3.2 8.8 1.7 z m 60 -1.1 c 0 -0.5 -1.2 -1.3 -2.8 -1.6 -1.5 -0.3 -4.3 -1 -6.2 -1.5 -4.2 -1.1 -6.6 0.5 -2.9 1.9 C 615.8 631 622 631.6 622 630 Z M 291.9 623.8 C 307.5 618 318.7 612.6 328 606.5 c 8.1 -5.3 20.5 -18 22.6 -23 5.8 -13.9 2.6 -33.5 -7.4 -44.5 -10.4 -11.6 -23.2 -12 -37.5 -1.1 -13.5 10.3 -22.1 27.2 -33.2 65.7 -5.4 18.5 -5.6 21.5 -1.8 24.5 3.2 2.5 3.1 2.6 21.2 -4.2 z m -20.3 1.2 c -2.1 -2.3 -2.3 -1.4 4.3 -24 7.7 -26.4 12.5 -38.1 20.7 -49.6 18 -25.4 41.6 -25.2 51.6 0.4 1.8 4.5 2.2 7.7 2.3 15.6 0 12.7 -1.7 16.8 -11.1 26.2 -7.8 7.8 -14.8 12.7 -27.2 18.8 C 303.2 617 277.2 627 274.7 627 c -0.8 0 -2.2 -0.9 -3.2 -2 z M 42.3 621.3 c 0.4 -0.3 0.5 -0.9 0.2 -1.4 -0.6 -0.9 -9.9 2.3 -12.2 4.2 -4 3.3 5.7 1 12 -2.9 z M 89 625.2 C 89 624 79.7 619 77.6 619 c -3 0 -1.6 1.6 3.6 4.2 5.5 2.8 7.8 3.3 7.8 1.9 z m 341.4 -5.8 c 1.6 -6.4 1.5 -8.8 -0.3 -6.8 -0.9 1 -3.1 9.4 -3.1 11.9 0 3.8 1.9 1 3.4 -5.1 z m -88.4 1.5 C 346.9 616.8 348.1 615 345.9 615 344.6 615 335 623 335 624.2 c 0 1.8 2.3 0.7 7.1 -3.3 z M 599 624 c 0 -1 -5.3 -2.7 -10 -3.2 -4.3 -0.5 -3.3 1.6 1.2 2.8 5.5 1.5 8.8 1.6 8.8 0.4 z M 219.5 620.4 C 224.7 616.9 226.3 615 224 615 c -1.9 0 -12.1 7.1 -11.5 8 0.8 1.4 0.9 1.3 7 -2.7 z M 540 620.1 c 0 -1.4 -10 -9.4 -10.8 -8.6 -0.4 0.4 1.4 2.7 4 5.1 4.5 4.3 6.8 5.4 6.8 3.5 z m 35.5 -0.1 c 0.3 -0.5 -0.7 -1.2 -2.2 -1.6 -3 -0.7 -6.7 -1.8 -9.5 -3 -1.2 -0.5 -1.8 -0.2 -1.8 0.9 0 2.5 12.1 5.8 13.5 3.7 z M 65.8 617.1 C 66 616.4 63.6 616 59.1 616 c -6.4 0 -8.2 0.6 -6.5 2.2 1 1 12.9 -0.1 13.3 -1.2 z m 382.5 -3.6 c 0.3 -2.5 0.9 -5.7 1.3 -7.1 0.5 -2 0.3 -2.5 -0.7 -2.2 -0.8 0.3 -1.9 2.7 -2.5 5.4 -1.6 6.7 -1.6 8.4 0 8.4 0.9 0 1.6 -1.7 2 -4.5 z m 105 -2.3 c 0.7 -1.1 -10.3 -9.6 -11.2 -8.7 -0.7 0.7 8.6 9.5 10 9.5 0.4 0 0.9 -0.4 1.2 -0.8 z M 239.3 606.4 C 243.3 603.2 245.4 600 243.4 600 242.3 600 233 608.2 233 609.1 c 0 1.6 1.6 1 6.3 -2.7 z m 119.6 -2 c 4.2 -4.7 4.7 -5.9 3.3 -6.7 -0.7 -0.5 -9.2 9.5 -9.2 10.8 0 1.6 2.3 0.1 5.9 -4.1 z M 523 603.1 C 523 601.8 516 593 515 593 c -1.7 0 -1 1.6 2.6 6.4 3.3 4.3 5.5 5.8 5.5 3.8 z m -87 -7.7 c 1.1 -6 0.9 -8.7 -0.6 -7.2 -0.5 0.5 -3.3 11.2 -3.4 13 -0 0.4 0.6 0.8 1.4 0.8 0.9 0 1.8 -2.2 2.6 -6.5 z M 536 594.9 C 536 593.6 528 584 526.8 584 c -1.6 0 -0.8 1.8 3.2 6.9 3.9 4.9 5.9 6.3 5.9 4.1 z M 454.5 589.2 c 2.2 -6.7 2.3 -7.2 1 -7.3 -1.1 -0.1 -5.6 11.2 -4.9 12.3 1.1 1.7 2.1 0.4 3.9 -5 z m -198.2 -0.6 c 2.7 -3.2 3.7 -5 3 -5.7 -0.7 -0.7 -2.3 0.7 -5.2 4.4 -2.3 3 -4.2 5.7 -4.2 6.1 0 1.6 2.6 -0.3 6.4 -4.8 z m 112.7 -2.3 c 0.6 -1.5 1.3 -4.6 1.6 -7 0.8 -6 -1.2 -5.6 -2.6 0.4 -0.6 2.6 -1.4 5.8 -1.7 7 -0.9 3.2 1.4 2.9 2.7 -0.4 z M 509 584.1 c 0 -1.5 -7.4 -10.1 -8.8 -10.1 -1.9 -0 -1.6 0.8 2.9 6.1 3.9 4.7 5.8 6 5.8 4.1 z m 121.4 -1.5 c 3.9 -1.6 7.5 -6 11 -13.6 5.1 -11 3.1 -16.6 -11.4 -31.5 -6.3 -6.4 -10.9 -12.3 -13.1 -16.3 -11 -21.1 -44.5 -26.7 -61 -10.2 -10.2 10.2 -10.7 25.9 -1.3 42.8 4.2 7.6 12.5 16.7 19.8 21.7 5.2 3.5 5.9 3.8 14.3 4 4.9 0.1 11.5 1 14.8 1.8 11.5 3 21.7 3.5 26.9 1.3 z M 616.5 581.3 c -1.6 -0.2 -7 -1.3 -12 -2.4 C 599.6 577.9 592.4 577 588.5 577 c -6.3 0 -7.7 -0.4 -11.7 -3 -7.5 -5 -17.2 -16 -21.2 -24.1 -9.5 -19.4 -5.9 -34.4 10.4 -43 3.9 -2 5.9 -2.4 15 -2.4 9.7 0 11 0.2 17 3.1 8.8 4.2 13.5 8.5 17.2 15.8 2.1 4.2 6 9 12.7 15.7 5.3 5.3 10.4 11.2 11.4 13.2 2.5 5.3 2.2 11 -1.2 17.6 -3.6 7.1 -6.8 10.1 -11.8 11.3 -4 0.9 -4.7 0.9 -9.8 0.2 z m -175.6 -8.3 c 1.3 -6.1 1.4 -7.9 0.2 -7.9 -1 0 -4.2 12 -3.5 13.2 1 1.6 2.2 -0.3 3.3 -5.3 z m 79.5 0.2 c -0.9 -1.5 -2.7 -4.1 -3.8 -5.9 C 514.4 563.9 513 563.1 513 565.3 c 0 2.1 7 11.8 8.1 11.2 0.6 -0.4 0.4 -1.6 -0.7 -3.3 z m -250.5 -4.7 c 1.9 -3.1 2.7 -5.4 2.1 -5.9 -1.1 -1.1 -0.8 -1.4 -4.8 5.2 -1.8 2.9 -2.9 5.8 -2.6 6.3 0.8 1.3 1.4 0.6 5.3 -5.6 z M 462 572 c 0 -0.6 1.8 -2.8 4.1 -5.1 4.4 -4.4 4.5 -6.1 0.3 -3.8 C 462.3 565.2 458.1 573 461 573 c 0.6 0 1 -0.5 1 -1 z m 30 -5.3 c 0 -1.2 -6.7 -5.1 -10 -5.8 -3.7 -0.8 -2 1.5 3 4.1 6.4 3.4 7 3.5 7 1.7 z M 372 561.1 c 0 -5.6 -1.1 -10.3 -2.3 -9.9 -1 0.3 -1.1 11.3 -0 13 C 370.8 566.2 372 564.6 372 561.1 Z m 136 -5.4 c 0 -1.8 -7.2 -10.6 -8.8 -10.7 -1.9 -0.1 -1.6 0.7 3 6.5 4.2 5.4 5.8 6.5 5.8 4.2 z m -59.9 -5.5 c 1.3 -3.1 2.6 -6.1 2.8 -6.5 0.2 -0.4 -0.3 -0.8 -1.1 -0.8 -1.5 0 -6.8 10.9 -6 12.2 1 1.7 2.1 0.5 4.4 -5 z M 280.9 548.8 c 3.2 -5.7 3.6 -7.1 2.3 -7.5 C 282.4 541 276 551.4 276 553.1 c 0 2.4 2.3 0.4 4.9 -4.3 z M 368 540 c 0 -2.2 -2.8 -10 -4.1 -11.5 -2 -2.3 -1.9 0.8 0.3 6.9 2.3 6.5 3.9 8.3 3.9 4.6 z m 124 -2 c 0 -1.1 -9.9 -7 -11.8 -7 -2.7 -0 -1 2 4 4.8 5.6 3.2 7.8 3.8 7.8 2.2 z M 466.9 532 c 2.3 0 3.6 -1.6 2.1 -2.5 -1.5 -0.9 -6.1 0.3 -9.8 2.6 -4.6 2.8 -3 4.4 1.9 1.9 C 463.2 532.9 465.8 532 466.9 532 Z m -171.5 -4.1 c 2.1 -2.8 3.5 -5.3 3.2 -5.7 -0.8 -0.7 -9.5 8.4 -9.5 9.9 0 2.3 2.8 0.4 6.4 -4.2 z M 359 518.6 c 0 -1.8 -8.6 -11.3 -9.5 -10.5 C 348.8 508.9 356.9 520 358.1 520 358.6 520 359 519.4 359 518.6 Z m -46.6 -5.8 c 2.8 -1.8 5.3 -3.3 5.5 -3.5 0.2 -0.2 -0 -0.8 -0.5 -1.3 -0.6 -0.6 -2.8 0.3 -6.1 2.5 -8.8 5.9 -7.8 7.9 1.1 2.3 z M 341 504.1 c 0 -1.9 -6.8 -2.8 -11.8 -1.5 C 324.8 503.8 327.1 505 334 505 c 3.9 0 7 -0.4 7 -0.9 z M 857.8 490.2 c 0.3 -0.9 -1.5 -1.2 -6.7 -1.2 -6.6 0 -8.2 0.6 -6.4 2.4 1.2 1.2 12.6 0.2 13 -1.1 z m -23.4 -2.2 c -1.7 -1.5 -12.4 -5.3 -13.1 -4.7 -1.1 1.1 1 2.5 6.8 4.5 5.1 1.8 8.2 1.8 6.3 0.2 z m 42.5 -2.7 c 2.4 -1.4 4 -2.9 3.5 -3.3 -1.1 -1.1 -13.5 5 -12.7 6.2 0.7 1.2 3.9 0.2 9.2 -2.9 z M 813 477.2 c -0 -0.8 -9.5 -9.2 -10.4 -9.2 -1.8 0 -0 2.9 3.7 6.2 4 3.5 6.8 4.8 6.7 3.1 z m 84.3 -7 c 1.6 -1.6 2.4 -3.3 1.9 -3.6 -1.3 -0.8 -11.4 8.3 -10.6 9.5 0.7 1.1 4.7 -1.7 8.8 -5.9 z m -29.2 -0.2 c 17.5 -5.4 45.3 -38.9 53.4 -64.3 5.9 -18.8 1 -39.6 -12.2 -51.7 -6.9 -6.3 -13 -8.4 -24.3 -8.3 -14.5 0.1 -28.7 4 -46 12.5 -9.1 4.5 -11.7 6.4 -19.6 14.2 -9.7 9.7 -12.8 14.8 -14.6 24.4 -1.4 7.5 -0.4 14.5 3.8 26.1 7.6 21 16 34.2 26.7 41.6 10.9 7.5 21.1 9.2 32.8 5.6 z m -25.1 -4 c -9.9 -4.8 -18.5 -14.1 -24.8 -27.1 -2.8 -5.7 -6.5 -14.7 -8.3 -19.9 -2.8 -8.3 -3.1 -10.4 -2.7 -17.5 1 -17.6 13.1 -31.7 37.2 -43.1 13.7 -6.5 26.6 -9.7 39.6 -9.8 13.4 -0.1 17.9 1.4 24.9 8.9 9.8 10.4 14.6 25.8 12.2 39.6 -3.6 21.1 -31.1 59.8 -48.7 68.4 -4.9 2.4 -7.5 3 -14.5 3.2 -7.8 0.3 -9.1 0 -14.9 -2.8 z M 796 460.8 c -0 -1.6 -7.8 -10.8 -9.2 -10.8 -1.5 0 -0.8 1.4 3.6 7 4 5 5.5 6.1 5.5 3.8 z m 116.3 -5.6 c 2.6 -2.6 4.4 -5.1 4 -5.5 -0.7 -0.7 -10.3 8.1 -10.3 9.5 0 1.7 1.8 0.6 6.3 -4 z M 583.2 453.2 c 1.6 -1 5.4 -5.4 8.3 -9.8 8.8 -13.4 16.7 -18.6 25.2 -16.5 2.1 0.5 6.5 1.6 9.8 2.5 14.4 3.9 33.4 3 44.5 -2 7.1 -3.2 8.8 -4.8 11.7 -10.9 7.1 -15.1 -3.5 -31.1 -23.4 -35.4 -7.4 -1.6 -20.2 -1.4 -31.3 0.4 -8 1.3 -12.1 2.8 -26.4 9.6 -9.3 4.4 -20.4 9.3 -24.6 10.8 -15.9 5.7 -22.2 12.1 -23.6 23.8 -0.7 6.3 2.5 13.9 8.8 20.7 7.4 8.1 14.8 10.4 21.1 6.7 z m -9.9 -1.4 c -4.2 -1.2 -12.4 -9.5 -15.3 -15.4 -3 -6.3 -2.5 -14.6 1.3 -20.4 2.9 -4.4 12.2 -10.2 19.3 -12.1 2.3 -0.6 12 -4.8 21.5 -9.5 9.6 -4.6 19.9 -8.9 22.9 -9.5 15.8 -3.4 34.1 -3.1 43.1 0.7 13.9 6 19.8 19.1 13.8 30.7 -1.9 3.8 -3.6 5.3 -7.9 7.6 -8.2 4.2 -14.7 5.2 -29.5 4.6 -9.2 -0.4 -14.9 -1.1 -19.5 -2.6 -14.7 -4.7 -22 -1.4 -32.6 14.5 -7.3 10.9 -10.6 13.1 -17.1 11.2 z M 781 442 c 0 -1.8 -6.5 -11 -7.8 -11 -1.9 -0 -1.5 1 2.4 6.7 3.4 5 5.4 6.5 5.4 4.2 z m 148.4 -3.1 C 933.9 434.9 935.1 433 933 433 931.7 433 923 440.9 923 442.1 c 0 1.7 1.8 0.8 6.4 -3.2 z M 945.5 422.2 c 3.4 -4.6 4.4 -7.2 2.7 -7.2 C 947.3 415 940 425.1 940 426.3 c 0 1.9 2.4 0.2 5.5 -4.1 z M 768 422 C 768 420.4 762.6 410 761.8 410 c -1.4 0 -0.9 2.3 1.7 7.8 2.2 4.7 4.5 6.9 4.5 4.3 z M 439.4 403.9 c 3 -2.4 3.3 -4.7 1.1 -9 C 438.7 391.6 432.4 388 428.2 388 c -5.8 0 -9.8 8.2 -6.1 12.6 4.4 5.4 12.7 7 17.3 3.3 z M 430 403.3 c -2.5 -0.9 -7 -5.6 -7 -7.3 0 -0.9 1 -2.6 2.3 -3.8 2 -1.8 2.8 -2 5.8 -1.2 3.6 1 7.1 4.1 8.2 7.2 1.2 3.5 -4.7 6.7 -9.3 5.1 z m 522.8 -5.3 c -0.2 -3.9 -0.8 -6.5 -1.6 -6.7 -0.9 -0.3 -1.2 1.4 -1.2 6.5 0 3.8 0.3 7.2 0.7 7.6 1.5 1.5 2.4 -1.4 2.1 -7.4 z m -189.6 -1.6 c 0.4 -6.9 -0.6 -9 -2.1 -4.9 -1.2 3 -1.4 10.9 -0.3 11.9 1.3 1.3 2.1 -0.9 2.5 -7 z M 950 380.7 c 0 -1.9 -3.1 -11 -4.1 -12.1 -2 -2.2 -1.9 0.7 0.1 6.9 2 5.9 4 8.6 4 5.2 z M 771.8 376.3 c 4.1 -5.6 5 -7.8 3.1 -7.1 -1.9 0.6 -8.9 10 -8.3 11 0.9 1.5 1.8 0.8 5.2 -3.9 z m 21.6 -23.5 c -0.7 -1.1 -2 -0.3 -7.3 4.4 -2.3 2 -4 4.2 -3.6 4.8 0.4 0.7 2.8 -0.8 6.1 -3.6 3 -2.6 5.2 -5 4.9 -5.5 z m 145.7 -0.2 C 937.3 349.5 935.2 347 934.3 347 c -1.2 0 -1 0.9 0.9 4.2 1.4 2.3 3 5.3 3.7 6.6 0.8 1.6 1.6 2 2.3 1.3 0.7 -0.7 0 -2.8 -2.2 -6.6 z M 808.4 345.4 C 813.4 343.1 815.6 341 813 341 811 341 801 345.9 801 346.9 c 0 1.6 1.2 1.3 7.4 -1.5 z m 116.2 -11.1 c -4.3 -3.9 -8.3 -5.7 -7.4 -3.4 0.6 1.7 10.3 8.9 11.3 8.3 0.5 -0.3 -1.2 -2.5 -3.8 -4.9 z m -92.8 3.1 c 4.7 -1.4 7 -3.5 3.9 -3.5 -2.4 0 -11.6 3 -12.2 4 -0.9 1.4 2.4 1.2 8.3 -0.6 z m 25.4 -6.5 c 3.9 -1 5.2 -3 2.1 -2.9 -3.7 0 -11.6 2.6 -12.1 3.9 -0.5 1.4 1.8 1.2 10 -1 z M 879.8 326.5 c 5.3 -0.8 5.6 -2.5 0.5 -2.3 -5.7 0.2 -9.5 1.2 -10 2.7 -0.3 1 0.3 1.2 2.4 0.8 1.6 -0.3 4.8 -0.8 7.1 -1.2 z m 28 -1 c -0.8 -0.8 -12.1 -2.3 -13 -1.8 -1.9 1.1 -0.2 2.1 5.5 2.9 5.7 0.9 9 0.4 7.5 -1.2 z m 117 603.7 c -3.2 -6 -7.8 -16.2 -10.3 -22.7 -5.5 -14.5 -8.5 -19 -15 -22.3 -4.7 -2.4 -5.9 -2.6 -19.5 -2.5 -32.4 0.1 -56.9 9.5 -86.4 33.4 -10.4 8.4 -16.5 11.7 -23.4 12.7 -9.4 1.3 -15.8 -3 -20.7 -13.7 -2.7 -6 -3.9 -10.5 -10.6 -39.9 -10.9 -48.3 -21.2 -67.9 -52.7 -100.1 -7.2 -7.4 -13 -14.2 -13.9 -16.5 -2.1 -5 -2 -14.5 0.1 -20.9 0.9 -2.8 4 -9.3 6.9 -14.5 2.9 -5.2 6.2 -12.1 7.5 -15.2 4 -9.9 7.3 -14.3 13.2 -17.1 7 -3.4 16.8 -4.9 24.1 -3.7 10.1 1.7 14.5 5 23.8 18.1 6.6 9.3 7.3 10 10.5 10 2.6 0 3.9 -0.7 5.3 -2.8 3.5 -5 6.9 -12.6 11.6 -26 11.2 -31.9 20 -45 35 -51.9 8.8 -4 18.1 -4.2 40.6 -0.9 16 2.4 20.7 2.7 34.5 2.2 17.3 -0.5 24.5 -2 38.3 -7.6 l 7.3 -3 -0.3 16.7 -0.3 16.7 -11.5 2.9 c -10.8 2.7 -13.4 2.9 -40.5 3.7 -32 0.9 -36.1 1.6 -43.7 7.3 -10.1 7.6 -18.8 27.2 -18.8 42.5 -0 14 -1.6 25.8 -4.2 31.5 -5.6 12.2 -17.1 22.4 -32 28.2 -12 4.7 -16 7 -19.6 11 -10.1 11.5 -10.7 25.4 -2.4 52 8.8 28.3 24.4 40.5 46.9 36.6 10.5 -1.8 35.5 -10.5 48.9 -17 27.5 -13.4 40.7 -24.7 66.4 -56.9 l 10.6 -13.3 0.3 13.7 0.3 13.7 -3.5 4.3 c -3.4 4.1 -4.4 6.5 -2.8 6.5 0.4 0 2 -1.5 3.5 -3.2 l 2.7 -3.3 0 61.2 c 0 33.7 -0.1 61.2 -0.2 61.2 -0.1 -0 -2.8 -4.9 -6 -10.9 z M 889.4 896.4 C 892.9 895 890.6 894 884.1 894 c -6.4 0 -8.9 0.8 -7.4 2.4 0.8 0.8 10.6 0.8 12.7 0 z M 868 891.2 c 0 -0.5 -0.9 -1.7 -2 -2.7 -1.1 -1 -3 -3.4 -4.1 -5.2 -1.4 -2.3 -2.4 -3.1 -3.1 -2.4 -1 1 1.1 4.7 5.1 9.4 1.5 1.8 4.2 2.4 4.2 0.9 z m 39.7 -1.3 C 910.6 888.6 913 887 913 886.3 913 885.6 912.8 885 912.6 885 911.1 885 900 890.4 900 891.1 c 0 1.4 2.1 1 7.7 -1.3 z m 23.7 -9.8 c 2.6 -1.1 4.4 -2.4 4.1 -2.9 -0.8 -1.2 -12.8 3.2 -13.4 5 -0.5 1.5 2.6 0.9 9.3 -2 z M 952.8 872.6 c 2.9 -0.9 5.2 -2.1 5.2 -2.6 0 -1.6 -2.6 -1.1 -12.8 2.6 -0.7 0.3 -1 1 -0.6 1.6 0.4 0.6 1.2 0.9 1.8 0.7 0.6 -0.2 3.5 -1.2 6.4 -2.1 z M 855 870.8 c -0 -2 -3.5 -10.6 -4.8 -12 -1.9 -1.9 -1.5 1.2 0.9 7.6 2 5.2 3.9 7.3 3.9 4.3 z m 121.6 -6.8 c 3.1 -1.3 4.4 -2.4 3.8 -3 -1.2 -1.2 -12.6 3.2 -13.2 5.1 -0.5 1.5 2.6 0.8 9.4 -2.1 z m 19.5 -11.7 C 1000.9 848.6 1002.1 847 999.9 847 998.4 847 989 853.9 989 855.1 c 0 1.7 2.1 0.9 7 -2.8 z M 847 848.5 c 0 -0.3 -0.7 -3.2 -1.7 -6.5 -1.1 -3.8 -2.2 -6 -3.1 -6 -0.8 0 -1.2 0.6 -0.9 1.4 0.3 0.8 1.1 3.4 1.7 5.8 0.6 2.4 1.4 4.7 1.6 5.1 0.5 0.8 2.3 1 2.3 0.2 z m 166.8 -11.8 c 4.4 -4.5 5 -5.7 3 -5.7 -1.3 0 -9.8 7.9 -9.8 9.2 0 1.9 2.9 0.4 6.8 -3.5 z M 839.5 822.8 c -1.1 -4.9 -3.2 -9.8 -4.4 -9.8 -1.3 0 -1.3 -0.3 0.5 5.6 0.9 2.7 1.8 5.5 2 6.2 0.2 0.7 0.9 1.2 1.5 1.2 0.7 0 0.9 -1.1 0.4 -3.2 z M 833 796 c 0 -6.6 -1 -9 -2.4 -5.4 C 829.2 794.4 830.2 803 832.1 803 832.6 803 833 799.9 833 796 Z m 7.3 -17.4 c 1.8 -1.3 4.2 -2.7 5.4 -3.1 1.2 -0.4 2.2 -1.3 2.2 -2.1 0 -3.1 -11.9 3.7 -12 6.8 -0 1.2 1 0.9 4.3 -1.6 z m 28.2 -9 c 2.3 -1 3.5 -2 2.9 -2.5 C 870.3 766 858 769.8 858 771.3 c 0 1.3 5.5 0.4 10.5 -1.7 z M 886.8 757.6 c 3 -2.8 4.3 -5.6 2.5 -5.6 -1.4 0 -10.3 9.6 -9.6 10.3 0.8 0.8 2.3 -0.3 7.1 -4.7 z m 11.7 -18.8 c 0.8 -2.8 1.5 -6 1.5 -7 0 -2.8 -1.9 -2.1 -2.5 0.9 -0.3 1.5 -1.2 4.4 -1.9 6.4 -1.3 3.5 -1.1 4.8 0.6 4.8 0.4 0 1.5 -2.3 2.3 -5.2 z m 3.1 -20.1 C 902.4 715.3 901.7 706.5 900.5 706.5 c -0.6 0 -1.1 3.3 -1.3 7.2 -0.2 4.5 0.1 7.2 0.7 7.2 0.6 0 1.3 -1 1.6 -2.3 z M 902.3 696.2 c 1.1 -1.8 1.8 -13.2 0.9 -13.2 -1.3 0 -1.9 1.7 -2.7 8.3 -0.5 3.8 -0.4 5.7 0.3 5.7 0.6 0 1.3 -0.3 1.5 -0.8 z m 7.7 -28.4 c 3 -5.9 3.3 -7.8 1 -6.4 -1.7 1 -6.2 10.5 -5.5 11.6 1 1.6 1.3 1.2 4.5 -5.1 z m 13.6 -15.4 c 1.6 -0.8 4.1 -1.9 5.6 -2.5 2.8 -1 3.8 -3 1.5 -3 -2.2 0 -11.8 4.9 -11.8 5.9 0 1.4 1.3 1.3 4.7 -0.5 z M 979.8 648.2 c 0.3 -0.9 -1.5 -1.2 -6.7 -1.2 -7.2 0 -9.7 1.5 -3.8 2.3 5.5 0.7 10.1 0.3 10.5 -1 z m 23.7 -1.3 c 1.7 -1.6 -0.1 -2 -6.5 -1.2 -3.9 0.5 -6.5 1.3 -6.8 2.1 -0.4 1.1 0.8 1.2 5.9 0.6 3.5 -0.4 6.8 -1.1 7.3 -1.6 z M 956 647 c 0 -0.6 -3 -1 -7 -1 -4 0 -7 0.4 -7 1 0 0.6 3 1 7 1 4 0 7 -0.4 7 -1 z m 65.6 -3.6 c 3 -0.9 5.4 -2.2 5.4 -2.9 0 -1.6 -12.2 1.5 -12.8 3.3 -0.5 1.5 0.9 1.5 7.4 -0.4 z M 885.7 869.5 c -12.9 -4.7 -21.6 -17.9 -28.3 -43 -3.6 -13.5 -3.8 -25.9 -0.5 -32.7 3.2 -6.5 10.6 -12.9 18.3 -15.8 20.6 -7.6 34.8 -19.8 40.4 -35 1.1 -3 1.9 -9.9 2.4 -21.5 0.8 -18 2.1 -23.9 7.6 -34.8 3.6 -7.1 10.5 -14.1 16.6 -16.8 4.9 -2.1 7.2 -2.3 33.2 -3 29 -0.8 37.6 -1.8 53.8 -6.5 1.7 -0.5 1.8 2.8 1.8 60 l 0 60.5 -8.6 11.1 c -28.2 36.2 -41 47.6 -69.9 61.6 -29.2 14.2 -54.8 20.3 -66.8 15.9 z m 31.8 -16 c 32.2 -6.8 59.6 -25.5 81.3 -55.5 4.5 -6.3 10.8 -14.4 13.9 -17.9 8.8 -10.2 10.6 -15 11.5 -30.5 0.4 -7.2 1.3 -18.5 1.9 -25.3 l 1.2 -12.3 -3.4 -3.5 c -5.8 -6.1 -15 -9.8 -37.8 -15.3 -21.7 -5.3 -32.3 -3.9 -41.7 5.5 -9.4 9.4 -16.9 29 -18.3 47.9 -1.2 15.4 -2.1 16.5 -22.5 25.2 -19.5 8.4 -30.2 16.3 -33.5 24.8 -1.7 4.4 -1.2 16.6 1 25.2 3.6 14.2 9.3 23.2 17.7 28.1 8.9 5.2 16.9 6.3 28.7 3.8 z m -21.6 -3.1 c -5.8 -1.8 -13.6 -8.7 -17.1 -15.1 -3.2 -5.9 -6.5 -17.6 -7.4 -25.8 -1.6 -15.6 6.3 -24 33.4 -35.7 7.3 -3.2 14.6 -6.7 16.3 -7.9 4.9 -3.5 6.9 -8.7 7.9 -20.7 1.5 -18.5 8.9 -37 18.1 -45.7 9.6 -9 18.7 -9.4 46 -2.1 14.4 3.8 22.4 7.1 27.7 11.1 3.1 2.4 3.3 2.9 3.3 8.7 -0 3.4 -0.7 11.1 -1.5 17.2 -0.8 6 -1.5 14.6 -1.5 19.1 -0 7 -0.4 8.9 -3 14 -1.6 3.3 -5.7 9.1 -9 12.9 -3.3 3.9 -9 11.2 -12.7 16.3 -3.7 5.1 -9.6 12.5 -13.1 16.3 -24.6 26.6 -65.4 44 -87.3 37.3 z m 38.5 -21 c 12.5 -4.3 32.8 -18.5 38.5 -27 3.2 -4.8 3.3 -5.3 3 -13.2 -0.3 -7.3 -0.6 -8.5 -2.9 -10.8 -3.5 -3.5 -8.1 -4.4 -22.5 -4.4 -26.7 -0.1 -49.5 7.6 -57.1 19.2 -8.6 13 3.2 35.3 20.7 38.9 5 1 12.4 0.1 20.3 -2.6 z m -23.7 -0.9 c -12.4 -4.4 -21.4 -22.4 -16.2 -32.4 3.5 -6.7 14.4 -13.2 27.7 -16.4 15.9 -3.9 38.5 -4.5 46.3 -1.2 3.7 1.5 4.1 2.4 5.1 10.7 0.8 7.2 -1 11.3 -7.9 17.5 -20.1 18.1 -41.6 26.7 -55 21.9 z M 0.2 719.3 0.5 659.6 14 656.3 c 16 -3.9 26.3 -4.9 34.5 -3.4 9 1.7 14.5 4.9 18 10.5 2.6 4.2 3 5.7 2.9 11.9 C 69.3 689.4 64.1 699.6 47 719 34.4 733.3 31.7 737.7 27.1 750.8 21.2 767.7 17.4 772.5 6.2 776.9 3.3 778.1 0.7 779 0.5 779 0.2 779 0.1 752.1 0.2 719.3 Z M 788.9 627.6 c -8 -1.7 -16 -5.6 -18.8 -9.2 -5.7 -7.3 -7.1 -25.1 -4.7 -60.4 1.9 -28.1 2.9 -34 6.4 -40.5 4.2 -7.7 8.9 -9.9 22.7 -10.3 6.2 -0.2 16.9 0.3 24.5 1.2 23.1 2.7 28.8 2.9 37.9 1.3 15.6 -2.8 28.2 -10.5 52.1 -31.7 6.3 -5.6 20.9 -17.3 32.5 -25.9 28.4 -21.2 34.8 -28.4 37.7 -42.3 1.7 -8 -0.6 -18.3 -8.6 -38 C 967.1 362.8 962.2 350.3 960 344 949 313.8 939.4 304 918.2 301 906.2 299.3 893.3 300.2 870 304.6 c -18.8 3.5 -20.3 3.7 -42.5 3.7 -12.7 0 -30.9 -0.4 -40.5 -1 -15.6 -0.9 -18.1 -1.3 -23.3 -3.7 -11.3 -5.2 -27 -24.5 -48.7 -60.2 -13.7 -22.4 -20.4 -31.7 -28.6 -39.5 -14.4 -13.7 -28.5 -20.5 -59.2 -28.6 L 609.5 170.6 588 170.4 c -11.8 -0.1 -24 -0.7 -27 -1.3 C 547.2 166.2 536 157.9 526.5 143.5 516.7 128.5 481.4 61.2 473.6 42.5 468.1 29.3 466 20.2 466 9.3 L 466 0 l 12 0 12 0 -0.3 3.5 c -0.4 4.6 1.5 4.6 2.6 0.1 L 493.2 0 l 14.3 0 14.3 0 -1.5 6.8 c -2 9.4 -1.2 33.4 1.7 46.5 2.8 12.9 8.2 29.4 12.8 38.7 2.7 5.4 5.8 9.6 11.2 15 9.7 9.8 16.7 13.4 31.4 16.5 13.2 2.7 18.5 5.2 27.8 12.8 5.7 4.6 15.4 9.7 18.7 9.7 0.5 0 9.6 2.9 20.2 6.4 10.6 3.5 22.8 7 27.1 7.6 9.7 1.5 20.5 0.8 27.9 -2 5.1 -1.9 5.9 -2.6 7.4 -6.6 2.1 -5.6 1.5 -11.3 -2.7 -23.2 C 693.9 99.8 668 57.5 634.8 15.7 630.5 10.3 626.3 4.6 625.5 2.9 L 623.9 0 l 16.4 0 16.4 0 4 6.2 c 2.2 3.4 12 18.9 21.7 34.2 20.2 31.8 34.4 53.1 41.9 62.4 6.4 8 15.2 14.6 22.5 16.8 16.8 5.1 43.8 -1.7 58.2 -14.5 C 815.2 96.1 818.1 87.8 820 62 c 1.5 -20.9 5 -39 10.8 -56 1.9 -5.5 1.9 -5.5 6.4 -5.8 4.4 -0.3 4.5 -0.2 4 2.2 -0.6 3.3 1.1 3.3 2.6 0 1 -2.3 1.7 -2.5 7.7 -2.5 3.6 0 6.5 0.3 6.3 0.8 -0.2 0.4 -1.6 3.1 -3.1 5.9 -7.9 15 -11.1 40.5 -6.8 53.3 3 8.8 6.2 14 12.7 20.5 7.3 7.3 18.8 13.1 30.3 15.1 19.7 3.6 35.4 -0.8 66.5 -18.6 5.5 -3.1 14.9 -8.3 21 -11.5 20.8 -11 28.7 -17.9 35.1 -30.7 4.1 -8.1 7.4 -21.1 7.4 -29 L 1021 0 l 5 0 5 0 0 99.4 c 0 71.8 -0.3 99.5 -1.1 99.8 -0.8 0.3 -0.8 1.4 -0 4.3 0.8 2.8 1.1 37.7 1.1 116.6 l 0 112.7 -5.8 3.9 c -3.2 2.2 -10 7.2 -15.2 11.1 -12.2 9.2 -19.6 13 -36.1 18.7 -22.3 7.7 -35.3 14.9 -51.1 28.1 -22.3 18.8 -30.9 39.6 -21.8 52.2 11.3 15.6 43.9 28.3 68.7 26.8 18.2 -1.1 26.4 -6.9 37.7 -26.7 3.8 -6.6 8.2 -13.7 9.9 -15.7 2.8 -3.4 11 -9.4 12.8 -9.4 1.2 0 1 26.8 -0.3 27.5 -1.7 1.1 -6.9 8.6 -6.9 10.1 0 2.6 1.8 1.3 4.9 -3.4 l 3.1 -4.8 0 15.5 0 15.5 -6.5 6.1 c -4.1 3.8 -9.6 7.7 -14.8 10.3 -17.8 9 -32.5 9.3 -63.9 1.2 -30.6 -7.8 -43 -8.7 -56.5 -4.1 -7.1 2.4 -11.9 5.3 -25.8 15 -20.2 14.2 -28.4 16.9 -52.5 17.5 -10.7 0.3 -17.5 -0 -22.1 -1 z M 820 602.1 c 0 -0.5 -1.7 -1.2 -3.7 -1.6 -2 -0.4 -4.9 -1.3 -6.4 -2.1 -1.9 -1 -2.9 -1.1 -3.4 -0.3 -0.9 1.4 -0.5 1.6 4.1 3.4 4.5 1.6 9.4 2 9.4 0.7 z m 18.1 -2.3 c 2.7 -1.2 4.8 -2.6 4.7 -3.1 -0.2 -0.5 -0.7 -0.9 -1.1 -0.9 -1.6 -0 -11.7 4.6 -11.7 5.3 0 1.4 2.9 0.9 8.1 -1.3 z m 140.4 -7.8 c 0.3 -0.5 0.2 -1.1 -0.2 -1.4 -1.6 -1 -12.8 -1.1 -13.3 -0.2 -0.9 1.9 12.3 3.4 13.5 1.6 z m -178.6 -0.8 c -0.2 -0.4 -1.4 -3.4 -2.8 -6.5 C 794.7 579.2 793 577.4 793 580.5 c 0 1.9 2.6 8.3 4.1 10.1 1.2 1.4 3.2 1.8 2.7 0.5 z m 199.5 -2.9 c 4.7 -2.4 1.7 -3.7 -3.4 -1.5 -2.4 1 -5.2 2.2 -6.2 2.5 -1 0.3 -1.6 1 -1.2 1.6 0.7 1.1 6.5 -0.3 10.9 -2.6 z m -141.7 -1 c 5.2 -3.6 6.6 -5.4 4.1 -5.3 -1.7 0 -10.8 6.8 -10.8 8 0 1.6 1.1 1.2 6.7 -2.7 z M 955 588.1 c 0 -0.5 -2.9 -1.6 -6.5 -2.5 -7.7 -1.9 -7.8 -1.9 -7.3 -0.4 C 942 587.4 955 590.1 955 588.1 Z M 931 581.5 c -0.1 -0.5 -1.9 -1.5 -4 -2.1 C 919 577 918 576.9 918 578.3 c 0 0.8 2.5 2 5.8 2.9 6.2 1.7 7.5 1.8 7.2 0.3 z m 82.4 -4.1 c 4.4 -5.5 5.9 -8.3 4.5 -8.3 -1.2 0 -8.8 9 -8.8 10.5 0 1.4 2.5 0.2 4.4 -2.1 z m -218.9 -6.7 c 0 -9.2 -1.9 -9 -2.3 0.2 -0.2 5.6 0 7.2 1 6.9 0.8 -0.3 1.3 -2.6 1.3 -7.1 z m 83.8 5.5 c 3.2 -1 5.8 -2.2 5.7 -2.7 -0.2 -1.9 -12.1 1.2 -12.8 3.4 -0.5 1.5 0.2 1.5 7.1 -0.7 z M 907.8 575.8 c -0.5 -1.4 -4.4 -2.5 -10 -2.6 -5.5 -0.2 -4.6 1.6 1.5 2.7 7.5 1.4 9 1.4 8.5 -0.1 z M 800.8 548.3 c 1.8 -3.1 3 -5.8 2.8 -6.1 -0.9 -0.9 -4.6 3.1 -6.6 7 -2.2 4.4 -2.3 4.8 -0.6 4.8 0.7 -0 2.7 -2.6 4.5 -5.7 z M 820.8 535.8 C 826.2 534.7 827.9 533 823.4 533 818.7 533 812 535.2 812 536.7 c 0 1 0.6 1.3 1.8 0.8 1 -0.4 4.1 -1.2 7 -1.7 z m 27.7 -2.4 c 0.9 -0.3 1.3 -1 1 -1.5 C 848.3 530.1 835 531.3 835 533.1 c 0 1 11 1.2 13.4 0.3 z m 18.9 -4.3 C 871.7 527.2 874.2 525 871.9 525 c -2 0 -12.9 4.4 -12.9 5.2 -0 1.3 3.7 0.8 8.3 -1.2 z m 19.1 -13.9 c 2.6 -2.4 4.4 -4.7 4 -5.3 -0.7 -1.2 -10.4 7 -10.4 8.9 -0.1 1.9 1.1 1.2 6.4 -3.6 z m 17.4 -16.5 C 908.2 494.2 908.8 493 906.8 493 905.4 493 897 500.9 897 502.2 c 0 1.9 2.9 0.4 6.8 -3.5 z m 17.1 -15.9 C 926 478.2 926.8 477 925 477 c -1.8 0 -11.1 8.1 -10.4 9.1 0.9 1.4 1.5 1.1 6.3 -3.3 z m 19.7 -13.9 c 5.1 -2.9 6.8 -4.9 4.1 -4.9 -1.8 0 -10.8 5.8 -10.8 7 0 1.5 0.8 1.3 6.6 -2.1 z M 961.7 457.2 c 2.9 -1.5 5.3 -3.3 5.3 -4 0 -0.7 -0.3 -1.2 -0.7 -1.2 -1.5 0 -11.2 6.1 -11.2 7 0 1.5 1 1.2 6.7 -1.8 z m 20.5 -12.5 c 2.6 -1.8 4.8 -3.8 4.8 -4.5 0 -0.7 -0.3 -1.2 -0.6 -1.2 -1 0 -11.4 7.5 -11.4 8.2 -0.1 1.6 2.6 0.6 7.2 -2.5 z m 18.1 -16.2 c 3.5 -4.2 4.6 -6.6 3 -6.6 -0.8 0 -9.2 9.5 -9.2 10.4 0 1.9 3.1 -0.1 6.3 -3.9 z m 12.3 -20.1 c 1.6 -5.5 1.4 -9.1 -0.6 -8 -0.6 0.3 -1 1.7 -1 2.9 0 1.3 -0.7 4.2 -1.5 6.4 -1.3 3.6 -1.3 4.1 -0 4.1 0.9 0 2.1 -2.2 3 -5.6 z m -1.3 -18.1 c 0.7 -0.7 -1.5 -5.3 -4.6 -9.7 -3.6 -5.1 -4 -1.4 -0.5 4.6 3.3 5.6 3.9 6.3 5.1 5.1 z M 998 370.2 c 0 -1.9 -6.2 -12.1 -7.1 -11.6 -1.4 0.8 -1.2 1.5 2.1 7.2 2.7 4.7 5 6.7 5 4.4 z m -9 -28.3 c 0 -5.2 -0.3 -7 -1.2 -6.7 -1.4 0.5 -2.2 7.8 -1.3 11.4 1.2 4.7 2.5 2.2 2.5 -4.8 z m 9.4 -19 c 3 -2.3 5.3 -4.5 5 -5 -1 -1.7 -11.4 5.4 -11.4 7.8 0 2 0.3 1.8 6.4 -2.7 z m 26.4 -12.6 c 1.5 -0.6 1 -2.9 -0.6 -2.6 -3.4 0.7 -12.3 5.4 -11.8 6.2 0.5 0.9 2.1 0.4 12.3 -3.7 z M 860.3 276.5 c -0.3 -1.1 -10.7 -1.9 -13 -1.1 -0.8 0.3 -1.1 1 -0.8 1.6 0.8 1.4 14.1 0.8 13.7 -0.5 z m -23.3 -2.8 c -0.1 -1.4 -11.8 -7.3 -12.7 -6.3 -0.9 0.9 1 2.5 6.4 5.1 5.6 2.8 6.4 2.9 6.3 1.2 z M 878.8 269.7 C 880.8 267.8 881.8 265 880.4 265 c -0.3 0 -2.3 1.5 -4.4 3.4 -2.1 1.9 -4.3 3.6 -5 3.8 -0.8 0.3 -1 1 -0.5 1.7 0.8 1.4 4 -0.2 8.3 -4.2 z m 106.8 -1.8 c 7.7 -2.9 14.6 -9.7 16.9 -16.6 2.7 -8.1 3.6 -20.2 4.2 -59.3 0.7 -39.4 0 -49.9 -3.9 -61.8 -1.6 -4.8 -3.4 -7.9 -6.3 -10.8 -5.2 -5.2 -9.9 -6.8 -18.3 -6.1 -5.8 0.5 -8.7 1.6 -23.6 9.1 -21.6 10.9 -25.6 12.2 -44.8 14.7 -8.7 1.1 -18.2 2.9 -21.1 4 -10.1 3.8 -15.6 12 -16.4 24.5 -0.4 6.2 -0 8.1 3 16.2 6.2 16.6 13.6 26.6 38.3 52.1 32.4 33.4 50.7 42.1 72 34.2 z m -25.6 -1.8 c -13.3 -4.4 -29 -16.9 -50 -39.7 -7.8 -8.4 -16.6 -18.6 -19.5 -22.6 -14 -18.7 -18.8 -36.9 -13 -49.4 4.4 -9.3 9.6 -11.8 30.9 -14.6 19.1 -2.5 26.2 -4.6 41.3 -12.2 20.1 -10.2 21.5 -10.8 26.7 -11.8 5.5 -1 11.5 -0.1 15.3 2.4 11.9 7.8 15 30.4 12.3 90.6 -1.8 38.5 -2.4 42.5 -8.5 49.1 -5.6 6.3 -12.2 9.1 -21.8 9.5 -5.8 0.2 -9.5 -0.2 -13.6 -1.5 z m -1.2 -59.3 c 5.4 -2.6 8.9 -7.1 11.9 -15.5 4.3 -11.7 2.3 -24.7 -4.1 -27.6 -6.5 -3 -23.5 3.3 -32.6 12 -5.2 5 -5.2 5 -4.6 10 0.7 6.3 3.5 11.6 8.4 16.3 7.1 6.8 13.6 8.3 21 4.7 z m -14.9 -2.9 C 937.6 200.7 932 191.8 932 185.1 c 0 -3.5 0.6 -4.5 5.1 -8.5 6.7 -6 14.8 -9.8 22.4 -10.4 5.2 -0.4 6.3 -0.2 7.9 1.6 6.8 7.5 1.8 29.1 -8.2 35.9 -4.2 2.8 -10.2 2.9 -15.3 0.2 z M 816 262 c 0 -1.1 -9.6 -5.9 -11.8 -5.9 -2.8 -0 -0.9 2 4 4.3 5.8 2.8 7.8 3.2 7.8 1.6 z m -22.8 -7.5 c 0.1 -1.2 -11 -3.8 -13 -3 -2.3 0.9 -0.8 1.7 5.5 3 6.4 1.4 7.4 1.4 7.5 -0 z m 88.2 -4.5 c -1.8 -5.1 -4.1 -8.6 -5.1 -7.6 -0.4 0.4 0.1 2.4 1 4.4 0.9 2.1 2.1 5.1 2.7 6.7 0.7 1.9 1.4 2.6 2 1.9 0.6 -0.6 0.4 -2.5 -0.6 -5.4 z M 770 249.1 c 0 -0.7 -2.8 -2.1 -11.8 -5.8 -0.7 -0.3 -1.2 0.1 -1.2 1 0 0.8 2.1 2.4 4.8 3.5 5.1 2.2 8.2 2.7 8.2 1.3 z m -21.2 -11.3 c -0.6 -1.9 -9.7 -9.2 -10.5 -8.5 -0.9 0.9 7.7 9.6 9.5 9.6 0.8 0 1.2 -0.5 1 -1.2 z M 871 233.2 C 871 231.9 863.9 223 862.9 223 c -1.8 0 -0.8 2.4 2.7 6.6 3.3 4.1 5.4 5.4 5.4 3.5 z M 732 220.9 C 732 219.4 724.9 210 723.8 210 c -1.7 0 -0.7 2.5 2.9 7.1 3.7 4.8 5.3 5.9 5.3 3.7 z m 124.8 -6.6 c -0.2 -0.4 -1.6 -3.1 -3.2 -6 C 850.8 203.3 849 201.6 849 204.1 849 206.4 854.4 215 855.7 215 c 0.8 0 1.3 -0.3 1.1 -0.8 z M 712.5 197.4 C 709.8 195 707.2 193 706.8 193 c -1.8 0 -0.5 2.2 4 6.4 3.2 3.1 5.1 4.2 5.8 3.5 0.7 -0.7 -0.6 -2.5 -4 -5.4 z M 846.2 184 c -0.4 -2.5 -1.2 -4.3 -1.8 -4 -1.2 0.6 -0.7 8.5 0.8 12 l 1.1 2.5 0.3 -3 c 0.2 -1.6 -0 -5 -0.5 -7.5 z M 698 187.7 C 698 186.5 688.1 181 686 181 c -2.6 0 -0.4 2.3 4.8 4.9 6.6 3.4 7.2 3.6 7.2 1.8 z m 330 0 c -0 -1.5 -1.8 -9.6 -2.5 -11.7 -0.3 -0.9 -0.9 -1.1 -1.4 -0.5 -0.5 0.5 -0.5 2.9 0.1 5.9 1.4 6.7 1.6 7.5 2.8 7.5 0.6 0 1 -0.6 1 -1.2 z M 676 178 c 0 -0.6 -1.9 -1.9 -4.2 -2.9 -7.1 -3 -8.8 -3.4 -8.8 -1.9 0 0.8 2.6 2.3 5.8 3.5 6.8 2.5 7.2 2.6 7.2 1.2 z m -22.2 -8.1 c -0.4 -1.2 -5 -3.1 -10.7 -4.3 -5.5 -1.2 -3.2 1.5 3 3.5 6.7 2.1 8.2 2.3 7.7 0.8 z m 190.4 -4.4 C 843.8 159.5 842.9 156 841.9 156 c -1.1 0 -1.2 4.8 -0.3 10.3 0.8 5 2.9 4.2 2.6 -0.9 z m 179.9 -6.5 c -0.1 -3.5 -0.6 -6.8 -1.1 -7.3 -1.6 -1.6 -2.2 1.5 -1.5 7.9 0.9 8.6 2.9 8.1 2.6 -0.6 z M 631 163 c 0 -0.9 -13.2 -4.2 -13.9 -3.4 -1 1 2.1 2.6 7.1 3.8 5.4 1.3 6.9 1.2 6.9 -0.4 z M 613 158.2 c -0 -0.4 -1.7 -1.8 -3.8 -3 -2.1 -1.2 -4.7 -3 -5.9 -3.8 -1.3 -0.9 -2.4 -1.2 -2.7 -0.6 -0.7 1.2 8.3 8.1 10.7 8.1 1 0 1.7 -0.3 1.7 -0.7 z M 591 148 c 0 -1.5 -4.6 -2.3 -9.5 -1.6 C 574.6 147.5 576.1 149 584 149 c 3.9 0 7 -0.4 7 -1 z m -24 -0.9 c 0 -1.1 -12 -5.5 -12.8 -4.7 -0.9 0.9 1 2.4 5.3 4 4.6 1.7 7.5 2 7.5 0.7 z m 274.1 -4.2 C 840.7 139.7 837.2 133 836 133 c -1.4 0 -1.2 1.1 1 5.5 1.1 2.2 2 4.8 2 5.8 0 1.1 0.5 1.7 1.2 1.4 0.7 -0.2 1.1 -1.5 0.9 -2.8 z M 756 140.5 c 0 -1 -1 -1.5 -3.2 -1.5 -1.8 -0 -4.9 -0.3 -7 -0.6 -5.3 -0.9 -4.9 1.3 0.5 2.5 6.6 1.5 9.8 1.4 9.8 -0.3 z m 266.8 -5.8 c -0.2 -4 -0.7 -7.2 -1.3 -7.2 -1.4 0 -1.8 3.1 -1 9.1 1 8 2.7 6.6 2.3 -1.9 z m -247.8 5.2 c 2.8 -0.6 5 -1.5 4.8 -2.1 -0.4 -1.3 -0.8 -1.3 -7.8 0.1 C 768.7 138.6 766 139.5 766 140.1 c 0 1.2 2.7 1.2 9 -0.1 z M 546 136.3 C 546 135.3 537.8 127 536.8 127 c -1.8 0 -0.6 2.7 2.9 6.2 3.4 3.5 6.3 4.9 6.3 3.1 z m 252.9 -3.3 c 5.3 -1.4 5.6 -3.5 0.4 -2.6 -5.4 1 -10.5 3.3 -9.8 4.5 0.4 0.6 1.5 0.6 2.9 0.1 1.3 -0.5 4.2 -1.4 6.5 -2 z m -69.5 -4.2 C 726.7 126.2 724.2 124 723.8 124 c -2.1 0 -0.4 3.1 3.7 6.9 6.3 5.8 7.9 4.1 1.9 -2 z M 827 128 c 0 -1.3 -6.4 -2.2 -10.2 -1.4 -4 0.9 -5 1.4 -4.4 2.3 C 813 129.8 827 129 827 128 Z m -296 -9.5 c 0 -0.3 -1.6 -3 -3.6 -6 C 523.9 107.3 522 105.7 522 108 522 110 528.2 119 529.6 119 530.4 119 531 118.8 531 118.5 Z m 490.6 -6.7 c -0.8 -6.7 -1.1 -7.8 -2.6 -7.8 -0.6 0 -0.7 2.4 -0.4 5.8 0.7 7.2 1.1 8.2 2.5 8.2 0.8 0 1 -1.8 0.5 -6.2 z M 718 116.2 C 718 114.8 711 105 710 105 c -1.8 0 -0.9 2.5 2.6 7.2 3.2 4.3 5.5 6 5.5 4 z m 189 -0.1 c 0 -1 -5.8 -2.1 -10.8 -2.1 -3.1 -0 -4.1 0.9 -2.6 2.3 C 894.7 117.3 907 117.1 907 116.1 Z m -24 -1 c 0 -1.2 -3.7 -2.1 -9.2 -2.1 -4.4 -0 -5.7 0.7 -4.1 2.3 1 1 13.3 0.8 13.3 -0.2 z m 41.1 -0.7 c 6.4 -1.9 7.1 -2.3 6.4 -3.4 -0.7 -1.1 -12.8 2.3 -13.3 3.8 -0.5 1.5 0.4 1.5 6.8 -0.4 z m -64.9 -1.8 c -0 -1.1 -12.1 -6 -12.9 -5.2 -1 1 1.1 2.5 6.3 4.6 5 2 6.6 2.1 6.5 0.6 z m 87.3 -7.3 c 3 -1.5 5.5 -3.3 5.5 -4 0 -1.8 -0.2 -1.7 -7.1 1.7 -3.3 1.7 -5.7 3.5 -5.4 4 0.8 1.3 0.7 1.3 7 -1.7 z M 517.3 94.2 c -3 -7.3 -4.5 -9.5 -5.5 -8.5 -0.7 0.7 0.1 3.1 2.1 7.2 3.3 6.6 6 7.6 3.4 1.3 z M 843 98.4 c 0 -0.7 -4.2 -12.6 -4.6 -13.2 -0.1 -0.2 -0.7 -0.1 -1.3 0.3 -0.9 0.6 1.5 9.6 3.4 12.6 C 841.2 99.1 843 99.4 843 98.4 Z M 705 96.4 c 0 -2.2 -7 -12.6 -8 -11.9 -1 0.6 -0.3 2.3 3.7 8.7 C 702.7 96.5 705 98.2 705 96.4 Z m 269 -6.6 c 0 -1.4 -2.5 -0.8 -7.8 1.8 C 963.3 93 961 94.8 961 95.6 c 0 1 1.8 0.5 6.5 -1.8 3.6 -1.8 6.5 -3.6 6.5 -4 z m 43 2.8 C 1017 91.1 1009.6 84 1008.1 84 c -2.4 0 -1.8 2.1 0.9 3.5 1.7 0.9 3.8 2.7 4.6 4 1.8 2.7 3.4 3.2 3.4 1.1 z m -26.3 -6.7 c 6.9 -1.2 8.6 -3 2.6 -2.8 -5.6 0.2 -9.5 1.2 -10 2.6 -0.5 1.5 -0.5 1.5 7.4 0.1 z M 506.9 70.7 C 505.7 67.8 504.6 64.9 504.3 64.2 504 63.6 503.3 63 502.8 63 c -1.2 0 -0.3 4 2.3 9.8 2.7 6.2 4.4 4.3 1.8 -2.1 z M 692 74.9 c 0 -2 -5.5 -10.9 -6.8 -10.9 -1.8 -0 -1.6 0.6 1.8 6.6 C 690 75.7 692 77.4 692 74.9 Z M 835.5 71.2 c -1 -7.5 -1.5 -9.2 -2.7 -9.2 -0.8 0 -0.9 1.9 -0.4 6.2 0.8 6.7 1.1 7.8 2.7 7.8 0.6 0 0.8 -1.8 0.4 -4.8 z M 680 54.7 c 0 -2.1 -7 -11.8 -8.1 -11.2 -0.9 0.6 0.1 2.7 4.9 10.2 C 678.4 56.2 680 56.7 680 54.7 Z M 499.7 52.2 c -0.3 -1 -1.1 -3.9 -1.8 -6.5 C 497.2 43.1 496 41 495.3 41 494.6 41 494 41.1 494 41.3 c 0 0.7 3.2 11.2 3.7 11.9 0.9 1.5 2.6 0.7 2.1 -1 z M 834 45 c 0 -7.5 -1.3 -9.4 -2.4 -3.2 C 830.6 48.3 830.9 52 832.5 52 c 1.2 0 1.5 -1.4 1.5 -7 z M 667 34.9 C 667 33.4 660.1 24 658.9 24 c -1.6 0 -1 1.3 2.6 6.8 C 664.9 35.7 667 37.3 667 34.9 Z M 492.4 24.8 C 491.7 17.9 491.4 17 489.8 17 c -0.7 0 -0.8 1.9 -0.3 5.7 0.8 6.6 1.4 8.3 2.7 8.3 0.6 0 0.7 -2.5 0.3 -6.2 z m 345 -3.4 c 1.6 -6.4 1.5 -8.8 -0.3 -6.8 C 836.2 15.6 834 23.9 834 26.4 c 0 3.8 1.9 1 3.4 -5.1 z M 653 15.1 C 653 13.4 644.9 3.9 643.9 4.5 642.8 5.3 643.3 6.2 647.8 11.8 651.1 15.8 653 17 653 15.1 Z M 0 551.1 l 0 -29.9 4.7 -1.6 c 2.6 -0.9 10.9 -2.7 18.5 -4.1 15.5 -2.9 22.9 -5.3 30.3 -10 8.5 -5.4 13.2 -14 14.1 -26 C 70 449.2 48.1 426.6 18 428.3 12.4 428.6 7.9 429.4 4.8 430.8 L 0 432.9 0.1 320.2 C 0.1 252 0.5 208.4 1 209.8 1.5 211 2.4 212 3 212 4.1 212 3.6 209.2 1.3 202.6 0.3 199.5 0 180.1 0 99.4 0 33.8 0.3 0 1 0 1.6 0 2 2.9 2 6.6 2 11.4 2.3 13.1 3.2 12.8 4 12.5 4.6 10 4.8 6.2 L 5.1 0 9.8 0 14.6 0 16.2 11.2 c 4.4 30.1 14.4 38.9 53.2 46.9 19.1 4 39.5 4.5 48.5 1.4 11.7 -4.1 17.1 -12.6 19.1 -29.8 C 138.5 17.3 140.9 4.1 142.1 1.9 143 0.2 144.4 0 155.6 0 l 12.5 0 -2.4 4.8 c -5.1 10 -5.2 21 -0.2 31.7 2.9 6.4 7.4 9.7 16.1 12 13 3.4 20.1 -0.1 40 -19.4 16.2 -15.7 21.3 -19.8 31.7 -25.5 l 6.6 -3.6 13.8 0.3 L 287.4 0.5 273.3 11.7 c -12.2 9.7 -29.8 27 -39.8 39.1 -4.8 5.8 -17 14.8 -29.6 21.9 -8.6 4.8 -14.3 8.9 -19 13.4 -9.8 9.6 -10.6 12.6 -12.7 46 -0.9 14.6 -1.7 33.5 -1.7 42 -0.1 14.2 0.1 15.9 2.3 20.8 6.2 13.8 21 19.5 54.3 20.7 8.4 0.3 30.3 1.5 48.7 2.7 39.2 2.5 45.2 2.1 75 -4.2 30.3 -6.5 39.8 -7.3 53.8 -4.4 10.7 2.2 19 6.5 39.2 20.5 9.6 6.7 23.1 15.5 30 19.7 24.2 14.6 29.1 18.8 33.8 29.1 6.7 14.5 -0.2 40.2 -13 48.7 -9.5 6.3 -16.4 5.4 -40.2 -5.7 -18.8 -8.7 -31.6 -13.1 -47.8 -16.4 -31 -6.3 -43.2 -4 -56.1 10.4 -9.3 10.3 -17.3 26.7 -30.9 63 -8.4 22.5 -12.8 32 -23.3 50.5 -10.8 19 -15 28.3 -25 55 -15.7 42.1 -25.2 60 -39.2 73.8 -7.9 7.8 -10.2 9.5 -19.7 14.3 -10.3 5.3 -19.9 7.4 -36.1 8.1 -22.8 0.9 -37.1 -3.2 -60.8 -17.5 C 93.3 549.6 84.3 546.8 62.5 546.7 36 546.5 25.4 551.3 9 571.2 4.5 576.6 0.7 581 0.4 581 0.2 581 0 567.5 0 551.1 Z M 192.6 568.7 c 1.5 -1.5 -0.8 -1.9 -7.1 -1.2 -8.6 0.9 -8.7 2.9 -0.1 2.4 3.6 -0.2 6.8 -0.7 7.2 -1.1 z M 169 568 c 0 -0.9 -4.1 -2.3 -10.8 -3.6 -5.1 -1 -3.8 1.3 1.6 2.9 5.7 1.7 9.2 2 9.2 0.7 z m 40.5 -4.5 C 214.3 561.4 216.8 559 214.1 559 212.3 559 202 564.2 202 565.1 c 0 1.4 1.5 1.1 7.5 -1.5 z m -63.1 -3.4 c 0.6 -1 -11.3 -8.6 -12.1 -7.8 -1 1 0.8 2.8 5.5 5.8 4.9 3.1 5.8 3.4 6.6 2 z m 53 -7.7 c 13.9 -3.6 24.1 -12.2 29.4 -24.9 4.6 -11 6.5 -19 5.7 -24.5 -1.7 -12.4 -6.8 -20.2 -15.7 -24.2 -11.4 -5.1 -30.1 -2.2 -46.3 7.3 -9.2 5.4 -19.3 15.6 -23.1 23.3 -10.6 21.8 7.7 44.4 36.1 44.5 4.4 0 10.7 -0.7 13.9 -1.5 z m -21.7 -1.5 c -11 -1.9 -21.9 -9.3 -26.4 -18.1 -7.8 -15.5 3.6 -35.3 27.1 -46.9 13.3 -6.6 26.9 -8.7 36.7 -5.8 5.3 1.6 12.2 7.9 14.2 13 2.7 6.6 3.1 15.6 1.1 22.4 -4.5 15.6 -11.1 24.8 -21.5 30.4 -9.6 5.1 -20.4 6.9 -31.2 5.1 z m 49.2 1.7 c 3.1 -2.5 7 -7.9 6.4 -8.9 C 232.9 543.1 223 552.5 223 553.7 c 0 0.8 2.7 0.1 4 -1 z M 127 545.8 C 127 544.4 119.1 536 117.8 536 c -1.9 0 -0.5 2.7 3.4 6.7 4.3 4.4 5.8 5.2 5.8 3.1 z M 15.3 539.6 c 4 -1.9 5.5 -3.1 4.8 -3.8 C 18.8 534.4 8 539.6 8 541.7 c 0 0.8 0.3 1.3 0.8 1.1 0.4 -0.2 3.4 -1.6 6.6 -3.2 z M 242.9 530.1 C 246.4 523.5 246.5 523 244.7 523 243.5 523 238 532.9 238 535 c 0 2.5 2 0.5 4.9 -4.9 z m -204.9 2.5 c 5.2 -1.2 8.3 -3.8 4.4 -3.6 -4.2 0.2 -11.7 2.5 -12.1 3.7 -0.5 1.5 0.7 1.5 7.7 -0.1 z m 26.7 -5.7 C 65.9 526.5 67 525.6 67 525 c 0 -1.2 -0.5 -1.3 -5 -0.1 -1.9 0.5 -4.7 1.2 -6.2 1.5 -1.5 0.3 -2.8 1.1 -2.8 1.7 0 1.2 7.4 0.4 11.7 -1.2 z M 109.3 524.8 c -3.2 -3.4 -8.2 -6.3 -9.2 -5.3 -0.4 0.4 0.7 1.6 2.3 2.8 1.6 1.2 4.1 3.1 5.5 4.3 3.6 3.1 4.7 1.7 1.4 -1.9 z m -24.9 -3.1 c 2.7 -0.7 5.1 -1.9 5.4 -2.6 0.5 -1.4 -0 -1.3 -9 1 -4 1.1 -6 2.9 -3.1 2.9 1 -0 4 -0.6 6.7 -1.3 z M 250.9 510.2 c 2.2 -8.1 2.4 -10.5 1 -10 -1.2 0.4 -3.8 8.9 -3.9 12.6 -0.1 2.8 1.9 1 2.9 -2.6 z M 118.8 494.5 c 6.2 -2.9 9.6 -5.4 21.7 -15.6 20.2 -17.1 29.4 -22.9 46.8 -29.8 12.5 -4.9 21.6 -9.9 26.4 -14.4 4.4 -4.1 4.5 -4.3 4.1 -9.2 -0.6 -7.5 -3.1 -11.7 -14.3 -23.9 -30.3 -33.1 -62.6 -58.9 -94.3 -75.2 C 79.6 311.2 47 311.7 33 327.7 25.2 336.5 21 351.6 21 370.4 l 0 11.5 4 5.1 c 4.1 5.2 10.5 9.8 25.9 18.7 4.6 2.7 10.8 7 13.7 9.7 10.7 9.8 19.3 25.9 24.7 46.7 5.7 21.9 9.1 29.4 14.9 33 4.3 2.6 8.1 2.5 14.5 -0.5 z m -16 -4.5 C 99.1 485.7 95.7 476.9 91.4 460 88 446.7 83.7 436.4 77.5 427 70.5 416 63.2 409.5 49.1 401.5 35.9 394 28.5 388.1 24.9 382.4 22.9 379.1 22.8 378 23.4 367.7 25.3 336.2 34.2 322.6 55.6 318.9 64.4 317.4 79.2 318.3 89 321 c 21.3 5.9 58.3 30 88 57.3 14.3 13.1 33.6 34.1 36 39.2 1.1 2.3 2 5.9 2 8.1 0 3.3 -0.6 4.6 -3.8 7.5 -5.1 4.8 -8.7 6.8 -23.2 12.9 -22.4 9.3 -25.8 11.5 -48.2 30.2 C 124.4 489.1 116.3 494 110.2 494 c -3.5 0 -4.5 -0.6 -7.4 -4 z M 255 482.9 c 0 -4.9 -0.4 -6.9 -1.2 -6.6 -1.2 0.4 -2.3 12.3 -1.3 13.9 C 254 492.4 255 489.3 255 482.9 Z M 253 465.8 C 253 461.9 250.4 453 249.3 453 c -1.5 0 -1.6 0.4 -0.4 5 0.5 1.9 1.2 4.7 1.5 6.2 0.6 2.7 2.6 3.9 2.6 1.6 z m -4 -24.2 c 0 -0.7 1.1 -3.5 2.5 -6.1 2.6 -4.9 2.6 -6.7 0.1 -4.6 C 248.3 433.6 245.5 443 248 443 c 0.6 0 1 -0.6 1 -1.4 z m 19.2 -20.7 C 272.4 418.4 274.4 416 272.4 416 271 416 261 422.2 261 423.1 c 0 1.6 2.4 1 7.2 -2.1 z m 18.5 -14.3 C 290.8 402.6 292.1 400 290.1 400 289.2 400 281 409.3 281 410.4 c 0 1.5 1.9 0.3 5.8 -3.7 z m -23.6 -13.3 c 6.5 -2 18 -10.4 22.9 -16.5 9.5 -12 19.9 -33.4 28 -57.8 5.7 -17.3 8.1 -28.5 8.2 -38.3 0.1 -16.4 -5.4 -24.6 -21.7 -32.2 -19.1 -9 -43.8 -12.7 -70 -10.6 -55.4 4.5 -98.1 19.2 -105 36.3 -5.2 12.9 1.5 29.6 19.8 49.3 9.4 10.1 52.2 48.9 61.6 55.9 15.8 11.7 29.9 16.9 43.6 15.9 4.4 -0.3 10.1 -1.2 12.7 -2 z m -27.9 -1.9 c -10.4 -2.9 -23.8 -10.8 -36.1 -21.4 -25.3 -21.8 -54.1 -49.6 -61.2 -59.2 -10.1 -13.5 -13.8 -25.7 -10.5 -34.4 5.6 -14.7 34.1 -26.6 80.6 -33.6 17.5 -2.6 43.7 -3.6 55.3 -2 19.2 2.6 39.2 9.5 47.5 16.6 8.5 7.2 10.9 19.7 7.3 37.5 -4 19.5 -15.5 49.8 -26.2 68.8 -5.9 10.5 -16.3 20.9 -25.3 25.3 -6.3 3.1 -7.9 3.4 -16.5 3.6 -5.9 0.1 -11.5 -0.3 -14.8 -1.2 z m 27 -19.8 c 15.2 -7 27.6 -25.4 36.3 -54.2 2.3 -7.7 2.8 -10.9 2.8 -21.5 0.1 -11.7 -0.1 -12.9 -2.7 -18.5 -8.2 -17.6 -28 -26.5 -58.6 -26.5 -32.5 0 -64.6 11.3 -75 26.3 -3.8 5.6 -6.5 14.7 -5.8 20.3 0.6 5.5 6.5 17.8 12.5 26.3 6.3 8.9 21.9 24.9 31.8 32.7 9.6 7.5 21.5 14.1 29.9 16.6 9 2.6 21.3 2 28.8 -1.4 z m -23 0.2 c -25.6 -4.5 -64 -39.1 -75.6 -68.1 -2.3 -5.9 -2.5 -7.3 -1.7 -11.7 0.5 -2.8 1.6 -6.6 2.4 -8.5 5 -11.9 23.5 -22.4 48.8 -27.8 14.7 -3.1 38.6 -3.2 51 -0.1 20.6 5.1 31.6 15 34.8 31.3 2.8 14.3 -4.4 41.4 -16.2 61.3 -10.7 18.1 -26.4 26.6 -43.6 23.6 z m 18.3 -18.2 C 272.3 346.2 283.5 324.7 283.4 304 283.3 283.2 273.6 272 252 267.4 c -9 -1.9 -25.3 -1.4 -34.5 1.1 -19 5.2 -31.6 16.7 -33.2 30.3 -2.1 17.3 22.9 48 45.4 55.9 9.2 3.2 20.4 2.8 27.8 -0.9 z m -23.4 -0.3 c -17.1 -4.8 -33.7 -19.8 -43.3 -39.2 -5.1 -10.2 -5.4 -15.3 -1.4 -23.1 C 196.5 277.3 214.3 269 237.4 269 c 27.8 0 41.8 10.3 43.3 32 1.4 20.1 -10.2 43.7 -24.8 50.8 -6 2.9 -15 3.6 -21.8 1.7 z m 11.8 -25.3 c 4.1 -1.9 8.7 -8.1 10.2 -13.5 3.2 -11.9 -6.3 -22.8 -19.8 -22.7 C 224.6 292.1 216 299.2 216 308.8 c 0 4 4.6 12.1 9.1 16.3 6.2 5.8 12.9 6.7 20.8 3.1 z M 231.5 326.4 C 224.6 322.9 219 314.4 219 307.8 c 0 -7.7 10.6 -14.7 20.3 -13.4 5.2 0.7 11 4.7 13 9 6.4 13.4 -8.3 29.7 -20.8 23.1 z M 301 386.8 c 3.4 -5.8 3.6 -6.8 1.8 -6.7 -1.1 0 -6.8 9.4 -6.8 11.3 0 2.2 2.3 0.1 5 -4.5 z m 10 -21.8 c 1.3 -3.3 2.1 -6.3 1.7 -6.7 -1 -1 -2.1 0.6 -4.1 5.7 -1 2.5 -2 5.1 -2.3 5.8 -0.3 0.7 0.1 1.2 0.9 1.2 0.8 0 2.4 -2.7 3.8 -6 z m 8.8 -21.8 c 2.4 -6.2 2.7 -8.2 1.4 -8.2 -1.1 0 -6.1 12.7 -5.4 13.4 1.2 1.2 1.8 0.4 4 -5.2 z m 9.7 -23.4 c 1.5 -3.4 2.1 -6 1.5 -6.3 -1.2 -0.7 -7.1 11.4 -6.3 12.8 0.9 1.4 2 -0.1 4.8 -6.5 z m 10.4 -20.9 c 3.2 -5.9 3.5 -7.8 1.3 -6.4 -1.6 1 -7 10.8 -6.4 11.7 1 1.6 1.9 0.7 5.2 -5.3 z M 7.2 301.2 C 9.9 298.3 12 294.8 12 293.1 12 290.9 10.4 292.2 7.7 296.5 6.1 299 4.4 301 3.9 301 3.4 301 3 301.7 3 302.5 c 0 2.2 1.3 1.8 4.2 -1.2 z M 451.5 290.1 c 5.1 -1.1 2.4 -2.6 -4 -2.3 -6.6 0.4 -7.8 0.8 -7 2.2 0.6 1 6.3 1.1 11 0.1 z m -20.7 -1.3 c -0.5 -1.5 -12.6 -3.8 -13.4 -2.6 -0.8 1.3 -0.1 1.7 4.8 2.7 6.6 1.3 9.1 1.3 8.7 -0.1 z m -75.7 -7.4 c 5.5 -3.4 7.1 -5.8 3.2 -4.7 -4.1 1.1 -12.6 8.3 -9.7 8.3 0.4 0 3.3 -1.6 6.6 -3.6 z m 51.7 2.4 c -0.5 -1.5 -12.5 -4.9 -13.3 -3.7 -0.7 1.1 0.9 2 6.4 3.5 6.1 1.7 7.4 1.7 6.9 0.2 z M 16.1 276.4 c 0.6 -5.5 -0.2 -9.8 -1.3 -7.8 -0.3 0.5 -0.8 4 -1.2 7.7 -0.6 5.5 -0.5 6.8 0.6 6.4 0.8 -0.3 1.6 -2.7 1.9 -6.4 z M 460 279.4 C 460 276.8 454.8 268 453.3 268 c -0.8 0 -1.3 0.3 -1.1 0.8 C 457.2 279.4 460 283.2 460 279.4 Z M 383.8 277.8 c -0.4 -1.3 -12.4 -3.5 -13.4 -2.4 -1.1 1.1 0.3 1.7 5.3 2.6 7.3 1.2 8.6 1.2 8.1 -0.2 z M 447 259.7 c 0 -2.1 -8.7 -10 -10 -9.2 -0.8 0.5 0.4 2.3 3.6 5.6 4.9 5 6.4 5.8 6.4 3.6 z M 90 258.1 c 6.8 -2.6 11.4 -6.3 14.3 -11.4 C 105.6 244.4 111 234.8 116.2 225.5 138.2 186.5 144 170.6 144 150 144 131.5 138.6 117.5 127.1 106.1 119.4 98.3 110.8 93.5 95.9 88.6 79 82.9 70.4 81.5 53.5 81.5 36 81.5 27.6 83.5 19.7 89.5 14 93.9 8.8 104 6.4 115.5 3.8 127.9 4 154.7 6.8 166.8 11 185.1 20.2 204.1 37.1 229 c 13.1 19.4 20.1 26 31.4 29.6 6.1 1.9 15.7 1.7 21.5 -0.5 z M 72.1 257 C 58.4 254.2 48.4 243.7 29.7 212.8 11.5 182.7 6.2 164.6 7.3 136.2 8.4 106.4 14.6 92.7 29.4 87.1 c 19.4 -7.2 55.3 -2.8 80.8 10 27.7 13.9 38.3 44.4 27.2 78.8 -3.2 9.8 -12.9 29.9 -23.1 47.6 -4.4 7.7 -9.2 16.2 -10.6 19 -1.4 2.8 -3.8 6.2 -5.4 7.7 -5.9 5.6 -17.3 8.6 -26.2 6.8 z M 87.3 212.9 c 17.3 -6.8 34 -27 39.2 -47.3 3.3 -13.1 1.3 -29.3 -4.8 -39.8 C 115.1 114.5 99.3 103.9 81.5 98.8 70.1 95.6 51.1 95.6 42.9 98.8 28.4 104.6 21.1 117 19.5 138.6 17.8 160.7 26.2 182.2 43 199 c 9.1 9.1 16.8 13.8 27 16.3 5.8 1.5 8.2 1.1 17.4 -2.5 z M 67.8 212.1 C 52 207 38.5 194.2 29.5 175.6 23.9 164.2 22 156.1 22 144 c 0 -22.1 6.8 -36 20.5 -42.2 7.4 -3.4 25.1 -3.8 36.6 -1 38.6 9.6 55.3 38.3 42.1 72.4 -7.1 18.3 -22.5 33.6 -39 38.7 -7.6 2.4 -7.2 2.4 -14.4 0.1 z m 20.5 -24.3 c 8 -3.7 15.8 -11.4 19.4 -19 2.6 -5.5 2.9 -7.3 2.9 -16.2 0 -8.9 -0.3 -10.7 -2.9 -16.2 C 103.9 128.3 97.1 121.8 87.5 117.4 73.1 110.7 59.9 110.6 48.5 116.9 c -4.3 2.4 -5.5 3.8 -9 10.6 -3.9 7.5 -4 8.1 -4 17.4 0 7.6 0.5 10.8 2.3 15.4 5.2 13.1 15.7 24.4 26.6 28.8 7 2.8 16.1 2.3 23.8 -1.2 z M 68.3 187.6 C 53.5 182.8 41 167.9 37.9 151 c -1.5 -8.2 -0.2 -15.1 4.4 -23.5 2.7 -4.9 4.3 -6.6 8.7 -9 5.1 -2.8 6.1 -3 16 -3 10.5 0 10.7 0 19.3 4.3 4.8 2.4 10.4 6 12.5 8.1 10.1 10.1 12.5 27.2 5.9 41 -6.5 13.5 -24.3 22.6 -36.5 18.7 z M 16 257 C 16 253.3 13.8 245 12.8 245 c -1 0 -0.2 11.4 0.9 13.2 C 14.5 259.7 16 259 16 257 Z m 413 -13 c 0 -1.2 -8.9 -7 -10.8 -7 -2.3 -0 -0.8 1.8 3.8 4.9 4.7 3.1 7 3.8 7 2.1 z m -92.5 -6.9 c 0.9 -1.5 -0.5 -1.9 -7.4 -2.2 -7.4 -0.3 -9.9 1.7 -2.8 2.4 8.4 0.8 9.7 0.7 10.3 -0.2 z M 357.2 235.4 c 1.5 -0.3 2.8 -1 2.8 -1.6 0 -0.7 -2.1 -0.8 -6.2 -0.3 -6.9 0.8 -8.1 1.2 -7.2 2.7 0.6 0.9 2.8 0.8 10.7 -0.8 z M 312.2 234.5 c 0.2 -1.2 -4.2 -2.2 -10.2 -2.4 -5.8 -0.2 -4.2 1.7 2.6 2.8 5.8 1 7.4 0.9 7.6 -0.5 z M 11 234.2 c -0 -0.8 -2.6 -9.5 -3.5 -12.2 -0.3 -0.9 -0.9 -1.1 -1.5 -0.5 -0.8 0.8 0.3 6.2 2.5 12.1 0.5 1.3 2.5 1.7 2.5 0.5 z M 408 233.1 C 408 232.3 397.7 229 395.1 229 c -0.7 0 -1.1 0.5 -0.9 1.2 0.7 2.1 13.8 4.9 13.8 3 z m -24.6 -2.2 c 1.9 -1.7 -0.5 -2.2 -6.6 -1.3 -8.6 1.2 -9.2 3.6 -0.7 2.8 3.5 -0.3 6.8 -1 7.3 -1.5 z M 289 231.1 c 0 -1.2 -1.8 -1.8 -8.3 -2.6 -3.9 -0.5 -5.7 -0.4 -5.7 0.4 0 0.6 1 1.3 2.2 1.6 1.2 0.3 3.1 0.7 4.2 0.9 3.7 0.8 7.5 0.7 7.5 -0.2 z m -96.2 -3.2 c -0.5 -1.6 -13.1 -1.6 -13.6 -0.1 C 178.9 228.7 180.9 229 186 229 c 4.8 0 7 -0.4 6.8 -1.1 z m 20 0.1 c 3 -0 4.2 -0.4 3.9 -1.3 -0.3 -0.9 -2.3 -1.1 -6.8 -0.9 -3.5 0.2 -6.6 0.5 -6.8 0.7 -1 1 1.4 2.6 3.2 2.1 1.2 -0.3 4.1 -0.6 6.5 -0.6 z m 51.9 -0.7 C 265.1 226.3 258.5 225 253.3 225 c -4.7 0 -1.6 2.5 3.8 3.1 6.5 0.7 7.2 0.6 7.6 -0.8 z m -96 -0.6 c -0.2 -0.7 -2.4 -1.6 -4.8 -2.1 -2.4 -0.5 -5 -1.3 -5.7 -1.9 -1.9 -1.6 -2.8 0.1 -1 1.9 2.6 2.6 12.3 4.4 11.6 2.1 z M 241 226 c 0 -0.6 -3 -1 -7 -1 -4 0 -7 0.4 -7 1 0 0.6 3 1 7 1 4 0 7 -0.4 7 -1 z m -89.8 -19.2 c -0.4 -6.9 -1.7 -8.8 -2.8 -4.2 -0.6 2.5 0.2 9.9 1.3 11.7 1.3 2 1.9 -1.1 1.6 -7.5 z m 2.9 -23.1 c 1.1 -5.3 0.8 -7.9 -0.7 -6.4 -0.9 0.9 -3.2 12.6 -2.6 13.2 1.1 1.1 2.2 -1.2 3.3 -6.8 z M 158.4 163.2 c 0.9 -5.5 0.8 -10.2 -0.3 -10.2 -0.5 0 -1.2 1.7 -1.5 3.8 -1.6 10.2 -1.6 10.2 -0.2 10.2 0.9 0 1.7 -1.5 2 -3.8 z m 0.5 -26.7 c -0.2 -3.6 -0.7 -6.8 -1.1 -7.2 -1.5 -1.5 -1.9 0.8 -1.2 7.1 0.9 8.6 2.9 8.7 2.4 0.1 z m -5 -23.3 c -2.2 -6.1 -3.4 -8 -4.4 -7 -0.3 0.3 0.4 3.2 1.5 6.4 2.6 7 2.9 7.6 4.1 6.9 0.5 -0.3 -0 -3.1 -1.2 -6.3 z M 145 97 c 0 -1.8 -9 -10.1 -10.1 -9.4 -0.6 0.4 0.8 2.6 3.7 5.5 C 143.4 98 145 98.9 145 97 Z M 125.8 82.8 c -0.6 -1.8 -11.9 -5.1 -13.1 -3.8 -0.6 0.6 -0.5 1.1 0.4 1.4 0.8 0.2 3.4 1.1 5.9 2 5.7 1.9 7.3 2 6.8 0.4 z M 103 76 C 103 75.1 94.5 73 91 73 86.8 73 89.3 74.9 95.2 76.2 101.5 77.7 103 77.6 103 76 Z M 79.3 71.5 C 79.6 70.2 66.8 67.9 65.6 69 64.5 70.1 65.5 70.5 72 71.9 c 5.2 1.1 7 1 7.3 -0.3 z M 55.8 67.8 c -0.5 -1.4 -11.1 -3.2 -13.5 -2.3 -2.6 1 -0 2.4 5.3 2.8 2.8 0.2 5.8 0.5 6.8 0.6 1.1 0.1 1.7 -0.3 1.4 -1.1 z M 32 65.1 c 0 -0.5 -2.8 -1.4 -6.3 -2 C 17.8 61.7 17.7 61.7 18.2 63.2 18.9 65.4 32 67.1 32 65.1 Z M 9 58.1 C 9 57.6 8.3 56.7 7.5 56 6.7 55.3 5.5 53 5 50.9 3.9 46.9 2 45.5 2 48.8 2.1 51.8 5.9 59 7.5 59 8.3 59 9 58.6 9 58.1 Z M 3.4 31.8 C 4.3 24.1 4.2 23 2.5 23 1.3 23 1 24.4 1 30 c 0 8.2 1.4 9.3 2.4 1.8 z M 948.1 569.5 c -20.7 -4.5 -42.6 -17.2 -46.8 -27.2 -5.7 -13.7 7.5 -34.9 33.3 -53.5 11.6 -8.3 22.9 -14 39.7 -19.7 17.1 -5.9 22.9 -8.8 34.1 -17 4.4 -3.2 11.2 -8.2 15.2 -11 l 7.2 -5.1 0 41.4 0 41.4 -4 1.8 c -6.5 2.9 -13.8 11.2 -20.8 23.6 -10.2 18.1 -14 22 -25.1 25.3 -6.6 2 -23.9 2 -32.9 0 z m 22.5 -22 c 5.9 -2.9 9.9 -7.6 14.4 -17 5.9 -12.3 7.5 -24.3 4.2 -30.5 -9.5 -17.7 -54.5 -5.1 -63.2 17.7 -5.1 13.4 -2 21.9 10.1 28.1 3.6 1.8 8.5 3.7 11 4.2 7.4 1.5 17.6 0.5 23.6 -2.5 z m -27.9 -1.4 c -6.7 -2.2 -12 -6 -14.9 -10.5 -4.3 -6.9 -0.1 -20.8 8.8 -28.6 12 -10.6 33.3 -15.9 44 -11.1 6.4 2.9 7.7 5.6 7.1 14.8 -0.8 13.6 -9.5 30.1 -18.2 34.6 -5.7 2.9 -19.1 3.3 -26.8 0.7 z M 0 500.1 l 0 -17.9 2.8 2.8 c 2.7 2.7 8.5 5 12.7 5 7.8 0 18.8 -6.6 21.4 -13 4 -9.6 -7.1 -20.2 -18.8 -18 -5.6 1 -12.7 5.5 -15.6 9.8 L 0 472.5 0 454.2 0 435.9 5.2 433.5 c 10.5 -4.9 23.9 -4.1 36.7 2 8.8 4.2 14.1 9.7 18.9 19.3 3.7 7.5 3.7 7.6 3.7 20.1 0 11.7 -0.2 12.9 -2.7 17.6 -6 11.3 -15.6 16.4 -39.1 20.5 -6.5 1.1 -13.9 2.7 -16.5 3.5 C 3.6 517.3 1.2 518 0.8 518 0.3 518 0 509.9 0 500.1 Z M 7.3 485 c -1.8 -1.1 -3.9 -3.1 -4.9 -4.5 -1.6 -2.4 -1.5 -2.8 0.7 -7.3 6.1 -12.2 21.8 -16 29.3 -7.1 5.1 6.1 2.3 13.8 -6.6 18.2 -6.6 3.3 -13.9 3.5 -18.6 0.7 z M 548.3 358 c -6 -1.2 -11.8 -4.4 -14.4 -8 -4.4 -6.2 -3.6 -16.9 3.1 -40.3 4.8 -16.7 5.2 -26.2 1.9 -37.3 C 533.6 255.1 521.2 244.1 495 233.5 c -16.9 -6.8 -26.6 -12.3 -45 -25.1 -18.7 -13.1 -22.5 -15.2 -33 -18.5 -6.3 -2 -9.6 -2.3 -20.5 -2.3 -14.8 0 -19.8 0.9 -50.5 9.1 -27.7 7.3 -39.1 8.7 -65 8.1 -20.1 -0.5 -46.6 -3.3 -59.6 -6.2 -14.5 -3.3 -24.3 -9.3 -28.4 -17.4 -4.6 -9.1 -5.5 -29.4 -2 -46.4 5.1 -24.8 9.8 -31.5 39.7 -55.6 9.6 -7.8 20.4 -17.8 29.5 -27.4 C 268.1 43.5 283.5 28.5 294.5 18.4 l 20 -18.3 9.3 -0 c 6 -0 9.1 0.3 8.7 1 -0.3 0.5 -9.7 8.8 -20.9 18.4 -11.1 9.6 -30.8 27.4 -43.7 39.8 C 255 71.4 239.1 86.5 232.6 92.5 c -12.7 11.7 -21 21.3 -24.5 28.3 -6.4 12.8 -8.5 36.2 -4.2 47.2 6.9 17.6 23.6 24.7 66.9 28 26.6 2 42 -0.1 79.1 -10.9 9.2 -2.7 23.1 -6.4 30.8 -8.2 12.5 -3 15.6 -3.3 29 -3.4 14.1 -0 15.4 0.1 21.3 2.6 3.4 1.5 8.2 4 10.5 5.6 30.4 20.9 33.5 22.4 46.1 22.6 7.6 0.1 7.9 0 10.7 -3.1 4.5 -5 5.4 -9.9 3.5 -19.8 -1.9 -10.2 -7.2 -25.6 -12.9 -37.9 C 481.6 128.8 454 76.7 443.8 59.4 430.6 36.9 426.6 25.7 424.6 6.2 L 423.9 0 433 0 442 0 l 0 7.9 c 0 16.3 5.2 32.1 17.7 53.8 14.7 25.6 29.2 51.9 42.3 77.3 15.5 29.9 19.3 36 27 43.4 7.3 6.9 15.9 11.2 26 12.7 8.9 1.4 15.9 0.7 26.2 -2.6 10.9 -3.4 27.4 -5 36.9 -3.6 7.7 1.2 19.6 5.9 31.6 12.6 8.8 4.9 20.9 16.9 25.7 25.6 8 14.4 12 33.3 12.1 56.9 0.1 17.8 -0.5 19.3 -9.2 24.8 -6.6 4.2 -12.6 5.9 -28.7 8.2 -27.9 4.1 -32.7 6 -42.4 16.7 -8.1 9 -17.9 17.1 -24.9 20.7 -8 4 -23.4 5.7 -33.9 3.6 z m 62.7 -58.8 c 4.9 -1.8 22.9 -13.1 31.3 -19.7 10.1 -7.9 16.1 -24.9 13.7 -38.6 -3.4 -18.8 -17.1 -32.5 -36 -36 -7 -1.3 -9.4 -0.9 -28.6 4.3 l -12 3.3 -7.1 7.1 C 565 226.8 562 232.7 562 239.6 c 0 4.4 3.2 14.4 9 27.9 2.7 6.3 5.8 14.5 6.9 18.2 2.6 8.5 4.3 11 9.5 13.4 5.3 2.4 17.3 2.4 23.7 0.1 z m -20.5 -1.7 c -5.8 -2.1 -7.2 -4 -11.5 -16.1 C 577 275.4 573 265.3 570.4 259 566 248.6 565.5 246.8 565.5 239.9 c 0 -7.2 0.2 -7.9 3.9 -13.3 6 -8.7 10.7 -11.7 24.3 -15.6 9.8 -2.8 13.4 -3.4 21.3 -3.3 8.3 0 10.2 0.4 15.2 2.8 8.8 4.2 15.2 10.6 19.5 19.4 3.6 7.3 3.8 8 3.7 17.7 -0.1 18.4 -4.2 24.6 -25.9 39 -18.2 12.1 -26.8 14.7 -37 11 z M 477.5 200.6 c -6.6 -2.1 -13.4 -6 -24.5 -13.9 -29.8 -21.3 -42.2 -21.7 -105.4 -3.6 -34.3 9.8 -36.7 10.2 -62.1 10.3 -47.1 0.1 -71.1 -7.5 -78.5 -24.7 -4.1 -9.5 -3.7 -27.6 1.1 -41.4 3 -8.7 9.7 -17 27.2 -33.5 8.9 -8.4 22.3 -21.2 29.8 -28.4 21.7 -21 30.7 -29.2 47.1 -43.1 8.5 -7.2 17.4 -15.2 19.9 -17.7 L 336.4 0 l 42.6 0 42.6 0 0.5 7.8 c 1 13.9 6.1 30 14 43.8 1.9 3.3 6.8 11.8 10.9 19 11.9 20.6 39.3 74 43.8 85.3 8.8 22 10.8 36.4 6.1 43.1 -2.2 3 -2.5 3.2 -8.9 3.1 C 484.5 201.9 479.7 201.3 477.5 200.6 Z M 295.8 183.5 c 0.7 -0.2 1.2 -0.9 1.2 -1.5 0 -0.8 -2 -0.9 -6.8 -0.4 -7.4 0.8 -7.7 0.9 -6.9 2.2 0.5 0.8 9.4 0.6 12.4 -0.3 z M 273 183.1 c 0 -0.8 -4.2 -1.7 -11.4 -2.4 -3.1 -0.3 -3 2.1 0.1 2.6 5.5 0.8 11.3 0.7 11.3 -0.2 z m 42.8 -3.1 c 2.9 -0.7 5.2 -1.6 5 -2.2 -0.4 -1.3 -0.9 -1.3 -7.8 0.2 -3.9 0.8 -6 1.8 -6 2.7 0 0.9 0.7 1.2 1.8 1 1 -0.3 4.1 -1 7 -1.7 z M 250 179.1 c 0 -0.5 -2.9 -1.8 -6.5 -3 -7.6 -2.5 -7.8 -2.5 -7.3 -1 0.4 1.2 9 4.6 12 4.7 1 0 1.8 -0.3 1.8 -0.8 z m 93.9 -7.7 c 0.2 -0.2 0.1 -0.7 -0.3 -1.3 -0.4 -0.6 -2.9 -0.2 -6.9 1.1 -7.2 2.4 -7.1 2.3 -6.3 3.6 0.5 0.8 11.8 -2.1 13.4 -3.4 z m -40.6 -2.9 c 10.3 -1.8 21.2 -5.5 53.9 -18.5 29.4 -11.7 33.9 -14.1 43.6 -23.3 C 412.8 115.2 415.9 104.6 411.6 89.5 406.7 72.5 389 52.3 374.5 47.3 c -6.5 -2.3 -19.8 -2.2 -28.5 0.2 -15.5 4.2 -36.6 17 -62.7 38 -25.8 20.7 -39.5 35.7 -42.8 46.9 -1.7 5.6 -1.1 16.3 1.1 20.6 4 7.8 16.2 14.3 30.9 16.3 7.2 1 22.9 0.6 30.7 -0.8 z M 266.5 165.3 c -8.8 -1.9 -17.9 -6.7 -21.3 -11.2 -2.2 -2.9 -2.7 -4.7 -3 -11.4 -0.3 -7.2 -0.1 -8.4 2.9 -14.6 8 -16.6 56.7 -57.4 85.5 -71.6 18.6 -9.2 34.9 -11 46.8 -5.2 11.5 5.6 25.5 21.7 30.8 35.4 1.6 4.2 2.2 7.9 2.3 14.2 0.1 8 -0.1 8.9 -3.4 14.4 -4 6.6 -11.2 13.5 -19.6 18.5 -5.7 3.4 -45.8 19.9 -64.9 26.7 -5.5 1.9 -13.3 4.2 -17.3 5 -9.4 1.8 -29.6 1.7 -38.7 -0.2 z m 45 -20.4 c 24.8 -8.3 51.8 -25.7 57.6 -37 1.1 -2.1 1.9 -5.8 1.9 -8.4 0 -4.1 -0.5 -5.1 -4.5 -9.4 -6.2 -6.6 -8.5 -7.4 -20.2 -6.8 -20 1 -46 13.1 -63.6 29.7 -10.2 9.6 -13.1 14.3 -12.9 20.8 0.2 6.6 1.9 9.4 7.7 12.2 9.3 4.5 18.2 4.2 34 -1.1 z m -26.7 1.1 C 275.7 143.7 272 140 272 133.4 c 0 -3.3 0.9 -5.3 4.3 -10.1 15.1 -20.5 55.9 -40.5 77.2 -37.9 4.5 0.6 6.2 1.4 10.1 4.9 4.4 4 4.6 4.5 4.6 9.4 0 6.8 -2.6 10.9 -11.1 17.7 -22.7 18.2 -58 32.1 -72.4 28.5 z M 228 167.4 c 0 -0.3 -0.9 -1.7 -2 -3.1 -1.1 -1.4 -2 -3.1 -2 -3.8 0 -1.6 -2.8 -4 -3.7 -3.1 -0.7 0.7 1.9 5.8 4.5 8.9 1.5 1.7 3.2 2.3 3.2 1.2 z m 132.2 -1.2 c 6.4 -2 7.7 -2.9 5.7 -3.7 -1.9 -0.7 -12.1 2.8 -12.7 4.3 -0.5 1.5 0.2 1.5 7 -0.6 z m 22.9 -6.8 c 6.6 -1.9 7.4 -2.4 6.3 -3.5 -1.1 -1.1 -12.6 2.3 -13.1 3.9 -0.5 1.6 0.3 1.5 6.8 -0.4 z m 24.1 -7 C 412.7 150.8 415 149 411.4 149 408.5 149 399 152.1 399 153.1 c 0 1.3 1.5 1.2 8.2 -0.7 z M 221 146 c 0 -7.2 -1.3 -9.3 -2.5 -4 C 217.7 145.6 218.8 153 220.1 153 220.6 153 221 149.8 221 146 Z m 207 -1.5 c 4.8 -2.4 6.7 -4.2 5.7 -5.1 -0.8 -0.8 -11.6 5 -11.7 6.4 -0.1 1.7 0.3 1.6 5.9 -1.2 z M 443.9 129.2 c 1.3 -4.6 1.4 -10.2 0.2 -10.2 -0.5 0 -1.1 1.7 -1.5 3.8 -0.3 2.1 -0.9 5.2 -1.3 7 -0.9 4.6 1.2 4.2 2.5 -0.5 z M 228.3 124 c 2 -3.4 3.1 -6.3 2.6 -6.6 -1.2 -0.7 -0.9 -1 -4.7 5 -1.7 2.7 -3.1 5.5 -3.1 6.2 0 2.7 1.8 1.1 5.3 -4.7 z m 14.5 -18.3 C 246.6 101.8 248.1 99 246.3 99 245 99 237 107.4 237 108.7 c 0 2.2 1.4 1.5 5.8 -3 z M 444 107.7 C 444 104.4 440.8 96 439.6 96 c -1.3 0 -0.7 3.2 2 11.8 0.5 1.7 2.5 1.6 2.5 -0.1 z M 260.5 88.9 C 264.8 84.9 266 83 264.1 83 262.9 83 254 91 254 92.1 c 0 1.9 2.2 0.8 6.5 -3.2 z M 436 86 C 436 84.4 430.6 74 429.8 74 c -1.4 0 -0.8 2.4 2 7.7 2.6 4.9 4.2 6.6 4.2 4.3 z M 278.5 72.9 C 282.8 68.9 284 67 282.1 67 280.9 67 272 75 272 76.1 c 0 1.9 2.2 0.8 6.5 -3.2 z M 425 65 c 0 -2 -7.1 -12 -8.1 -11.4 -0.9 0.6 0 2.6 4.9 10.2 C 423.3 66.1 425 66.7 425 65 Z M 296.4 57.2 c 4.1 -3.4 5.9 -6.3 3.9 -6.2 -1.2 0 -10.2 8 -10.2 9.1 0 1.7 1.9 0.9 6.4 -2.8 z M 314.9 41.9 C 319.7 38.1 321.2 36 319.1 36 317.8 36 308 44 308 45.1 c 0 1.7 1.7 0.9 6.9 -3.2 z M 412 44.1 C 412 42.6 405.8 33 404.9 33 c -1.6 0 -0.9 2.3 2.3 7.2 C 410 44.7 412 46.3 412 44.1 Z M 339.4 22.9 c -0.6 -1 -3.1 0.2 -9.2 4.8 -5.7 4.3 -2.4 4.5 3.9 0.2 3.3 -2.2 5.7 -4.5 5.3 -5.1 z M 400 23.7 C 400 21.5 393.9 13 392.3 13 c -1.8 0 -1.8 0 2.6 6.8 C 398.3 24.9 400 26.3 400 23.7 Z m -40 -12.4 c 0 -0.7 -0.7 -1 -1.7 -0.6 -1.6 0.6 -3.1 1.4 -9 5 -1.3 0.8 -2 1.8 -1.7 2.3 0.8 1.2 12.4 -5.1 12.5 -6.8 z M 383 6.9 c 0 -1.4 -4.7 -2.2 -9.1 -1.6 -4.3 0.6 -5.3 1.1 -4.6 2.4 C 370 8.8 383 8.1 383 6.9 Z M 662.5 155.6 c -5 -1.3 -13 -3.8 -17.9 -5.6 -4.9 -1.8 -13.4 -4.5 -18.9 -6.2 -10.3 -3.1 -13 -4.5 -20.5 -11.1 -6.7 -5.8 -15.3 -9.6 -26.9 -11.8 C 561.5 117.9 549.5 110.1 540.4 96.6 533.8 86.9 526 63.3 522.9 44 521.2 33.9 521.2 15 522.9 6.8 L 524.2 0 542.2 0 560.2 0 558.6 2.2 c -6.2 8.4 -10.6 25.2 -10.6 40.8 -0 16.6 5.2 32 14 40.9 5.6 5.7 9.7 7.7 19.1 9.1 9.4 1.4 17.7 5.4 25.4 12.3 8.3 7.4 38.2 22.9 47.7 24.7 12.5 2.3 17.2 -0.5 17.2 -10.4 -0 -6.9 -3 -13 -15.5 -31.6 C 650.3 79.5 644.1 69.1 642.2 65 640.3 60.9 637.1 55 635 52 633 49 628.5 41.2 624.9 34.7 618.7 23.2 613.2 15.4 604.2 5 L 599.8 0 l 10.5 0 10.5 0 2.7 4.7 c 1.5 2.6 6.4 9.2 10.9 14.8 37.1 45.8 70.5 105.1 70.5 125.3 0 9.8 -4.5 12.5 -22 13 -9.7 0.3 -12.9 -0.1 -20.5 -2.1 z m -10.8 -28.7 C 643.4 125 614.2 109 606.8 102.4 599.1 95.5 592.6 92.4 581.7 90.6 571.8 88.9 567.7 86.8 562.5 80.7 554.5 71.3 550.9 59.6 550.9 43 550.9 25.3 555.1 9.7 561.7 2.8 l 2.6 -2.8 15.7 0 15.7 0 6.6 7 c 7.6 8 14.3 17.8 21.2 30.5 2.7 5 6.8 12.1 9.2 15.8 2.4 3.7 5.6 9.6 7.2 13 1.6 3.4 7.5 13.2 13.1 21.7 12.1 18.2 16 25.9 16 31.5 0 6.4 -2.1 8.5 -8.3 8.4 -2.9 -0.1 -6.9 -0.5 -9 -1 z m 98.1 -8.9 C 733.7 113.9 726.2 104.7 683.1 36.6 672.2 19.5 662.6 4.3 661.6 2.8 L 659.8 0 l 6 0 6 0 5.7 10.2 c 3.1 5.6 14.9 24.1 26.2 41 22.8 34 31 43.5 42.8 49.3 5.3 2.6 7 2.9 15.5 2.9 8.7 0 10.1 -0.3 16.1 -3.3 8.7 -4.3 17.8 -14 22.5 -23.7 2.2 -4.6 4.6 -12.8 6.9 -23.1 C 809.5 44.7 813.4 29.1 816.2 18.8 L 821.3 0 l 4.4 0 c 3.8 0 4.3 0.2 3.8 1.8 -0.4 1 -2.2 7.1 -4.1 13.6 -4.4 15.3 -7 30.5 -8.4 48.9 -1.2 17.2 -2.2 22 -5.5 28.5 -7.2 14 -27.7 24.9 -48.6 25.7 -5.2 0.2 -11.2 -0 -13.3 -0.6 z m 6.1 -17 C 742 98.6 730.7 87.2 707.6 52.7 691.1 28.1 681.3 12.5 677.1 4.2 L 675 0 l 5.4 0 5.4 0 2.2 5.5 c 1.2 3 5.7 11.3 9.9 18.3 21 34.9 40.2 56.2 55.4 61.1 5 1.6 14.1 0.9 19.1 -1.5 5.7 -2.7 13.5 -10.9 17.4 -18.3 C 793.8 57.7 802.4 31.7 807.1 13.2 L 810.5 0 l 4.1 0 4.1 0 -4.4 15.8 c -2.4 8.7 -6.2 23.9 -8.4 33.8 -5.7 25.4 -11.9 37.5 -23.6 45.6 -7.8 5.4 -17.5 7.5 -26.6 5.9 z M 887.6 92.4 C 868.2 87.7 853.4 73.3 849.4 55.1 846.4 41.9 849.9 21.7 857.7 6.8 L 861.2 0 876.4 0 891.5 0.1 885.7 3.2 c -18.2 9.9 -25.9 31.4 -17.5 48.7 6.6 13.7 26.4 23.9 41.2 21.2 8.5 -1.6 16.3 -5.2 33.8 -15.8 C 952.2 51.9 965.1 44.6 972 41 991.1 31.2 998.9 22.1 1002 6.2 l 1.2 -6.2 8 0 8 0 -0.7 6.8 c -1.5 15.2 -4.9 24.7 -12.1 34.9 -5.2 7.2 -12.3 12.7 -26.9 20.4 -5.5 2.9 -15.5 8.4 -22.1 12.1 -16.5 9.3 -29.4 15.3 -38.3 17.8 -8.9 2.4 -22.4 2.6 -31.4 0.5 z M 749.2 80.4 C 742.6 77.1 729.5 64.9 722 55 709.7 38.8 689 5.1 689 1.1 689 0.4 691 0 694.3 0 l 5.3 0 4.8 9.8 c 6.7 13.6 14.4 24.8 23.7 34.7 19.6 20.7 32.5 23.8 46 10.9 8.9 -8.5 18 -27.7 22.4 -47.6 l 1.7 -7.8 4.8 0 4.8 0 -1.4 6.2 c -4.1 18.1 -13.6 47.4 -18.5 57.1 -3.7 7.4 -10.7 15 -16.3 17.6 -6.3 3 -15.7 2.8 -22.4 -0.6 z M 893 69.2 C 858 57.6 859 15.4 894.6 2.1 899.9 0.1 902 0 950.2 0 l 50.1 0 -0.6 5 c -0.3 2.8 -2 7.9 -3.6 11.4 -4.6 9.5 -11.7 15.5 -29.6 24.9 -8.2 4.3 -21.1 11.6 -28.7 16.2 -7.6 4.6 -16.3 9.4 -19.5 10.6 -7.9 3 -18.2 3.5 -25.2 1.1 z M 744.9 55.8 C 731.3 46.7 717.3 29.6 707.6 10.3 705.1 5.2 703 0.8 703 0.5 c 0 -0.3 3 -0.5 6.8 -0.5 l 6.8 0 4.7 9.2 C 730.3 27.1 742.8 38 754.1 38 760.6 38 768.5 33 773.4 25.6 776.5 20.9 781 9.5 782.5 2.8 783 0.1 783.3 0 789.1 0 l 6.1 0 -0.6 3.8 C 792.4 18 782.7 41.2 775.1 50.7 769.8 57.5 764.9 60 757.2 60 751.9 60 750.6 59.6 744.9 55.8 Z M 85 58.3 C 60.1 54.4 43.7 49.7 35.7 44.1 24.8 36.6 21 28.2 17.6 3.8 L 17.1 0 23.4 0 29.7 0 31.4 6.1 C 36.5 24.5 46 34.7 63.4 40.5 c 21 7 40.1 3 48.3 -10.2 3.9 -6.2 4.6 -8.1 9.2 -26 l 1.1 -4.2 8.9 0 8.9 0 -1.5 4.8 c -0.8 2.6 -2.1 10.4 -3 17.2 -2 17 -2.4 18.8 -5.1 24.3 -2.7 5.4 -7.7 9.1 -14.9 11.3 C 111 58.9 91.7 59.4 85 58.3 Z m 94.2 -13.2 c -6.6 -2.4 -9.4 -5 -12.4 -11.5 -1.8 -4 -2.3 -7 -2.3 -13.2 -0 -7 0.4 -8.7 3.1 -14 l 3.1 -6 L 212.1 0.2 253.5 -0 245.6 5 c -4.9 3.1 -13.9 10.9 -23.5 20.3 -9.5 9.2 -17.7 16.3 -20.9 18 -7 3.7 -14.7 4.4 -21.9 1.8 z M 67.2 39 C 57.2 36.4 50.8 32.7 44.6 25.9 39.3 20.2 34.9 11.5 33.5 3.7 L 32.8 0.1 65.4 0 98.1 -0 96 3.9 C 93.6 8.6 93.6 9 95.3 9 96 9 97.6 7 98.8 4.5 L 101 0 110 0 C 114.9 0 119 0.2 119 0.5 119 4.2 113 23.2 110.6 27.2 107.1 33.2 100.7 38.4 95.2 40 89.3 41.6 75.3 41.1 67.2 39 Z m 19.3 -20.4 c 3.4 -2.2 2.2 -4 -1.4 -2.2 -1.5 0.8 -4.4 1.7 -6.4 2.1 C 76.7 18.9 75 19.7 75 20.2 c 0 1.5 8.5 0.3 11.5 -1.7 z M 64.1 16.1 c -1.2 -0.9 -3.8 -2.9 -5.7 -4.5 -1.9 -1.6 -3.7 -2.6 -4.1 -2.2 -0.8 0.8 3.4 5.4 7.1 7.7 3.5 2.2 5.9 1.3 2.7 -1 z M 745.4 33.1 C 737.4 29.5 730.2 21.4 723.6 8.5 721.6 4.6 720 1.2 720 0.8 720 0.3 733.6 0 750.1 0 l 30.1 0 -0.7 3.7 c -1.7 9 -5.8 17.8 -11.1 24.2 -5.7 6.7 -14.9 8.8 -22.9 5.2 z" inkscape:connector-curvature="0" class="style1"/></g><g transform="translate(-186.78944,-468.25396)"/></svg>