<?xml version="1.0" encoding="UTF-8" standalone="no"?>
<!-- Created with Inkscape (http://www.inkscape.org/) -->

<svg
   xmlns:dc="http://purl.org/dc/elements/1.1/"
   xmlns:cc="http://creativecommons.org/ns#"
   xmlns:rdf="http://www.w3.org/1999/02/22-rdf-syntax-ns#"
   xmlns:svg="http://www.w3.org/2000/svg"
   xmlns="http://www.w3.org/2000/svg"
   xmlns:sodipodi="http://sodipodi.sourceforge.net/DTD/sodipodi-0.dtd"
   xmlns:inkscape="http://www.inkscape.org/namespaces/inkscape"
   id="svg4712"
   version="1.1"
   inkscape:version="0.91 r13725"
   width="20.938465"
   height="32.389675"
   viewBox="0 0 20.938465 32.389675"
   sodipodi:docname="pin-food.svg">
  <metadata
     id="metadata4718">
    <rdf:RDF>
      <cc:Work
         rdf:about="">
        <dc:format>image/svg+xml</dc:format>
        <dc:type
           rdf:resource="http://purl.org/dc/dcmitype/StillImage" />
        <dc:title></dc:title>
      </cc:Work>
    </rdf:RDF>
  </metadata>
  <defs
     id="defs4716" />
  <sodipodi:namedview
     pagecolor="#ffffff"
     bordercolor="#666666"
     borderopacity="1"
     objecttolerance="10"
     gridtolerance="10"
     guidetolerance="10"
     inkscape:pageopacity="0"
     inkscape:pageshadow="2"
     inkscape:window-width="1680"
     inkscape:window-height="988"
     id="namedview4714"
     showgrid="false"
     inkscape:zoom="12.102564"
     inkscape:cx="-6.2463813"
     inkscape:cy="25.415702"
     inkscape:window-x="-8"
     inkscape:window-y="-8"
     inkscape:window-maximized="1"
     inkscape:current-layer="g5278"
     fit-margin-top="0"
     fit-margin-left="0"
     fit-margin-right="0"
     fit-margin-bottom="0" />
  <g
     id="g5278"
     transform="translate(-0.66525836,-0.89409182)">
    <path
       style="fill:#dd4229"
       d="M 5.7173072,24.561749 C -0.43072537,13.630797 -0.86484136,8.8707125 3.8557801,4.150091 c 4.3413323,-4.34133224 10.1808119,-4.34133224 14.5221439,0 4.768332,4.7683317 4.329269,9.648728 -1.844405,20.501458 -2.704167,4.753667 -5.141667,8.638162 -5.416667,8.632211 -0.275,-0.006 -2.7047949,-3.930856 -5.3995448,-8.722011 z m 9.1995448,-9.411192 c 1.546918,-1.546918 1.546918,-6.0530817 0,-7.5999998 -1.546918,-1.5469181 -6.0530815,-1.5469181 -7.5999996,0 -1.5469181,1.5469181 -1.5469181,6.0530818 0,7.5999998 1.5469181,1.546918 6.0530816,1.546918 7.5999996,0 z"
       id="path5280"
       inkscape:connector-curvature="0" />
  </g>
</svg>
